<?xml version="1.0" encoding="UTF-8"?>
<svg xmlns="http://www.w3.org/2000/svg" xmlns:xlink="http://www.w3.org/1999/xlink" width="268.07pt" height="136.07pt" viewBox="0 0 268.07 136.07" version="1.1">
<g id="surface1">
<path style=" stroke:none;fill-rule:nonzero;fill:rgb(2.745056%,2.352905%,2.352905%);fill-opacity:1;" d="M 12.890625 106.777344 C 12.890625 104.617188 11.113281 102.839844 8.953125 102.839844 C 6.714844 102.839844 4.9375 104.617188 4.9375 106.777344 L 4.9375 114.496094 L 12.890625 114.496094 Z M 17.832031 106.777344 L 17.832031 134.796875 C 17.832031 135.488281 17.289062 136.03125 16.59375 136.03125 L 14.125 136.03125 C 13.429688 136.03125 12.890625 135.488281 12.890625 134.796875 L 12.890625 119.433594 L 4.9375 119.433594 L 4.9375 134.796875 C 4.9375 135.488281 4.398438 136.03125 3.707031 136.03125 L 1.234375 136.03125 C 0.539062 136.03125 0 135.488281 0 134.796875 L 0 106.777344 C 0 101.914062 4.011719 97.902344 8.953125 97.902344 C 13.816406 97.902344 17.832031 101.914062 17.832031 106.777344 "/>
<path style=" stroke:none;fill-rule:nonzero;fill:rgb(2.745056%,2.352905%,2.352905%);fill-opacity:1;" d="M 44.167969 99.097656 L 44.167969 101.566406 C 44.167969 102.261719 43.628906 102.800781 42.929688 102.800781 L 39.460938 102.800781 L 39.460938 134.835938 C 39.460938 135.453125 38.917969 136.070312 38.222656 136.070312 L 35.753906 136.070312 C 35.058594 136.070312 34.519531 135.453125 34.519531 134.835938 L 34.519531 102.800781 L 31.046875 102.800781 C 30.347656 102.800781 29.808594 102.261719 29.808594 101.566406 L 29.808594 99.097656 C 29.808594 98.402344 30.347656 97.863281 31.046875 97.863281 L 42.929688 97.863281 C 43.628906 97.863281 44.167969 98.402344 44.167969 99.097656 "/>
<path style=" stroke:none;fill-rule:nonzero;fill:rgb(2.745056%,2.352905%,2.352905%);fill-opacity:1;" d="M 68.328125 99.097656 L 68.328125 134.835938 C 68.328125 135.527344 67.785156 136.070312 67.089844 136.070312 L 64.621094 136.070312 C 64.003906 136.070312 63.386719 135.527344 63.386719 134.835938 L 63.386719 119.398438 L 55.511719 119.398438 L 55.511719 134.835938 C 55.511719 135.527344 54.972656 136.070312 54.277344 136.070312 L 51.808594 136.070312 C 51.113281 136.070312 50.574219 135.527344 50.574219 134.835938 L 50.574219 99.097656 C 50.574219 98.402344 51.113281 97.863281 51.808594 97.863281 L 54.277344 97.863281 C 54.972656 97.863281 55.511719 98.402344 55.511719 99.097656 L 55.511719 114.457031 L 63.386719 114.457031 L 63.386719 99.097656 C 63.386719 98.402344 64.003906 97.863281 64.621094 97.863281 L 67.089844 97.863281 C 67.785156 97.863281 68.328125 98.402344 68.328125 99.097656 "/>
<path style=" stroke:none;fill-rule:nonzero;fill:rgb(2.745056%,2.352905%,2.352905%);fill-opacity:1;" d="M 80.441406 134.835938 C 80.441406 135.527344 79.902344 136.070312 79.207031 136.070312 L 76.734375 136.070312 C 76.042969 136.070312 75.503906 135.527344 75.503906 134.835938 L 75.503906 99.097656 C 75.503906 98.402344 76.042969 97.863281 76.734375 97.863281 L 79.207031 97.863281 C 79.824219 97.863281 80.441406 98.402344 80.441406 99.097656 L 80.441406 134.835938 "/>
<path style=" stroke:none;fill-rule:nonzero;fill:rgb(2.745056%,2.352905%,2.352905%);fill-opacity:1;" d="M 105.449219 106.738281 L 105.449219 134.835938 C 105.449219 135.453125 104.90625 136.070312 104.214844 136.070312 L 101.742188 136.070312 C 101.050781 136.070312 100.507812 135.453125 100.507812 134.835938 L 100.507812 106.738281 C 100.507812 104.578125 98.730469 102.800781 96.574219 102.800781 C 94.335938 102.800781 92.558594 104.578125 92.558594 106.738281 L 92.558594 134.835938 C 92.558594 135.453125 92.019531 136.070312 91.324219 136.070312 L 88.851562 136.070312 C 88.15625 136.070312 87.617188 135.453125 87.617188 134.835938 L 87.617188 106.738281 C 87.617188 101.875 91.632812 97.863281 96.574219 97.863281 C 101.433594 97.863281 105.449219 101.875 105.449219 106.738281 "/>
<path style=" stroke:none;fill-rule:nonzero;fill:rgb(2.745056%,2.352905%,2.352905%);fill-opacity:1;" d="M 130.453125 110.445312 C 130.453125 112.992188 129.375 115.304688 127.675781 116.925781 C 129.375 118.546875 130.453125 120.789062 130.453125 123.335938 L 130.453125 134.835938 C 130.453125 135.453125 129.914062 136.070312 129.222656 136.070312 L 126.75 136.070312 C 126.058594 136.070312 125.515625 135.453125 125.515625 134.835938 L 125.515625 123.335938 C 125.515625 121.171875 123.738281 119.398438 121.503906 119.398438 L 117.5625 119.398438 L 117.5625 134.835938 C 117.5625 135.453125 117.023438 136.070312 116.328125 136.070312 L 113.859375 136.070312 C 113.164062 136.070312 112.625 135.453125 112.625 134.835938 L 112.625 99.097656 C 112.625 98.402344 113.164062 97.863281 113.859375 97.863281 L 116.328125 97.863281 C 117.023438 97.863281 117.5625 98.402344 117.5625 99.097656 L 117.5625 114.457031 L 121.503906 114.457031 C 123.738281 114.457031 125.515625 112.683594 125.515625 110.445312 L 125.515625 99.097656 C 125.515625 98.402344 126.058594 97.863281 126.75 97.863281 L 129.222656 97.863281 C 129.914062 97.863281 130.453125 98.402344 130.453125 99.097656 L 130.453125 110.445312 "/>
<path style=" stroke:none;fill-rule:nonzero;fill:rgb(2.745056%,2.352905%,2.352905%);fill-opacity:1;" d="M 142.570312 134.835938 C 142.570312 135.527344 142.03125 136.070312 141.339844 136.070312 L 138.867188 136.070312 C 138.175781 136.070312 137.632812 135.527344 137.632812 134.835938 L 137.632812 99.097656 C 137.632812 98.402344 138.175781 97.863281 138.867188 97.863281 L 141.339844 97.863281 C 141.953125 97.863281 142.570312 98.402344 142.570312 99.097656 L 142.570312 134.835938 "/>
<path style=" stroke:none;fill-rule:nonzero;fill:rgb(2.745056%,2.352905%,2.352905%);fill-opacity:1;" d="M 167.578125 106.738281 L 167.578125 134.835938 C 167.578125 135.453125 167.039062 136.070312 166.34375 136.070312 L 163.871094 136.070312 C 163.179688 136.070312 162.640625 135.453125 162.640625 134.835938 L 162.640625 106.738281 C 162.640625 104.578125 160.863281 102.800781 158.699219 102.800781 C 156.464844 102.800781 154.6875 104.578125 154.6875 106.738281 L 154.6875 134.835938 C 154.6875 135.453125 154.148438 136.070312 153.453125 136.070312 L 150.980469 136.070312 C 150.289062 136.070312 149.746094 135.453125 149.746094 134.835938 L 149.746094 106.738281 C 149.746094 101.875 153.761719 97.863281 158.699219 97.863281 C 163.5625 97.863281 167.578125 101.875 167.578125 106.738281 "/>
<path style=" stroke:none;fill-rule:nonzero;fill:rgb(2.745056%,2.352905%,2.352905%);fill-opacity:1;" d="M 187.566406 109.398438 L 187.566406 106.777344 C 187.566406 104.539062 185.792969 102.839844 183.632812 102.839844 C 181.472656 102.839844 179.695312 104.539062 179.695312 106.777344 L 179.695312 127.230469 C 179.695312 129.390625 181.472656 131.167969 183.632812 131.167969 C 185.792969 131.167969 187.566406 129.390625 187.566406 127.230469 L 187.566406 119.28125 L 184.867188 119.28125 C 184.171875 119.28125 183.632812 118.738281 183.632812 118.125 L 183.632812 115.652344 C 183.632812 114.960938 184.171875 114.417969 184.867188 114.417969 L 191.273438 114.417969 C 191.96875 114.417969 192.507812 114.960938 192.507812 115.652344 L 192.507812 127.230469 C 192.507812 132.09375 188.492188 136.03125 183.632812 136.03125 C 178.769531 136.03125 174.757812 132.09375 174.757812 127.230469 L 174.757812 106.777344 C 174.757812 101.835938 178.769531 97.902344 183.632812 97.902344 C 188.492188 97.902344 192.507812 101.835938 192.507812 106.777344 L 192.507812 109.398438 C 192.507812 110.097656 191.96875 110.636719 191.273438 110.636719 L 188.804688 110.636719 C 188.109375 110.636719 187.566406 110.097656 187.566406 109.398438 "/>
<path style=" stroke:none;fill-rule:nonzero;fill:rgb(2.745056%,2.352905%,2.352905%);fill-opacity:1;" d="M 219.671875 106.777344 C 219.671875 104.617188 217.894531 102.839844 215.734375 102.839844 C 213.496094 102.839844 211.722656 104.617188 211.722656 106.777344 L 211.722656 114.496094 L 219.671875 114.496094 Z M 224.609375 106.777344 L 224.609375 134.796875 C 224.609375 135.488281 224.070312 136.03125 223.378906 136.03125 L 220.90625 136.03125 C 220.214844 136.03125 219.671875 135.488281 219.671875 134.796875 L 219.671875 119.433594 L 211.722656 119.433594 L 211.722656 134.796875 C 211.722656 135.488281 211.183594 136.03125 210.488281 136.03125 L 208.019531 136.03125 C 207.320312 136.03125 206.78125 135.488281 206.78125 134.796875 L 206.78125 106.777344 C 206.78125 101.914062 210.796875 97.902344 215.734375 97.902344 C 220.597656 97.902344 224.609375 101.914062 224.609375 106.777344 "/>
<path style=" stroke:none;fill-rule:nonzero;fill:rgb(2.745056%,2.352905%,2.352905%);fill-opacity:1;" d="M 244.679688 106.738281 C 244.679688 104.578125 242.902344 102.800781 240.742188 102.800781 L 236.730469 102.800781 L 236.730469 114.457031 L 240.742188 114.457031 C 242.902344 114.457031 244.679688 112.683594 244.679688 110.445312 Z M 249.617188 106.738281 L 249.617188 110.445312 C 249.617188 115.382812 245.605469 119.398438 240.742188 119.398438 L 236.730469 119.398438 L 236.730469 134.835938 C 236.730469 135.453125 236.1875 136.070312 235.492188 136.070312 L 233.023438 136.070312 C 232.40625 136.070312 231.789062 135.453125 231.789062 134.835938 L 231.789062 99.097656 C 231.789062 98.402344 232.40625 97.863281 233.023438 97.863281 L 240.742188 97.863281 C 245.605469 97.863281 249.617188 101.875 249.617188 106.738281 "/>
<path style=" stroke:none;fill-rule:nonzero;fill:rgb(2.745056%,2.352905%,2.352905%);fill-opacity:1;" d="M 260.113281 102.800781 L 260.113281 114.457031 L 266.828125 114.457031 C 267.523438 114.457031 268.066406 115 268.066406 115.691406 L 268.066406 118.164062 C 268.066406 118.855469 267.523438 119.398438 266.828125 119.398438 L 260.113281 119.398438 L 260.113281 131.128906 L 266.828125 131.128906 C 267.523438 131.128906 268.066406 131.671875 268.066406 132.363281 L 268.066406 134.835938 C 268.066406 135.527344 267.523438 136.070312 266.828125 136.070312 L 257.644531 136.070312 C 256.257812 136.070312 255.175781 134.914062 255.175781 133.601562 L 255.175781 100.332031 C 255.175781 98.941406 256.257812 97.863281 257.644531 97.863281 L 266.828125 97.863281 C 267.523438 97.863281 268.066406 98.402344 268.066406 99.097656 L 268.066406 101.566406 C 268.066406 102.261719 267.523438 102.800781 266.828125 102.800781 L 260.113281 102.800781 "/>
<path style=" stroke:none;fill-rule:nonzero;fill:rgb(2.745056%,2.352905%,2.352905%);fill-opacity:1;" d="M 165.882812 61.980469 C 165.882812 61.980469 159.589844 63.53125 157.464844 65.042969 C 155.335938 66.542969 152.769531 68.539062 152.453125 63.933594 C 152.144531 59.328125 159.453125 57.863281 160.695312 57.820312 C 161.9375 57.773438 165.078125 58.035156 166.941406 59.722656 C 168.804688 61.40625 165.882812 61.980469 165.882812 61.980469 Z M 145.050781 65.042969 C 142.925781 63.53125 136.632812 61.980469 136.632812 61.980469 C 136.632812 61.980469 133.707031 61.40625 135.570312 59.722656 C 137.433594 58.035156 140.574219 57.773438 141.816406 57.820312 C 143.058594 57.863281 150.367188 59.328125 150.054688 63.933594 C 149.746094 68.539062 147.179688 66.542969 145.050781 65.042969 Z M 173.65625 61.777344 C 172.75 59.875 172.132812 58.34375 171.785156 55.769531 C 171.1875 51.226562 172.296875 43.847656 166.957031 38.824219 C 156.472656 28.953125 154.335938 19.777344 152.640625 17.703125 C 149.800781 14.226562 145.355469 14.171875 144.699219 8.808594 C 144.507812 7.402344 143.496094 10.0625 143.226562 10.457031 C 142.914062 10.886719 138.761719 6.824219 137.214844 5.863281 C 122.910156 -4.617188 105.390625 1.253906 101.390625 5.839844 C 98.324219 9.375 95.601562 13.460938 92.617188 17.101562 C 88.972656 21.558594 88.847656 26.839844 89.382812 32.234375 C 89.671875 35.160156 90.320312 38.046875 89.585938 40.960938 C 88.09375 46.84375 86.042969 52.914062 88.894531 60.828125 C 90.109375 61.417969 88.253906 55.464844 93.304688 40.84375 C 94.292969 36.289062 93.773438 32.925781 93.503906 31.035156 C 92.277344 22.574219 106.382812 12.148438 107.507812 11.527344 C 109.683594 10.128906 104.625 11.132812 104.765625 10.382812 C 106.164062 8.570312 110.824219 8.152344 112.804688 8.050781 C 124.007812 7.46875 134.101562 16.488281 130.820312 23.050781 C 129.894531 24.910156 120.097656 29.585938 118.8125 29.738281 C 118.371094 29.792969 121.328125 32.449219 120.246094 35.996094 C 124.839844 33.769531 129.367188 34.574219 132.222656 35.109375 C 134.792969 35.597656 138.9375 37.835938 141.464844 38.492188 C 148.40625 40.269531 159.453125 37.617188 164.0625 43.40625 C 166.21875 46.402344 166.171875 50.417969 166.171875 52.214844 C 159.285156 50.691406 156.488281 53.886719 151.71875 53.886719 C 146.953125 53.886719 147.664062 53.476562 143.472656 52.648438 C 139.296875 51.824219 133.394531 54.023438 131.8125 58.238281 C 130.359375 62.722656 133.296875 71.761719 147.777344 70.835938 C 149.730469 70.710938 160.742188 70.21875 166.390625 74.308594 C 170.730469 77.097656 175.265625 75.253906 175.589844 71.074219 C 175.667969 65.84375 175.144531 64.875 173.65625 61.777344 "/>
<path style=" stroke:none;fill-rule:nonzero;fill:rgb(2.745056%,2.352905%,2.352905%);fill-opacity:1;" d="M 120.546875 46.214844 C 122.320312 46.566406 123.308594 49.101562 127.628906 49.019531 C 130.398438 48.980469 132.757812 46.566406 132.757812 46.566406 C 128.1875 42.425781 120.546875 46.214844 120.546875 46.214844 "/>
<path style=" stroke:none;fill-rule:nonzero;fill:rgb(2.745056%,2.352905%,2.352905%);fill-opacity:1;" d="M 157.542969 46.566406 C 152.980469 42.425781 145.347656 46.214844 145.347656 46.214844 C 147.121094 46.566406 148.09375 49.101562 152.421875 49.019531 C 155.179688 48.980469 157.542969 46.566406 157.542969 46.566406 "/>
</g>
</svg>
