<?xml version="1.0" encoding="UTF-8"?>
<svg width="367px" height="188px" viewBox="0 0 367 188" version="1.1" xmlns="http://www.w3.org/2000/svg" xmlns:xlink="http://www.w3.org/1999/xlink">
    <!-- Generator: Sketch 52.3 (67297) - http://www.bohemiancoding.com/sketch -->
    <title>Group 3</title>
    <desc>Created with Sketch.</desc>
    <defs>
        <radialGradient cx="-10.8183099%" cy="-7.02466746%" fx="-10.8183099%" fy="-7.02466746%" r="110.257384%" gradientTransform="translate(-0.108183,-0.070247),scale(1.000000,0.999280),translate(0.108183,0.070247)" id="radialGradient-1">
            <stop stop-color="#FAAC47" offset="0.5188899%"></stop>
            <stop stop-color="#EA2C41" offset="100%"></stop>
        </radialGradient>
    </defs>
    <g id="Page-1" stroke="none" stroke-width="1" fill="none" fill-rule="evenodd">
        <g id="Group-3">
            <path d="M178.367547,0.23316238 C148.757544,2.67244573 125.004466,26.5774225 122.726773,56.0114415 C122.401388,59.751676 122.401388,63.4919105 122.889465,67.069526 C122.889465,67.7200016 123.702927,68.0452394 124.191004,67.5573827 L152.174083,39.5869337 L145.991775,33.4074159 C145.503698,32.9195592 145.829083,32.2690836 146.479852,32.2690836 L168.11793,32.2690836 C168.443315,32.2690836 168.7687,32.5943214 168.7687,32.9195592 L168.7687,54.5478715 C168.7687,55.1983471 167.955238,55.5235849 167.629853,55.0357282 L161.122161,48.5309726 L127.119466,82.1930828 C126.631389,82.6809395 126.631389,83.331415 126.794081,83.8192717 C128.909081,89.0230762 131.674851,93.739024 134.928697,98.129734 C135.416774,98.7802095 136.55562,98.9428284 137.20639,98.2923529 L193.497932,42.026217 L185.200624,33.7326537 C184.712547,33.244797 185.037932,32.2690836 185.851393,32.2690836 L211.394088,32.2690836 C211.882165,32.2690836 212.207549,32.5943214 212.207549,33.0821781 L212.207549,58.6133438 C212.207549,59.4264382 211.394088,59.751676 210.743318,59.2638193 L202.44601,50.970256 L146.154467,107.236392 C145.503698,107.886867 145.503698,108.862581 146.317159,109.513056 C150.709852,112.765434 155.427929,115.529955 160.471391,117.644001 C160.959468,117.80662 161.610238,117.80662 162.098315,117.318763 L195.775625,83.6566528 L189.267932,77.1518972 C188.779855,76.6640405 189.10524,76.013565 189.756009,76.013565 L211.394088,76.013565 C211.719472,76.013565 212.044857,76.3388028 212.044857,76.6640405 L212.044857,98.2923529 C212.044857,98.9428284 211.231395,99.2680662 210.906011,98.7802095 L204.56101,92.4380728 L176.577931,120.408522 C176.089854,120.896379 176.415239,121.709473 177.066008,121.709473 C181.458701,122.19733 185.851393,122.19733 190.406778,121.546854 C217.413703,118.457095 242.142936,92.9259295 244.257936,65.7685749 C247.34909,28.2036114 216.112165,-3.01921541 178.367547,0.23316238 Z" id="Path" fill="url(#radialGradient-1)"></path>
            <g id="Group" transform="translate(0.000000, 159.000000)">
                <g id="Group-2" fill="#000000">
                    <polygon id="Path" points="62 27.7 54.2 27.7 72.8 0 80.7 0"></polygon>
                    <polygon id="Path" points="72.9 27.7 80.7 27.7 62.1 0 54.2 0"></polygon>
                    <polygon id="Path" points="6.6 11.8 6.6 27.6 0.2 27.6 0.2 0 5.2 0 18.1 16.2 18.1 0 24.5 0 24.5 27.6 19.4 27.6"></polygon>
                    <polygon id="Path" points="50.6 22 50.6 27.6 31.2 27.6 31.2 0 50.3 0 50.3 5.6 37.6 5.6 37.6 11 48.5 11 48.5 16.2 37.6 16.2 37.6 22.1 50.6 22.1"></polygon>
                    <polygon id="Path" points="106.4 5.6 98 5.6 98 27.6 91.6 27.6 91.6 5.6 83.2 5.6 83.2 0 106.4 0 106.4 5.6"></polygon>
                    <path d="M135,20.6 C135,21.8 134.8,22.8 134.3,23.7 C133.8,24.6 133.1,25.3 132.3,25.9 C131.4,26.5 130.4,26.9 129.3,27.2 C128.2,27.5 127,27.6 125.7,27.6 L112.2,27.6 L112.2,0 L127.5,0 C128.5,0 129.3,0.2 130.1,0.6 C130.9,1 131.5,1.6 132.1,2.2 C132.6,2.9 133.1,3.6 133.4,4.5 C133.7,5.3 133.8,6.2 133.8,7.1 C133.8,8.4 133.5,9.7 132.8,10.8 C132.1,12 131.1,12.8 129.8,13.4 C131.4,13.9 132.6,14.7 133.6,15.9 C134.5,17.2 135,18.7 135,20.6 Z M118.5,5.5 L118.5,11.2 L124.8,11.2 C125.5,11.2 126.1,11 126.7,10.5 C127.3,10 127.5,9.3 127.5,8.3 C127.5,7.4 127.3,6.7 126.8,6.2 C126.3,5.7 125.7,5.5 125.1,5.5 L118.5,5.5 Z M128.5,19.3 C128.5,18.4 128.3,17.7 127.8,17.1 C127.3,16.5 126.7,16.2 125.9,16.2 L118.5,16.2 L118.5,22.2 L125.6,22.2 C126.4,22.2 127.1,21.9 127.7,21.4 C128.2,20.9 128.5,20.2 128.5,19.3 Z" id="Shape" fill-rule="nonzero"></path>
                    <polygon id="Path" points="140.2 27.6 140.2 0 146.6 0 146.6 27.6"></polygon>
                    <polygon id="Path" points="154.2 27.6 154.2 0 160.6 0 160.6 22 174 22 174 27.6"></polygon>
                    <polygon id="Path" points="179.2 27.6 179.2 0 185.6 0 185.6 22 199 22 199 27.6"></polygon>
                    <polygon id="Path" points="203.2 27.6 203.2 0 209.6 0 209.6 27.6"></polygon>
                    <polygon id="Path" points="253.6 11.8 253.6 27.6 247.2 27.6 247.2 0 252.2 0 265.1 16.2 265.1 0 271.5 0 271.5 27.6 266.4 27.6"></polygon>
                    <path d="M229.010788,27.510751 C226.610788,27.510751 224.410788,26.810751 222.410788,25.610751 C220.410788,24.410751 218.910788,22.710751 217.810788,20.510751 C216.710788,18.410751 216.110788,16.010751 216.210788,13.510751 C216.210788,11.010751 216.910788,8.71075101 218.110788,6.61075101 C219.310788,4.51075101 220.910788,2.91075101 222.910788,1.71075101 C224.910788,0.510751011 227.110788,-0.0892489894 229.510788,0.0107510106 C231.910788,0.0107510106 234.110788,0.710751011 236.110788,1.91075101 C238.110788,3.11075101 239.610788,4.81075101 240.710788,7.01075101 C241.810788,9.11075101 242.410788,11.510751 242.310788,14.010751 C242.310788,16.610751 241.610788,18.910751 240.410788,21.010751 C239.210788,23.110751 237.610788,24.710751 235.610788,25.910751 C233.710788,26.910751 231.510788,27.510751 229.010788,27.510751 Z M229.410788,6.51075101 C228.210788,6.51075101 227.010788,6.81075101 226.010788,7.41075101 C225.010788,8.01075101 224.210788,8.91075101 223.610788,9.91075101 C223.010788,11.010751 222.710788,12.210751 222.710788,13.510751 C222.710788,14.810751 222.910788,16.110751 223.510788,17.210751 C224.110788,18.310751 224.810788,19.210751 225.810788,19.810751 C226.810788,20.410751 227.910788,20.810751 229.210788,20.810751 C230.410788,20.810751 231.610788,20.510751 232.610788,19.910751 C233.610788,19.310751 234.410788,18.410751 235.010788,17.410751 C235.610788,16.310751 235.910788,15.110751 235.910788,13.710751 C235.910788,12.410751 235.710788,11.110751 235.110788,10.010751 C234.510788,8.91075101 233.810788,8.01075101 232.810788,7.41075101 C231.710788,6.81075101 230.610788,6.51075101 229.410788,6.51075101 Z" id="Shape" fill-rule="nonzero"></path>
                    <polygon id="Path" stroke="#000000" stroke-width="0.2556" points="278.2 27.4 278.2 21 283.3 21 283.3 27.4"></polygon>
                    <path d="M299.5,28.3 C297.5,28.3 295.7,27.9 294.1,27.1 C292.5,26.3 291.1,25.2 289.9,23.9 C288.7,22.6 287.8,21.1 287.2,19.4 C286.6,17.7 286.2,16 286.2,14.1 C286.2,12.3 286.5,10.5 287.2,8.8 C287.9,7.1 288.8,5.6 290,4.3 C291.2,3 292.6,2 294.2,1.2 C295.8,0.4 297.6,-2.84217094e-14 299.5,-2.84217094e-14 C301.5,-2.84217094e-14 303.3,0.4 304.9,1.2 C306.5,2 307.9,3.1 309.1,4.4 C310.3,5.7 311.2,7.2 311.8,8.9 C312.4,10.6 312.7,12.3 312.7,14.1 C312.7,15.9 312.4,17.7 311.7,19.4 C311,21.1 310.1,22.6 308.9,23.9 C307.7,25.2 306.3,26.2 304.7,27 C303.2,27.9 301.5,28.3 299.5,28.3 Z M292.8,14.2 C292.8,15.3 293,16.3 293.3,17.3 C293.6,18.3 294,19.2 294.6,20 C295.2,20.8 295.9,21.4 296.7,21.9 C297.5,22.4 298.5,22.6 299.6,22.6 C300.7,22.6 301.7,22.4 302.5,21.9 C303.3,21.4 304,20.8 304.6,20 C305.2,19.2 305.6,18.3 305.9,17.3 C306.2,16.3 306.3,15.3 306.3,14.2 C306.3,13.1 306.1,12.1 305.8,11.1 C305.5,10.1 305.1,9.2 304.5,8.4 C303.9,7.6 303.2,7 302.4,6.6 C301.6,6.1 300.6,5.9 299.5,5.9 C298.4,5.9 297.4,6.1 296.6,6.6 C295.8,7.1 295.1,7.7 294.5,8.5 C293.9,9.3 293.5,10.2 293.2,11.2 C293,12.1 292.8,13.1 292.8,14.2 Z" id="Shape" stroke="#000000" stroke-width="0.2556" fill-rule="nonzero"></path>
                    <path d="M316.2,27.8 L316.2,-2.84217094e-14 L328.7,-2.84217094e-14 C330,-2.84217094e-14 331.2,0.3 332.3,0.8 C333.4,1.3 334.4,2.1 335.2,3 C336,3.9 336.6,4.9 337.1,6 C337.6,7.1 337.8,8.3 337.8,9.4 C337.8,10.3 337.7,11.1 337.5,11.9 C337.3,12.7 337,13.4 336.6,14.2 C336.2,14.9 335.7,15.5 335.2,16.1 C334.6,16.7 334,17.1 333.3,17.5 L339.7,27.8 L332.4,27.8 L326.8,18.8 L322.6,18.8 L322.6,27.8 L316.2,27.8 Z M322.6,13.2 L328.5,13.2 C329.3,13.2 329.9,12.8 330.5,12.1 C331,11.4 331.3,10.5 331.3,9.3 C331.3,8.2 331,7.2 330.4,6.6 C329.8,5.9 329.1,5.6 328.4,5.6 L322.7,5.6 L322.7,13.2 L322.6,13.2 Z" id="Shape" stroke="#000000" stroke-width="0.2556" fill-rule="nonzero"></path>
                    <path d="M360.9,25.3 C359.9,26.3 358.9,27 357.7,27.5 C356.6,28 355.4,28.2 354.1,28.2 C352.3,28.2 350.7,27.8 349.1,27 C347.5,26.2 346.2,25.2 345,23.9 C343.8,22.6 342.9,21.1 342.2,19.3 C341.5,17.6 341.2,15.8 341.2,13.9 C341.2,12 341.5,10.2 342.2,8.5 C342.9,6.8 343.8,5.3 345,4.1 C346.2,2.8 347.6,1.9 349.2,1.1 C350.8,0.4 352.6,2.84217094e-14 354.5,2.84217094e-14 C357,2.84217094e-14 359.1,0.5 361,1.6 C362.9,2.7 364.2,4.2 365.2,6 L360.4,9.6 C359.8,8.3 359,7.4 357.9,6.7 C356.8,6 355.6,5.7 354.4,5.7 C353.4,5.7 352.5,5.9 351.7,6.3 C350.9,6.7 350.2,7.3 349.6,8.1 C349,8.9 348.6,9.8 348.2,10.8 C347.9,11.8 347.7,12.9 347.7,14.1 C347.7,15.3 347.9,16.4 348.2,17.4 C348.5,18.4 349,19.3 349.6,20 C350.2,20.7 350.9,21.3 351.8,21.7 C352.6,22.1 353.6,22.3 354.5,22.3 C355.6,22.3 356.7,22 357.8,21.5 C358.8,20.9 359.8,20.1 360.7,18.9 L360.7,18 L355.3,18 L355.3,13.3 L366,13.3 L366,27.8 L360.7,27.8 L360.7,25.3 L360.9,25.3 Z" id="Path" stroke="#000000" stroke-width="0.2556"></path>
                </g>
                <g transform="translate(278.000000, 0.000000)"></g>
            </g>
        </g>
    </g>
</svg>