<svg width="184" height="184" viewBox="0 0 184 184" fill="none" xmlns="http://www.w3.org/2000/svg">
<mask id="mask0" mask-type="alpha" maskUnits="userSpaceOnUse" x="0" y="0" width="184" height="184">
<circle cx="92" cy="92" r="87" fill="#FF8C73" stroke="#735BA5" stroke-width="10"/>
</mask>
<g mask="url(#mask0)">
<path d="M188.748 90C188.748 143.295 145.544 186.5 92.248 186.5C38.9526 186.5 -4.25195 143.295 -4.25195 90C-4.25195 36.7045 38.9526 -6.5 92.248 -6.5C145.544 -6.5 188.748 36.7045 188.748 90Z" fill="#ABB8F9" stroke="#735BA5"/>
<mask id="path-3-inside-1" fill="white">
<path fill-rule="evenodd" clip-rule="evenodd" d="M102.366 56.9349C100.327 62.2786 102.881 69.1019 108.071 72.1731L145.467 94.304L110.159 119.951C105.906 123.041 104.641 129.723 107.332 134.876C110.024 140.03 115.653 141.702 119.906 138.614L168.201 103.532C172.454 100.442 173.72 93.7591 171.028 88.6058C169.941 86.1585 168.128 83.9915 165.775 82.5989L115.455 52.8187C110.266 49.7474 104.405 51.5901 102.366 56.9349Z"/>
</mask>
<path fill-rule="evenodd" clip-rule="evenodd" d="M102.366 56.9349C100.327 62.2786 102.881 69.1019 108.071 72.1731L145.467 94.304L110.159 119.951C105.906 123.041 104.641 129.723 107.332 134.876C110.024 140.03 115.653 141.702 119.906 138.614L168.201 103.532C172.454 100.442 173.72 93.7591 171.028 88.6058C169.941 86.1585 168.128 83.9915 165.775 82.5989L115.455 52.8187C110.266 49.7474 104.405 51.5901 102.366 56.9349Z" fill="#8280DC"/>
<path d="M108.071 72.1731L108.494 71.301L108.494 71.301L108.071 72.1731ZM102.366 56.9349L103.284 57.3853L103.284 57.3852L102.366 56.9349ZM145.467 94.304L146.08 95.1558L147.303 94.268L145.89 93.4319L145.467 94.304ZM110.159 119.951L109.545 119.1L109.545 119.1L110.159 119.951ZM107.332 134.876L106.478 135.292L106.478 135.292L107.332 134.876ZM119.906 138.614L120.52 139.465L120.52 139.465L119.906 138.614ZM168.201 103.532L168.815 104.383L168.815 104.383L168.201 103.532ZM171.028 88.6058L170.143 88.9556L170.158 88.989L170.174 89.0214L171.028 88.6058ZM165.775 82.5989L166.198 81.7268L166.198 81.7268L165.775 82.5989ZM115.455 52.8187L115.032 53.6908L115.032 53.6908L115.455 52.8187ZM108.494 71.301C103.765 68.5025 101.426 62.2544 103.284 57.3853L101.448 56.4844C99.2278 62.3028 101.997 69.7012 107.648 73.0453L108.494 71.301ZM145.89 93.4319L108.494 71.301L107.648 73.0453L145.044 95.1761L145.89 93.4319ZM110.773 120.803L146.08 95.1558L144.853 93.4522L109.545 119.1L110.773 120.803ZM108.186 134.461C105.733 129.764 106.897 123.619 110.773 120.803L109.545 119.1C104.916 122.463 103.548 129.682 106.478 135.292L108.186 134.461ZM119.293 137.762C115.511 140.508 110.58 139.043 108.186 134.46L106.478 135.292C109.469 141.017 115.795 142.897 120.52 139.465L119.293 137.762ZM167.587 102.68L119.293 137.762L120.52 139.465L168.815 104.383L167.587 102.68ZM170.174 89.0214C172.627 93.7182 171.464 99.8636 167.587 102.68L168.815 104.383C173.444 101.02 174.812 93.7999 171.882 88.1901L170.174 89.0214ZM165.352 83.471C167.486 84.7343 169.145 86.7086 170.143 88.9556L171.914 88.2559C170.738 85.6084 168.769 83.2487 166.198 81.7268L165.352 83.471ZM115.032 53.6908L165.352 83.4711L166.198 81.7268L115.878 51.9465L115.032 53.6908ZM103.284 57.3852C105.12 52.5743 110.361 50.9263 115.032 53.6908L115.878 51.9465C110.17 48.5684 103.691 50.606 101.448 56.4845L103.284 57.3852Z" fill="#735BA5" mask="url(#path-3-inside-1)"/>
<rect x="-1.65997" y="1.12655" width="12.1288" height="21.745" rx="6.06441" transform="matrix(-0.135802 0.990736 -0.970846 -0.239703 154.509 93.884)" fill="white" stroke="#735BA5" stroke-width="3"/>
<rect x="-1.65997" y="1.12655" width="9.18682" height="18.6205" rx="4.59341" transform="matrix(-0.135802 0.990736 -0.970846 -0.239703 150.141 107.433)" fill="white" stroke="#735BA5" stroke-width="3"/>
<path d="M147.754 61.9639C165.906 58.5624 176.586 73.7487 179.657 81.7671L190.57 87.9447L187.159 116.919L165.486 114.868C163.295 118.198 157.112 120.404 151.644 121.304C148.986 121.741 148.075 118.838 150.21 117.195C159.538 110.019 171.968 99.6745 172.467 98.4764C173.085 96.9935 172.257 93.585 171.765 92.0662C171.574 90.318 160.803 87.6633 158.075 85.0132C155.893 82.893 155.747 78.5844 155.947 76.6952C154.71 76.5355 149.167 81.565 138.488 84.2077C129.945 86.322 130.749 78.0762 132.218 73.689L147.754 61.9639Z" fill="white"/>
<path d="M155.947 76.6952C154.71 76.5355 149.167 81.565 138.488 84.2077C129.945 86.322 130.749 78.0762 132.218 73.689L147.754 61.9639C165.906 58.5624 176.586 73.7487 179.657 81.7671L190.57 87.9447L187.159 116.919L165.486 114.868C163.295 118.198 157.112 120.404 151.644 121.304C148.986 121.741 148.075 118.838 150.21 117.195C159.538 110.019 171.968 99.6745 172.467 98.4764C173.085 96.9935 172.257 93.585 171.765 92.0662C171.574 90.318 160.803 87.6633 158.075 85.0132C155.893 82.893 155.747 78.5844 155.947 76.6952ZM155.947 76.6952C155.83 75.6268 155.811 73.2306 156.673 72.1928" stroke="#735BA5" stroke-width="3"/>
<path d="M48.6395 66.2972C45.099 65.9581 29.8896 71.4755 22.7274 74.2766L-6.13008 73.6679L-5.33703 109.42L15.9332 106.693C18.9394 111.246 26.3872 120.398 32.1281 120.574C39.3042 120.796 71.3009 120.031 73.9922 116.926C76.1452 114.442 82.7257 94.9712 85.7468 85.5463L79.7993 77.9695L74.7724 76.0864C69.4121 74.0777 53.065 66.7211 48.6395 66.2972Z" fill="white"/>
<path d="M74.7724 76.0864C69.4121 74.0777 53.065 66.7211 48.6395 66.2972C45.099 65.9581 29.8896 71.4755 22.7274 74.2766L-6.13008 73.6679L-5.33703 109.42L15.9332 106.693C18.9394 111.246 26.3872 120.398 32.1281 120.574C39.3042 120.796 71.3009 120.031 73.9922 116.926C76.1452 114.442 82.7257 94.9712 85.7468 85.5463L79.7993 77.9695L74.7724 76.0864ZM74.7724 76.0864C80.1328 78.0952 81.9894 87.4296 75.4754 89.5125C70.2642 91.1787 53.7738 85.9063 46.18 83.0618C47.2012 85.7754 47.512 91.5409 40.5863 92.8951C33.6606 94.2492 28.4888 93.5732 26.7685 93.0658" stroke="#735BA5" stroke-width="3"/>
<rect x="-0.0643058" y="-0.747056" width="24.8726" height="98.9805" rx="12.4363" transform="matrix(-0.723512 -0.690312 0.594901 -0.803799 36.9352 143.964)" fill="#8280DC" stroke="#735BA5"/>
<path d="M71.1549 74.0072L55.4703 68.1318L31.6861 93.9133C36.903 93.7884 44.1243 91.1451 47.4455 86.6899C48.2779 85.5732 48.7396 84.5129 48.948 83.5429C54.2673 85.3754 66.1192 88.9546 73.2693 89.3712C82.371 89.9016 84.8077 80.5319 82.438 76.3538C80.0683 72.1757 77.1151 76.2398 71.1549 74.0072Z" fill="white"/>
<path d="M54.4855 67.9007C57.727 69.115 65.402 71.99 70.1701 73.7761C76.1303 76.0087 79.0835 71.9446 81.4532 76.1227C83.8229 80.3008 81.3862 89.6705 72.2845 89.1401C65.003 88.7158 52.8453 85.0117 47.6767 83.2126M46.6533 78.305C47.7875 79.4153 49.3368 82.6006 46.4607 86.4588C42.8655 91.2816 35.3275 94.2162 30.0817 93.8963" stroke="#735BA5" stroke-width="3"/>
<path d="M84.5429 99.6116L67.1971 98.3494C65.4319 97.1445 61.7023 103.83 63.6374 107.458C66.0564 111.994 80.0261 113.837 85.5988 109.467C90.0569 105.971 91.0802 99.7466 84.5429 99.6116Z" fill="white" stroke="#735BA5" stroke-width="3"/>
<path d="M83.0467 99.7533C93.9186 98.2321 89.5987 87.675 85.807 84.7466L82.0422 83.3363C81.2782 84.4211 79.1574 87.0267 76.787 88.7711C74.4165 90.5155 70.15 89.3012 68.3131 88.476C67.2048 89.8431 65.0587 93.3441 65.3406 96.4111C65.6931 100.245 69.4569 101.655 83.0467 99.7533Z" fill="white" stroke="#735BA5" stroke-width="3"/>
<path d="M80.371 111.496L64.1791 110.953C62.5686 109.854 58.846 116.485 60.5316 119.928C62.6386 124.232 75.6504 125.471 81.0178 121.013C85.3117 117.448 86.4853 111.37 80.371 111.496Z" fill="white" stroke="#735BA5" stroke-width="3"/>
</g>
</svg>
