<svg width="212" height="184" viewBox="0 0 212 184" fill="none" xmlns="http://www.w3.org/2000/svg">
<circle cx="107" cy="92" r="92" fill="#ABB8F9"/>
<rect x="30.2393" y="40" width="73.1274" height="99.84" rx="3" fill="#735BA5" stroke="#735BA5" stroke-width="2"/>
<rect x="108.412" y="40" width="72.1121" height="99.84" rx="3" fill="#735BA5" stroke="#735BA5" stroke-width="2"/>
<rect x="105.365" y="40" width="67.036" height="99.84" rx="3" fill="white" stroke="#735BA5" stroke-width="2"/>
<rect x="38.3613" y="40" width="67.036" height="99.84" rx="3" fill="white" stroke="#735BA5" stroke-width="2"/>
<rect x="116.533" y="61.3154" width="45.716" height="6.2893" rx="2" fill="#8280DC" stroke="#735BA5" stroke-width="2"/>
<rect x="116.534" y="76.71" width="45.716" height="6.2893" rx="2" fill="#8280DC" stroke="#735BA5" stroke-width="2"/>
<rect x="116.534" y="92.1045" width="45.716" height="6.2893" rx="2" fill="#8280DC" stroke="#735BA5" stroke-width="2"/>
<rect x="116.534" y="107.499" width="45.716" height="6.2893" rx="2" fill="#8280DC" stroke="#735BA5" stroke-width="2"/>
<path d="M182.978 162.352V173H200.593V164.482C202.061 163.772 205.789 160.649 208.96 153.834C212.923 145.316 204.556 132.766 200.593 123.595C196.92 115.097 195.308 114.225 190.904 109.114C187.381 105.026 184.051 99.1604 181.556 99.3024C180.969 101.716 179.536 112.346 182.978 115.913C186.06 119.107 186.941 126.283 186.06 131.034C184.865 131.241 183.736 131.289 182.978 131.261C182.978 130.409 181.318 117.206 174.611 117.206C168.886 117.206 168.445 119.975 168.445 125.937C168.445 130.835 171.616 132.028 168.445 140.205C165.275 148.383 176.812 158.377 182.978 162.352Z" fill="white"/>
<path d="M190.904 128.706C189.843 130.041 187.874 130.721 186.06 131.034M186.06 131.034C184.865 131.241 183.736 131.289 182.978 131.261C182.978 130.409 181.318 117.206 174.611 117.206C168.886 117.206 168.445 119.975 168.445 125.937C168.445 130.835 171.616 132.028 168.445 140.205C165.275 148.383 176.812 158.377 182.978 162.352V173H200.593V164.482C202.061 163.772 205.789 160.649 208.96 153.834C212.923 145.316 204.556 132.766 200.593 123.595C196.92 115.097 195.308 114.225 190.904 109.114C187.381 105.026 184.051 99.1604 181.556 99.3024C180.969 101.716 179.536 112.346 182.978 115.913C186.06 119.107 186.941 126.283 186.06 131.034Z" stroke="#735BA5" stroke-width="3"/>
<path d="M182.978 162.352V173H200.593V164.482C202.061 163.772 205.789 160.649 208.96 153.834C212.923 145.316 204.556 132.766 200.593 123.595C196.92 115.097 195.308 114.225 190.904 109.114C187.381 105.025 184.051 99.1604 181.556 99.3023C180.969 101.716 179.536 112.346 182.978 115.913C186.06 119.107 186.941 126.283 186.06 131.034C184.865 131.241 183.736 131.289 182.978 131.261C182.978 130.409 181.318 117.206 174.611 117.206C168.886 117.206 168.445 119.975 168.445 125.937C168.445 130.835 171.616 132.028 168.445 140.205C165.275 148.383 176.812 158.377 182.978 162.352Z" fill="white"/>
<path d="M190.904 128.706C189.843 130.041 187.874 130.72 186.06 131.034M186.06 131.034C184.865 131.241 183.736 131.289 182.978 131.261C182.978 130.409 181.318 117.206 174.611 117.206C168.886 117.206 168.445 119.975 168.445 125.937C168.445 130.835 171.616 132.028 168.445 140.205C165.275 148.383 176.812 158.377 182.978 162.352V173H200.593V164.482C202.061 163.772 205.789 160.649 208.96 153.834C212.923 145.316 204.556 132.766 200.593 123.595C196.92 115.097 195.308 114.225 190.904 109.114C187.381 105.025 184.051 99.1604 181.556 99.3023C180.969 101.716 179.536 112.346 182.978 115.913C186.06 119.107 186.941 126.283 186.06 131.034Z" stroke="#735BA5" stroke-width="3"/>
<path d="M30.4521 156.246V167.22H11.905V158.44C10.3594 157.709 6.43353 154.49 3.09503 147.466C-1.07809 138.687 7.73183 125.752 11.905 116.3C15.7718 107.542 17.4691 106.643 22.1059 101.375C25.8154 97.161 29.3216 91.1161 31.9492 91.2624C32.5674 93.7499 34.076 104.706 30.4521 108.382C27.2064 111.674 26.279 119.071 27.2064 123.968C28.4654 124.181 29.6539 124.23 30.4521 124.201C30.4521 123.323 32.1995 109.715 39.2621 109.715C45.2899 109.715 45.7536 112.569 45.7536 118.714C45.7536 123.762 42.4151 124.991 45.7536 133.419C49.0921 141.848 36.9436 152.149 30.4521 156.246Z" fill="white"/>
<path d="M22.1059 121.567C23.2238 122.943 25.2962 123.644 27.2064 123.968M27.2064 123.968C28.4654 124.181 29.6539 124.23 30.4521 124.201C30.4521 123.323 32.1995 109.715 39.2621 109.715C45.2899 109.715 45.7536 112.569 45.7536 118.714C45.7536 123.762 42.4151 124.991 45.7536 133.419C49.0921 141.848 36.9436 152.149 30.4521 156.246V167.22H11.905V158.44C10.3594 157.709 6.43353 154.49 3.09503 147.466C-1.07809 138.687 7.73183 125.752 11.905 116.3C15.7718 107.542 17.4691 106.643 22.1059 101.375C25.8154 97.161 29.3216 91.1161 31.9492 91.2624C32.5674 93.7499 34.076 104.706 30.4521 108.382C27.2064 111.674 26.279 119.071 27.2064 123.968Z" stroke="#735BA5" stroke-width="3"/>
<path d="M22.1059 121.567C23.2238 122.943 25.2962 123.644 27.2064 123.968M27.2064 123.968C28.4654 124.181 29.6539 124.23 30.4521 124.201C30.4521 123.323 32.1995 109.715 39.2621 109.715C45.2899 109.715 45.7536 112.569 45.7536 118.714C45.7536 123.762 42.4151 124.991 45.7536 133.419C49.0921 141.848 36.9436 152.149 30.4521 156.246V167.22H11.905V158.44C10.3594 157.709 6.43353 154.49 3.09503 147.466C-1.07809 138.687 7.73183 125.752 11.905 116.3C15.7718 107.542 17.4691 106.643 22.1059 101.375C25.8154 97.161 29.3216 91.1161 31.9492 91.2624C32.5674 93.7499 34.076 104.706 30.4521 108.382C27.2064 111.674 26.279 119.071 27.2064 123.968Z" stroke="#735BA5" stroke-width="3"/>
</svg>
