<svg width="268" height="184" viewBox="0 0 268 184" fill="none" xmlns="http://www.w3.org/2000/svg">
<circle cx="132" cy="92" r="92" fill="#ABB8F9"/>
<rect x="90.4345" y="94.7218" width="8.49932" height="21.8101" rx="3.5" transform="rotate(27.452 90.4345 94.7218)" fill="#F2F7FE" stroke="#735BA5" stroke-width="3"/>
<rect x="75.6396" y="103.023" width="5.19951" height="14.5092" rx="2.59975" transform="rotate(27.452 75.6396 103.023)" fill="#F2F7FE" stroke="#735BA5" stroke-width="3"/>
<path d="M100.744 104.156C101.12 103.553 101.66 103.069 102.301 102.762C105.548 101.206 108.9 104.694 107.216 107.877L101.302 119.056C100.343 120.869 98.2111 121.718 96.2687 121.06C93.7172 120.197 92.6371 117.181 94.0605 114.894L100.744 104.156Z" fill="#F2F7FE" stroke="#735BA5" stroke-width="3"/>
<path d="M164.834 95.7386C166.381 97.0059 168.767 102.667 170.491 106.19L181.659 103.446C178.481 99.5928 171.472 91.3269 168.861 89.0851C165.598 86.2829 162.9 94.1544 164.834 95.7386Z" fill="#F2F7FE" stroke="#735BA5" stroke-width="3"/>
<path d="M180.356 93.5907C181.569 95.1801 182.588 101.238 183.455 105.064L194.955 104.964C192.749 100.483 187.831 90.8255 185.807 88.043C183.276 84.5649 178.838 91.6038 180.356 93.5907Z" fill="#F2F7FE" stroke="#735BA5" stroke-width="3"/>
<path d="M2.64583 99.7845L16.9356 85.1187C18.0804 83.9438 19.9566 83.9063 21.1475 85.0345L27.3123 90.8748C28.0526 91.5762 29.1001 91.8587 30.0792 91.5736C38.3099 89.1769 50.621 83.3105 60 88C66.7082 91.3541 76 88 85 88C94 88 100 96.5 91.5 99.5C90.8988 99.7122 90.2281 99.9103 89.5 100.095C86.8857 100.759 83.5314 101.252 80 101.613C74.4234 102.183 68.4052 102.422 64.1622 102.484C62.871 102.502 61.6648 103.323 61.5467 104.609C61.3181 107.097 62.2386 110 67.5 110C71.5793 110 77.3691 109.377 85 110C89.277 110.349 95.5041 111.506 99 112.37C103.792 113.556 107.211 115.334 107.5 118C107.729 120.115 108.505 119.983 100.5 120.5C102.316 122.94 93.2708 130.338 87 130.5C83.7536 130.584 70.1526 129.855 63.5 128.974C62.3333 130.816 58 133.7 50 130.5C42.6003 127.54 17.5193 112.945 3.24546 104.44C1.58258 103.449 1.295 101.171 2.64583 99.7845Z" fill="white"/>
<path d="M100.5 120.5C108.505 119.983 107.729 120.115 107.5 118C107.211 115.334 103.792 113.556 99 112.37C95.5041 111.506 89.277 110.349 85 110C77.3691 109.377 71.5793 110 67.5 110C62.2386 110 61.3181 107.097 61.5467 104.609C61.6648 103.323 62.871 102.502 64.1622 102.484C68.4052 102.422 74.4234 102.183 80 101.613C83.5314 101.252 86.8857 100.759 89.5 100.095C90.2281 99.9103 90.8988 99.7122 91.5 99.5C100 96.5 94 88 85 88C76 88 66.7082 91.3541 60 88C50.621 83.3105 38.3099 89.1769 30.0792 91.5736C29.1001 91.8587 28.0526 91.5762 27.3123 90.8748L21.1475 85.0345C19.9566 83.9063 18.0804 83.9438 16.9356 85.1187L2.64583 99.7845C1.295 101.171 1.58258 103.449 3.24546 104.44C17.5193 112.945 42.6003 127.54 50 130.5C58 133.7 62.3333 130.816 63.5 128.974M100.5 120.5C93.1593 120.974 77.4795 122.159 71.5 122L100.5 120.5ZM100.5 120.5C102.316 122.94 93.2708 130.338 87 130.5C83.7536 130.584 70.1526 129.855 63.5 128.974M60 128C60.4247 128.425 61.7063 128.737 63.5 128.974" stroke="#735BA5" stroke-width="3"/>
<path d="M264.86 93.7845L250.57 79.1187C249.425 77.9438 247.549 77.9063 246.358 79.0345L240.194 84.8748C239.453 85.5762 238.41 85.8537 237.419 85.6099C228.521 83.4188 210.784 79.0864 207.506 82C203.006 86 191.506 82 182.506 82C173.506 82 167.506 90.5 176.006 93.5C176.607 93.7122 177.278 93.9103 178.006 94.0951C180.62 94.7589 183.974 95.252 187.506 95.6128C193.082 96.1826 199.101 96.4224 203.344 96.4835C204.635 96.5021 205.841 97.3233 205.959 98.6092C206.188 101.097 205.267 104 200.006 104L199.722 104C195.573 104 187.963 103.999 180.506 104.607C176.229 104.956 172.002 105.506 168.506 106.37C163.713 107.556 160.295 109.334 160.006 112C159.776 114.115 166.001 115.175 174.006 115.692C172.19 118.132 174.235 124.338 180.506 124.5C183.752 124.584 197.353 123.855 204.006 122.974C205.173 124.816 209.506 127.7 217.506 124.5C224.906 121.54 249.987 106.945 264.26 98.4402C265.923 97.4494 266.211 95.1709 264.86 93.7845Z" fill="white"/>
<path d="M174.006 115.692C166.001 115.175 159.776 114.115 160.006 112C160.295 109.334 163.713 107.556 168.506 106.37C172.002 105.506 176.229 104.956 180.506 104.607C188.137 103.985 195.927 104 200.006 104C205.267 104 206.188 101.097 205.959 98.6092C205.841 97.3233 204.635 96.5021 203.344 96.4835C199.101 96.4224 193.082 96.1826 187.506 95.6128C183.974 95.252 180.62 94.7589 178.006 94.0951C177.278 93.9103 176.607 93.7122 176.006 93.5C167.506 90.5 173.506 82 182.506 82C191.506 82 203.006 86 207.506 82C210.784 79.0864 228.521 83.4188 237.419 85.6099C238.41 85.8537 239.453 85.5762 240.194 84.8748L246.358 79.0345C247.549 77.9063 249.425 77.9438 250.57 79.1187L264.86 93.7845C266.211 95.1709 265.923 97.4494 264.26 98.4402C249.987 106.945 224.906 121.54 217.506 124.5C209.506 127.7 205.173 124.816 204.006 122.974M174.006 115.692C181.347 116.166 190.026 116.159 196.006 116L174.006 115.692ZM174.006 115.692C172.19 118.132 174.235 124.338 180.506 124.5C183.752 124.584 197.353 123.855 204.006 122.974M207.506 122C207.081 122.425 205.8 122.737 204.006 122.974" stroke="#735BA5" stroke-width="3"/>
<path d="M111.5 67.5C111.5 72.9633 106.86 77.5 101 77.5C95.1402 77.5 90.5 72.9633 90.5 67.5C90.5 62.0367 95.1402 57.5 101 57.5C106.86 57.5 111.5 62.0367 111.5 67.5Z" stroke="#735BA5" stroke-width="3"/>
<circle cx="113" cy="42" r="4.5" stroke="#735BA5" stroke-width="3"/>
<circle cx="163" cy="67" r="4.5" stroke="#735BA5" stroke-width="3"/>
<path d="M112 67H158.5" stroke="#735BA5" stroke-width="5"/>
<path d="M117.5 44.5C121.833 45.5 130.7 49.5 131.5 57.5C132.3 65.5 140.833 67 140.5 67" stroke="#735BA5" stroke-width="5"/>
</svg>
