<svg width="128" height="108" viewBox="0 0 128 108" fill="none" xmlns="http://www.w3.org/2000/svg">
<path d="M57.9195 70.9576C56.3611 67.6153 50.2883 66.3978 47.4467 66.2068L46.0008 69.3942L57.3843 74.5581C58.212 74.7506 59.4779 74.3 57.9195 70.9576Z" fill="#83CCFD"/>
<path d="M71 46C71 41.5 58.3336 36.3333 52.0003 33C48.0017 33.0031 46.4992 40.3342 49.4988 44.5L61.4996 48C58.3332 51.6667 51.5003 59.6 49.5003 62C47.0003 65 47.5003 70 52.0003 68C56.5003 66 71 50.0311 71 46Z" fill="#0C2264"/>
<circle cx="25" cy="83" r="22" stroke="#ABB8F9" stroke-width="2"/>
<circle cx="25" cy="83" r="24" stroke="#0C2264" stroke-width="2"/>
<circle cx="24.5" cy="82.5" r="3.125" stroke="#ABB8F9" stroke-width="0.75"/>
<circle cx="103" cy="83" r="22" stroke="#ABB8F9" stroke-width="2"/>
<circle cx="103" cy="83" r="24" stroke="#0C2264" stroke-width="2"/>
<circle cx="102.5" cy="82.5" r="3.125" stroke="#ABB8F9" stroke-width="0.75"/>
<path d="M52.5 84L28.1142 82.6936C26.5433 82.6095 25.68 80.8283 26.5872 79.5431L47.9024 49.3466C48.2771 48.8157 48.8865 48.5 49.5363 48.5H85.8806C87.7018 48.5 88.5752 50.7358 87.2364 51.9703L52.5 84ZM52.5 84L48.5 42.5M100 80.5C98.0873 78.9699 91.7541 59.026 88.435 47.9578C88.1758 47.0935 88.5283 46.1661 89.3194 45.7322C93.0736 43.673 98.9358 41.4525 100 45C101.2 49 96.8333 50.3333 94.5 50.5" stroke="#8280DC" stroke-width="2"/>
<circle cx="53.5" cy="84.5" r="5" stroke="#0C2264"/>
<path d="M62.5 90.5C59.7 88.1 53.6667 89.5 51 90.5V94H63.5C64.3333 93.8333 65.3 92.9 62.5 90.5Z" fill="#83CCFD"/>
<path d="M80 42.0008C77.2 39.6008 75.5 33.0008 75 30.0008C76.6667 28.3342 75 24.0001 80 25.4998C84.4154 26.8242 83 33.5008 83 36.5008C83 39.5008 97.5 45.5 100 47C102.5 48.5 99 52.5008 96 53.0008C93.6 53.4008 92.5 49.8341 93.5 48.5008C89.3333 47.0008 82.8 44.4008 80 42.0008Z" fill="#FFDBBA"/>
<path d="M33.4987 38C31.0987 34 34.9996 24 36.9996 22L50.4994 33.5C52.8328 41.6667 57.7994 58.5 58.9994 60.5C60.4994 63 56.4994 83.5 55.9994 88C55.4994 92.5 51.9994 91.5 50.4994 90.5C48.9994 89.5 50.9994 66.5 50.4994 64C49.9994 61.5 36.4987 43 33.4987 38Z" fill="#0C2264"/>
<rect x="75" y="16.6094" width="11" height="6" transform="rotate(-43.7744 75 16.6094)" fill="#FFECDB"/>
<ellipse cx="90.5" cy="10" rx="9.5" ry="9" fill="#FFECDB"/>
<path fill-rule="evenodd" clip-rule="evenodd" d="M38.1429 20.0047C33.6707 22.6194 34.5545 28.8981 39.3107 30.9512L47.5313 34.4999C49.7 35.4361 52.2163 35.2006 54.187 33.8982C66.7241 25.6125 68.4746 24.5192 72.0291 23.7764C72.2449 25.3251 72.4848 26.7748 72.6877 28.0012C72.8138 28.7633 72.9257 29.4391 73.0086 29.9989H83.5087C84.1754 25.4989 83.294 17.4249 81.0087 13.9989C79.0077 10.9989 73.5077 9.49891 73.0076 9.49891C72.995 9.51465 72.9825 9.53051 72.9701 9.54649C72.4177 9.47857 71.8507 9.47958 71.2799 9.55622C58.4427 11.2799 47.4935 14.5377 38.1429 20.0047Z" fill="#735BA5"/>
<path d="M86 9.5V19" stroke="#0C2264"/>
<path d="M98.8554 16.4553C104.514 -0.435499 87.6646 -3.43889 81.5991 3.43362C81.5332 3.50831 81.48 3.59319 81.4433 3.68581C80.9059 5.04272 80.4578 7.81807 82.6198 9.10664C84.6536 10.3187 88.381 10.0932 90.4449 9.76383C90.7985 9.70741 91.1595 9.82889 91.395 10.0987L97.2113 16.7642C97.7035 17.3283 98.6176 17.1652 98.8554 16.4553Z" fill="#1ACCCB"/>
</svg>
