<svg width="45" height="38" viewBox="0 0 45 38" fill="none" xmlns="http://www.w3.org/2000/svg">
<path d="M20.1954 24.0345C19.6883 22.9024 17.7123 22.49 16.7877 22.4254L16.3172 23.505L20.0212 25.254C20.2906 25.3192 20.7025 25.1666 20.1954 24.0345Z" fill="#83CCFD"/>
<path d="M24.4516 15.581C24.4516 14.0568 20.3302 12.3068 18.2694 11.1777C16.9683 11.1788 16.4794 13.6619 17.4555 15.0729L21.3603 16.2584C20.33 17.5003 18.1067 20.1874 17.4559 21.0003C16.6425 22.0164 16.8052 23.71 18.2694 23.0326C19.7336 22.3552 24.4516 16.9463 24.4516 15.581Z" fill="#0C2264"/>
<path d="M15.9678 28.1126C15.9678 31.901 13.0274 34.9029 9.48389 34.9029C5.94038 34.9029 3 31.901 3 28.1126C3 24.3242 5.94038 21.3223 9.48389 21.3223C13.0274 21.3223 15.9678 24.3242 15.9678 28.1126Z" stroke="#ABB8F9" stroke-width="2"/>
<path d="M9.48389 36.9029C14.2069 36.9029 17.9678 32.9291 17.9678 28.1126C17.9678 23.296 14.2069 19.3223 9.48389 19.3223C4.76093 19.3223 1 23.296 1 28.1126C1 32.9291 4.76093 36.9029 9.48389 36.9029Z" stroke="#0C2264" stroke-width="2"/>
<path d="M10.0853 27.9433C10.0853 28.4052 9.72929 28.7538 9.32147 28.7538C8.91365 28.7538 8.55762 28.4052 8.55762 27.9433C8.55762 27.4814 8.91365 27.1328 9.32147 27.1328C9.72929 27.1328 10.0853 27.4814 10.0853 27.9433Z" stroke="#ABB8F9" stroke-width="0.75"/>
<path d="M41.3486 28.1126C41.3486 31.901 38.4083 34.9029 34.8648 34.9029C31.3212 34.9029 28.3809 31.901 28.3809 28.1126C28.3809 24.3242 31.3212 21.3223 34.8648 21.3223C38.4083 21.3223 41.3486 24.3242 41.3486 28.1126Z" stroke="#ABB8F9" stroke-width="2"/>
<path d="M34.8648 36.9029C39.5877 36.9029 43.3486 32.9291 43.3486 28.1126C43.3486 23.296 39.5877 19.3223 34.8648 19.3223C30.1418 19.3223 26.3809 23.296 26.3809 28.1126C26.3809 32.9291 30.1418 36.9029 34.8648 36.9029Z" stroke="#0C2264" stroke-width="2"/>
<path d="M35.4652 27.9433C35.4652 28.4052 35.1092 28.7538 34.7014 28.7538C34.2935 28.7538 33.9375 28.4052 33.9375 27.9433C33.9375 27.4814 34.2935 27.1328 34.7014 27.1328C35.1092 27.1328 35.4652 27.4814 35.4652 27.9433Z" stroke="#ABB8F9" stroke-width="0.75"/>
<path d="M18.4321 28.452L12.8472 28.1405C11.2952 28.054 10.4309 26.3076 11.3033 25.0211L16.5355 17.3053C16.9077 16.7564 17.5277 16.4278 18.1908 16.4278H25.9876C27.7892 16.4278 28.6723 18.6231 27.3725 19.8707L18.4321 28.452ZM18.4321 28.452L17.1306 14.3955M33.888 27.2665C33.3143 26.7887 31.5182 21.0109 30.395 17.1739C30.1475 16.3285 30.4818 15.403 31.2873 15.0466C32.3926 14.5576 33.6173 14.303 33.888 15.2423C34.2784 16.5971 32.8576 17.0487 32.0983 17.1052" stroke="#8280DC" stroke-width="2"/>
<path d="M20.047 28.6207C20.047 29.3925 19.4509 29.9836 18.7574 29.9836C18.0639 29.9836 17.4678 29.3925 17.4678 28.6207C17.4678 27.8489 18.0639 27.2578 18.7574 27.2578C19.4509 27.2578 20.047 27.8489 20.047 28.6207Z" stroke="#0C2264"/>
<path d="M21.6863 30.6529C20.7752 29.84 18.812 30.3142 17.9443 30.6529V31.8384H22.0117C22.2828 31.782 22.5974 31.4659 21.6863 30.6529Z" fill="#83CCFD"/>
<path d="M27.3808 14.2264C26.4698 13.4135 25.9166 11.178 25.7539 10.1619C26.2962 9.59737 25.7539 8.12937 27.3808 8.63735C28.8176 9.08595 28.357 11.3474 28.357 12.3635C28.357 13.3796 33.0751 15.4116 33.8886 15.9197C34.702 16.4277 33.5632 17.7829 32.587 17.9522C31.8061 18.0877 31.4482 16.8796 31.7736 16.428C30.4178 15.9199 28.2919 15.0393 27.3808 14.2264Z" fill="#FFDBBA"/>
<path d="M12.2501 12.8705C11.4691 11.5157 12.7384 8.12859 13.3892 7.45117L17.7819 11.3463C18.5411 14.1125 20.1572 19.8141 20.5477 20.4915C21.0357 21.3383 19.7342 28.2818 19.5715 29.806C19.4088 31.3302 18.27 30.9915 17.7819 30.6528C17.2938 30.3141 17.9446 22.5238 17.7819 21.677C17.6192 20.8302 13.2262 14.5641 12.2501 12.8705Z" fill="#0C2264"/>
<rect width="3.65013" height="1.9944" transform="matrix(0.708049 -0.706163 0.677224 0.735777 25.7529 5.62598)" fill="#FFECDB"/>
<ellipse cx="30.7963" cy="3.38725" rx="3.09117" ry="3.04839" fill="#FFECDB"/>
<path fill-rule="evenodd" clip-rule="evenodd" d="M24.7873 8.05273C24.9015 8.90332 25.0353 9.66602 25.1056 10.1602H28.5226C28.7394 8.63574 28.4523 5.90137 27.7091 4.74121C27.3595 4.19531 26.6828 3.79688 26.1046 3.54395C25.6056 3.32617 25.1808 3.2168 25.1056 3.2168C25.0978 3.22754 25.09 3.2373 25.0822 3.24805C24.8781 3.21875 24.6662 3.21777 24.4533 3.24805C21.1779 3.71289 18.2804 4.49902 15.7169 5.71875C13.2365 6.89941 13.6222 10.25 16.091 11.3594C17.2453 11.8789 18.5949 11.7441 19.6593 11.0137C23.13 8.62988 23.6964 8.29004 24.7873 8.05273Z" fill="#735BA5"/>
<path d="M29.333 3.21777V6.43552" stroke="#0C2264"/>
<path d="M33.7955 4.4592C34.6101 -0.217393 29.85 -0.987312 27.9654 1.08958C27.8997 1.16203 27.8484 1.2469 27.8181 1.33992C27.6605 1.82348 27.5736 2.67532 28.2331 3.08451C28.7767 3.42176 29.6922 3.43041 30.3741 3.36092C30.7401 3.32361 31.112 3.44866 31.3484 3.73065L32.2375 4.79129C32.7279 5.37632 33.6645 5.21126 33.7955 4.4592Z" fill="#1ACCCB"/>
</svg>
