<svg width="553" height="599" viewBox="0 0 553 599" fill="none" xmlns="http://www.w3.org/2000/svg">
<path d="M342.365 245.244C317.788 229.099 306.091 305.091 312.126 329.83C318.162 354.569 324.425 356.903 342.365 364.978C360.304 373.053 393.034 393.34 414.113 370.98C435.192 348.621 401.575 342.787 403.446 329.83C406.541 308.399 440.801 302.71 437.946 288.477C433.752 267.566 411.988 247.311 384.946 241.478C362.946 236.732 366.941 261.388 342.365 245.244Z" fill="#83CCFD"/>
<path d="M202.273 222.198C180.169 237.575 243.151 282.221 259.446 291.978C275.74 301.734 295.241 296.367 295.241 296.367C307.718 288.004 358.28 262.985 355.447 234.98C352.615 206.974 325.946 169.598 310.947 192.48C314.35 187.29 308.015 178.164 304.376 149.187C300.737 120.211 246.347 127.09 237.581 139.096C216.919 171.773 220.062 209.823 202.273 222.198Z" fill="#83CCFD"/>
<path d="M332.326 357.104C314.061 365.01 309.582 495.4 312 512L302 512L293.5 512L300.673 399.5L273.876 337.231L288.436 296.731L279.083 273.045C264.019 231.674 254.554 198.839 292.9 286.275C297.495 268.641 302.996 248.139 302.996 248.139C302.996 248.139 306.84 253.425 304.633 262.795L298.069 299.365L283.766 333.263C290.158 354.286 303.706 391.981 306.765 374.58C309.823 357.179 321.47 346.537 326.911 343.391C332.692 333.852 344.683 313.444 346.405 308.133C348.127 302.821 345.153 300.933 343.451 300.653L343.451 288.023C343.451 288.023 345.841 289.297 353.342 296.685C360.842 304.073 348.302 324.22 341.094 333.369C343.292 332.487 349.355 328.177 356.027 317.992C362.698 307.806 392.56 289.616 392.56 289.616L391.894 294.751C391.894 294.751 367.313 316.752 364.172 324.111C358.219 338.051 355.157 347.222 332.326 357.104Z" fill="#1C215D" fill-opacity="0.5"/>
<path d="M153.394 193.244C177.97 177.099 189.668 253.091 183.633 277.83C177.597 302.569 171.334 304.903 153.394 312.978C135.454 321.053 102.725 341.34 81.6459 318.98C60.5667 296.621 94.1836 290.787 92.3125 277.83C89.2178 256.399 54.958 250.71 57.8126 236.477C62.0066 215.566 83.7709 195.311 110.813 189.478C132.812 184.732 128.818 209.388 153.394 193.244Z" fill="#83CCFD"/>
<path d="M293.486 170.198C315.59 185.575 252.607 230.221 236.313 239.978C220.019 249.734 200.518 244.367 200.518 244.367C188.041 236.004 137.479 210.985 140.311 182.98C143.144 154.974 169.812 117.598 184.811 140.48C181.409 135.29 187.744 126.164 191.383 97.1874C195.022 68.2113 249.412 75.0898 258.178 87.0964C278.84 119.773 275.697 157.823 293.486 170.198Z" fill="#83CCFD"/>
<path d="M163.433 305.104C181.698 313.01 185.61 479.9 183.192 496.5L203.815 496.5L195.086 347.5L221.883 285.231L207.323 244.731L216.676 221.045C231.74 179.674 241.205 146.839 202.859 234.275C198.264 216.641 192.763 196.139 192.763 196.139C192.763 196.139 188.919 201.425 191.126 210.795L197.69 247.365L211.993 281.263C205.601 302.286 192.052 339.981 188.994 322.58C185.936 305.179 174.289 294.537 168.848 291.391C163.067 281.852 151.075 261.444 149.354 256.133C147.632 250.821 150.606 248.933 152.307 248.653L152.307 236.023C152.307 236.023 149.917 237.297 142.417 244.685C134.917 252.073 147.457 272.22 154.665 281.369C152.467 280.487 146.403 276.177 139.732 265.992C133.061 255.806 103.199 237.616 103.199 237.616L103.865 242.751C103.865 242.751 128.445 264.752 131.587 272.111C137.539 286.051 140.601 295.222 163.433 305.104Z" fill="#1C215D" fill-opacity="0.5"/>
<path d="M269.85 470.652H240.346V541H269.85V470.652Z" fill="#2E3642"/>
<path d="M249.508 223.753L249.513 223.736C250.006 222.136 250.495 220.548 251 219C251.505 220.548 251.994 222.136 252.487 223.736L252.492 223.753C254.145 229.113 255.839 234.605 258.255 239.18C263.16 248.465 269.733 256.865 275.975 264.081C282.721 271.879 290.428 277.27 298.532 280.977C299.484 281.414 306.305 285.405 306.305 285.405C306.305 285.405 303.748 288.745 301.862 290.311C298.812 292.214 289.786 295.121 278.097 291.528C279.933 293.862 281.812 295.618 284.02 297.062C288.085 299.721 293.365 300.677 297.791 300.677C299.045 300.677 296.792 301.183 294.743 301.643C293.89 301.834 293.074 302.017 292.559 302.153C289.867 302.863 286.856 303.333 284.119 303.333C284.044 303.333 283.945 303.324 283.832 303.312L283.829 303.312C283.287 303.258 282.484 303.177 283.083 304.072C287.419 310.554 294.086 315.971 299.519 319.861C305.155 323.897 311.263 324.75 317.362 325.579C321.207 326.102 333.727 325.252 333.727 325.252C333.727 325.252 332.331 329.751 328.96 332.883C321.577 339.744 313.245 344.636 304.553 345.98C301.854 346.397 295.62 345.685 295.62 345.685C297.997 347.687 303.651 349.716 306.182 350.481C306.623 350.596 307.128 350.635 307.566 350.67L307.57 350.67C308.677 350.756 309.349 350.808 307.465 351.957C304.513 353.757 301.242 354.762 298.086 355.731L296.458 356.236C294.611 356.819 293.578 357.096 291.868 356.457C289.828 356.816 282.883 356.801 277.606 354.901C279.705 357.506 281.821 360.018 283.906 362.43C292.794 372.701 302.95 379.802 313.625 384.686C314.882 385.26 323.869 390.517 323.869 390.517C323.869 390.517 320.5 394.917 318.015 396.98C313.995 399.486 302.105 403.315 286.702 398.584C289.121 401.657 291.598 403.971 294.507 405.872C299.863 409.375 306.819 410.634 312.651 410.634C314.302 410.634 311.329 411.302 308.628 411.907L308.615 411.91L308.601 411.913C307.49 412.163 306.426 412.401 305.756 412.579C302.209 413.514 298.245 414.134 294.636 414.134C294.537 414.134 294.403 414.121 294.255 414.106C293.541 414.034 292.483 413.928 293.271 415.105C298.984 423.644 307.768 430.78 314.926 435.904C322.352 441.219 330.4 442.344 338.436 443.436C343.502 444.124 360 443.004 360 443.004C360 443.004 358.159 448.931 353.717 453.057C343.991 462.093 333.012 468.538 321.559 470.308C318.004 470.858 309.79 469.919 309.79 469.919C312.923 472.557 320.372 475.23 323.706 476.236C324.29 476.388 324.957 476.44 325.535 476.485L325.536 476.485C326.992 476.599 327.876 476.668 325.396 478.18C321.504 480.553 317.191 481.878 313.028 483.156C312.311 483.375 311.6 483.595 310.894 483.817C308.462 484.585 307.101 484.951 304.846 484.109C301.945 484.619 279.601 484.554 267.503 481.413L239.485 478.888C227.572 480.652 196.748 485.015 191.106 483.817C184.08 482.325 181.167 480.962 176.604 478.18C174.124 476.668 175.008 476.599 176.464 476.485L176.465 476.485C177.043 476.44 177.71 476.388 178.294 476.236C181.628 475.23 189.077 472.557 192.21 469.919C192.21 469.919 183.996 470.858 180.441 470.308C168.988 468.538 158.009 462.093 148.283 453.057C143.841 448.931 142 443.004 142 443.004C142 443.004 158.498 444.124 163.564 443.436C171.6 442.344 179.648 441.219 187.074 435.904C194.232 430.78 203.016 423.644 208.729 415.105C209.517 413.928 208.459 414.034 207.745 414.106C207.597 414.121 207.463 414.134 207.364 414.134C203.755 414.134 199.791 413.514 196.244 412.579C195.578 412.402 194.52 412.165 193.414 411.917L193.399 411.914L193.385 411.91L193.372 411.907C190.671 411.302 187.698 410.634 189.349 410.634C195.181 410.634 202.137 409.375 207.493 405.872C210.402 403.971 212.879 401.657 215.298 398.584C199.895 403.315 188.004 399.486 183.985 396.98C181.5 394.917 178.131 390.517 178.131 390.517C178.131 390.517 187.118 385.26 188.375 384.686C199.05 379.802 209.206 372.701 218.094 362.43C220.179 360.018 222.295 357.506 224.394 354.901C219.117 356.801 212.172 356.816 210.132 356.457C208.422 357.096 207.389 356.819 205.542 356.236L203.914 355.731C200.758 354.762 197.487 353.757 194.535 351.957C192.651 350.808 193.323 350.756 194.43 350.67L194.434 350.67C194.872 350.635 195.377 350.596 195.818 350.481C198.349 349.716 204.003 347.687 206.38 345.685C206.38 345.685 200.146 346.397 197.447 345.98C188.755 344.636 180.423 339.744 173.04 332.883C169.669 329.751 168.273 325.252 168.273 325.252C168.273 325.252 180.793 326.102 184.638 325.579C190.737 324.75 196.845 323.897 202.481 319.861C207.914 315.971 214.581 310.554 218.917 304.072C219.516 303.177 218.713 303.258 218.171 303.312L218.168 303.312C218.055 303.324 217.956 303.333 217.881 303.333C215.144 303.333 212.133 302.863 209.441 302.153C208.926 302.017 208.11 301.834 207.257 301.643C205.208 301.183 202.955 300.677 204.209 300.677C208.635 300.677 213.915 299.721 217.98 297.062C220.188 295.618 222.067 293.862 223.903 291.528C212.214 295.121 203.188 292.214 200.138 290.311C198.252 288.745 195.695 285.405 195.695 285.405C195.695 285.405 202.516 281.414 203.468 280.977C211.572 277.27 219.279 271.879 226.025 264.081C232.267 256.865 238.84 248.465 243.745 239.18C246.161 234.605 247.855 229.113 249.508 223.753Z" fill="#2E3642"/>
<path d="M95.1797 432.946H62.1244L60.4235 599H95.1797V432.946Z" fill="#19252D"/>
<path d="M65.8835 265.437C71.1257 258.701 74.3355 250.208 77.998 242.569V393.24H41.6307C34.4291 398.658 14.4245 398.897 9.76084 398.34C6.90437 399.064 5.18002 398.75 2.09651 398.089C-3.98377 396.786 -10.4981 395.633 -16.2814 393.24C-20.6714 391.423 -16.7442 392.027 -14.1387 391.567C-9.91428 390.701 -0.472923 388.402 3.49752 386.132C3.49752 386.132 -6.91256 386.94 -11.4191 386.467C-25.9305 384.944 -39.8454 379.4 -52.1718 371.626C-57.801 368.075 -60.1328 362.977 -60.1328 362.977C-60.1328 362.977 -39.2256 363.94 -32.805 363.348C-22.6223 362.409 -12.4239 361.441 -3.01304 356.868C6.05854 352.459 17.1898 346.321 24.4302 338.975C25.637 337.751 23.4263 338.139 22.6995 338.139C18.1276 338.139 13.1031 337.606 8.60707 336.801C5.68889 336.278 -3.09188 335.129 -0.128616 335.129C7.26022 335.129 16.0763 334.045 22.8644 331.032C26.5504 329.396 29.689 327.405 32.7538 324.761C13.2354 328.832 -1.83314 325.537 -6.92761 323.381C-10.0758 321.606 -14.3447 317.821 -14.3447 317.821C-14.3447 317.821 -2.95626 313.298 -1.36479 312.804C12.1645 308.602 25.0345 302.494 36.2975 293.657C46.7207 285.479 57.6958 275.96 65.8835 265.437Z" fill="#19252D"/>
<path d="M71.2311 202.042C74.5143 197.905 76.5245 192.69 78.8184 188V280.519H56.0418C51.5315 283.846 39.0028 283.993 36.082 283.651C34.293 284.096 33.2131 283.902 31.2819 283.497C27.4739 282.697 23.394 281.988 19.772 280.519C17.0226 279.403 19.4821 279.774 21.114 279.492C23.7597 278.96 29.6727 277.548 32.1594 276.155C32.1594 276.155 25.6396 276.65 22.8172 276.36C13.7289 275.425 5.0141 272.02 -2.70587 267.247C-6.23138 265.067 -7.69171 261.936 -7.69171 261.936C-7.69171 261.936 5.40226 262.528 9.42341 262.164C15.8007 261.587 22.1879 260.993 28.0818 258.185C33.7633 255.478 40.7347 251.708 45.2693 247.198C46.0251 246.446 44.6405 246.684 44.1854 246.684C41.3221 246.684 38.1752 246.357 35.3594 245.863C33.5318 245.542 28.0325 244.836 29.8883 244.836C34.5159 244.836 40.0373 244.17 44.2886 242.32C46.5972 241.315 48.5628 240.093 50.4823 238.469C38.2581 240.969 28.8208 238.946 25.6302 237.622C23.6585 236.533 20.9849 234.208 20.9849 234.208C20.9849 234.208 28.1174 231.431 29.1141 231.127C37.5874 228.547 45.6478 224.796 52.7017 219.37C59.2297 214.348 66.1032 208.503 71.2311 202.042Z" fill="#19252D"/>
<path d="M62.0362 367.934C68.9432 359.06 73.1724 347.873 77.998 337.812V536.277H66.6232C66.6232 536.277 -10.2772 544.355 -22.0079 542.665C-33.7386 540.974 -38.6023 539.429 -46.2221 536.277C-52.0063 533.884 -46.8319 534.68 -43.3989 534.074C-37.833 532.933 -25.3933 529.904 -20.1619 526.915C-20.1619 526.915 -33.878 527.979 -39.8157 527.356C-58.9356 525.349 -77.2694 518.047 -93.5105 507.807C-100.927 503.13 -104 496.414 -104 496.414C-104 496.414 -76.4528 497.683 -67.9932 496.903C-54.5768 495.666 -41.1396 494.392 -28.7401 488.368C-16.7876 482.561 -2.12136 474.475 7.4184 464.798C9.00841 463.186 6.09566 463.697 5.13814 463.697C-0.885704 463.697 -7.50592 462.995 -13.4297 461.935C-17.2747 461.247 -28.844 459.732 -24.9397 459.732C-15.2043 459.732 -3.58852 458.304 5.3553 454.335C10.2119 452.18 14.3473 449.559 18.3854 446.075C-7.33157 451.438 -27.1855 447.098 -33.8978 444.258C-38.0458 441.92 -43.6704 436.934 -43.6704 436.934C-43.6704 436.934 -28.6653 430.977 -26.5684 430.326C-8.74258 424.791 8.21467 416.745 23.0545 405.105C36.7879 394.332 51.2483 381.794 62.0362 367.934Z" fill="#19252D"/>
<path d="M86.4095 202.042C83.1264 197.905 81.1161 192.69 78.8223 188V280.519H101.599C106.109 283.846 118.638 283.993 121.559 283.651C123.348 284.096 124.428 283.902 126.359 283.497C130.167 282.697 134.247 281.988 137.869 280.519C140.618 279.403 138.158 279.774 136.527 279.492C133.881 278.96 127.968 277.548 125.481 276.155C125.481 276.155 132.001 276.65 134.823 276.36C143.912 275.425 152.627 272.02 160.346 267.247C163.872 265.067 165.332 261.936 165.332 261.936C165.332 261.936 152.238 262.528 148.217 262.164C141.84 261.587 135.453 260.993 129.559 258.185C123.877 255.478 116.906 251.708 112.371 247.198C111.616 246.446 113 246.684 113.455 246.684C116.319 246.684 119.465 246.357 122.281 245.863C124.109 245.542 129.608 244.836 127.752 244.836C123.125 244.836 117.603 244.17 113.352 242.32C111.043 241.315 109.078 240.093 107.158 238.469C119.383 240.969 128.82 238.946 132.01 237.622C133.982 236.533 136.656 234.208 136.656 234.208C136.656 234.208 129.523 231.431 128.526 231.127C120.053 228.547 111.993 224.796 104.939 219.37C98.411 214.348 91.5374 208.503 86.4095 202.042Z" fill="#19252D"/>
<path d="M90.1165 265.437C84.8743 258.701 81.6645 250.208 78.002 242.569V393.24H114.369C121.571 398.658 141.576 398.897 146.239 398.34C149.096 399.064 150.82 398.75 153.903 398.089C159.984 396.786 166.498 395.633 172.281 393.24C176.671 391.423 172.744 392.027 170.139 391.567C165.914 390.701 156.473 388.402 152.502 386.132C152.502 386.132 162.913 386.94 167.419 386.467C181.93 384.944 195.845 379.4 208.172 371.626C213.801 368.075 216.133 362.977 216.133 362.977C216.133 362.977 195.226 363.94 188.805 363.348C178.622 362.409 168.424 361.441 159.013 356.868C149.941 352.459 138.81 346.321 131.57 338.975C130.363 337.751 132.574 338.139 133.3 338.139C137.872 338.139 142.897 337.606 147.393 336.801C150.311 336.278 159.092 335.129 156.129 335.129C148.74 335.129 139.924 334.045 133.136 331.032C129.45 329.396 126.311 327.405 123.246 324.761C142.765 328.832 157.833 325.537 162.928 323.381C166.076 321.606 170.345 317.821 170.345 317.821C170.345 317.821 158.956 313.298 157.365 312.804C143.836 308.602 130.965 302.494 119.702 293.657C109.279 285.479 98.3042 275.96 90.1165 265.437Z" fill="#19252D"/>
<path d="M93.9638 367.934C87.0568 359.06 82.8276 347.873 78.002 337.812V536.277H93.9638C103.453 543.414 161.765 543.729 167.91 542.995C171.673 543.949 173.945 543.535 178.008 542.665C186.019 540.948 194.602 539.429 202.222 536.277C208.006 533.884 202.832 534.68 199.399 534.074C193.833 532.933 181.393 529.904 176.162 526.915C176.162 526.915 189.878 527.979 195.816 527.356C214.936 525.35 233.269 518.047 249.51 507.807C256.927 503.13 260 496.414 260 496.414C260 496.414 232.453 497.683 223.993 496.903C210.577 495.666 197.14 494.392 184.74 488.368C172.788 482.561 158.121 474.475 148.582 464.798C146.992 463.186 149.904 463.697 150.862 463.697C156.886 463.697 163.506 462.995 169.43 461.935C173.275 461.247 184.844 459.732 180.94 459.732C171.204 459.732 159.589 458.304 150.645 454.335C145.788 452.18 141.653 449.559 137.615 446.075C163.332 451.438 183.186 447.098 189.898 444.258C194.046 441.92 199.67 436.934 199.67 436.934C199.67 436.934 184.665 430.977 182.568 430.326C164.743 424.791 147.785 416.745 132.945 405.105C119.212 394.332 104.752 381.794 93.9638 367.934Z" fill="#19252D"/>
</svg>
