<svg width="268" height="268" viewBox="0 0 268 268" fill="none" xmlns="http://www.w3.org/2000/svg">
<rect x="39" y="81" width="9" height="129" fill="#C4C4C4"/>
<path fill-rule="evenodd" clip-rule="evenodd" d="M73.7998 102.032L86.9717 96.5244L73.7998 91.3701V91.3145H73.6562L73.4717 91.2422L73.4727 91.3145H43.5547V102.085L73.667 102.088L73.7998 102.085V102.032Z" fill="#26589F"/>
<path fill-rule="evenodd" clip-rule="evenodd" d="M16.0681 104.46L0.894239 109.715L15.9489 114.911L15.947 115.076L16.4421 115.081L16.6257 115.145L16.6247 115.083L48.1472 115.399L48.2702 104.629L16.5378 104.313L16.5378 104.298L16.4978 104.312L16.07 104.308L16.0681 104.46Z" fill="#4887E3"/>
<path d="M193.15 209.449H168.654V268H193.15V209.449Z" fill="#2E3642"/>
<path d="M176.261 3.95627L176.265 3.94168C176.675 2.61025 177.081 1.28871 177.5 0C177.919 1.28871 178.325 2.61025 178.735 3.94168L178.739 3.95627C180.111 8.41699 181.518 12.9882 183.524 16.7954C187.596 24.5235 193.053 31.5147 198.236 37.521C203.837 44.0115 210.236 48.4977 216.964 51.5837C217.755 51.947 223.418 55.2685 223.418 55.2685C223.418 55.2685 221.296 58.0486 219.73 59.3519C217.197 60.9356 209.703 63.3551 199.998 60.365C201.522 62.3077 203.083 63.7694 204.916 64.9711C208.291 67.1837 212.675 67.98 216.349 67.98C217.39 67.98 215.52 68.401 213.819 68.7835C213.11 68.9425 212.433 69.0952 212.005 69.2082C209.77 69.7992 207.27 70.1905 204.998 70.1905C204.936 70.1905 204.853 70.1824 204.76 70.1731L204.757 70.1728C204.307 70.1275 203.641 70.0603 204.138 70.8049C207.738 76.2 213.273 80.7086 217.784 83.9463C222.463 87.3054 227.535 88.0157 232.598 88.7056C235.791 89.1407 246.186 88.4331 246.186 88.4331C246.186 88.4331 245.027 92.1778 242.228 94.7849C236.099 100.495 229.18 104.567 221.964 105.685C219.723 106.033 214.547 105.44 214.547 105.44C216.52 107.106 221.215 108.795 223.316 109.431C223.683 109.527 224.102 109.56 224.465 109.588L224.469 109.589C225.387 109.66 225.946 109.704 224.381 110.66C221.93 112.158 219.215 112.994 216.594 113.801L215.243 114.221C213.709 114.706 212.852 114.937 211.432 114.405C209.738 114.704 203.972 114.691 199.591 113.11C201.333 115.279 203.09 117.369 204.821 119.376C212.2 127.925 220.633 133.835 229.496 137.9C230.54 138.378 238.001 142.753 238.001 142.753C238.001 142.753 235.204 146.416 233.141 148.132C229.804 150.218 219.932 153.405 207.142 149.467C209.151 152.025 211.208 153.951 213.623 155.533C218.069 158.449 223.845 159.497 228.687 159.497C230.058 159.497 227.589 160.052 225.347 160.556L225.336 160.559L225.324 160.562C224.401 160.769 223.519 160.968 222.963 161.115C220.018 161.894 216.726 162.409 213.73 162.409C213.648 162.409 213.536 162.399 213.414 162.386C212.821 162.326 211.943 162.238 212.597 163.218C217.34 170.325 224.633 176.264 230.576 180.529C236.742 184.953 243.424 185.889 250.096 186.797C254.302 187.37 268 186.438 268 186.438C268 186.438 266.472 191.371 262.784 194.805C254.708 202.326 245.592 207.69 236.083 209.163C233.131 209.621 226.312 208.839 226.312 208.839C228.913 211.035 235.098 213.259 237.866 214.097C238.351 214.224 238.904 214.267 239.385 214.304H239.385L239.386 214.304C240.595 214.399 241.329 214.457 239.269 215.715C236.038 217.69 232.457 218.793 229.001 219.856L229.001 219.856C228.405 220.039 227.815 220.222 227.229 220.407C225.209 221.046 224.079 221.35 222.207 220.649C219.798 221.075 201.247 221.02 191.202 218.405L167.94 216.304C158.048 217.772 132.456 221.404 127.771 220.407C121.938 219.165 119.519 218.031 115.731 215.715C113.671 214.457 114.405 214.399 115.614 214.304L115.615 214.304H115.615C116.096 214.267 116.649 214.224 117.134 214.097C119.902 213.259 126.087 211.035 128.688 208.839C128.688 208.839 121.869 209.621 118.917 209.163C109.408 207.69 100.292 202.326 92.2164 194.805C88.5282 191.371 87 186.438 87 186.438C87 186.438 100.698 187.37 104.904 186.797C111.576 185.889 118.258 184.953 124.424 180.529C130.367 176.264 137.66 170.325 142.403 163.218C143.057 162.238 142.179 162.326 141.586 162.386C141.464 162.399 141.352 162.409 141.27 162.409C138.274 162.409 134.982 161.894 132.037 161.115C131.485 160.968 130.606 160.771 129.688 160.564L129.675 160.562L129.664 160.559L129.653 160.556C127.411 160.052 124.942 159.497 126.313 159.497C131.155 159.497 136.931 158.449 141.377 155.533C143.792 153.951 145.849 152.025 147.858 149.467C135.068 153.405 125.196 150.218 121.859 148.132C119.796 146.416 116.999 142.753 116.999 142.753C116.999 142.753 124.46 138.378 125.504 137.9C134.367 133.835 142.8 127.925 150.179 119.376C151.91 117.369 153.667 115.279 155.409 113.11C151.028 114.691 145.262 114.704 143.568 114.405C142.148 114.937 141.291 114.706 139.757 114.221L138.406 113.801C135.785 112.994 133.07 112.158 130.619 110.66C129.054 109.704 129.613 109.66 130.531 109.589L130.535 109.588C130.898 109.56 131.317 109.527 131.684 109.431C133.785 108.795 138.48 107.106 140.453 105.44C140.453 105.44 135.277 106.033 133.036 105.685C125.82 104.567 118.901 100.495 112.772 94.7849C109.973 92.1778 108.814 88.4331 108.814 88.4331C108.814 88.4331 119.209 89.1407 122.402 88.7056C127.465 88.0157 132.537 87.3054 137.216 83.9463C141.727 80.7086 147.262 76.2 150.862 70.8049C151.359 70.0603 150.693 70.1275 150.243 70.1728L150.24 70.1731C150.147 70.1824 150.064 70.1905 150.002 70.1905C147.73 70.1905 145.23 69.7992 142.995 69.2082C142.567 69.0952 141.89 68.9425 141.181 68.7835C139.48 68.401 137.61 67.98 138.651 67.98C142.325 67.98 146.709 67.1837 150.084 64.9711C151.917 63.7694 153.478 62.3077 155.002 60.365C145.297 63.3551 137.803 60.9356 135.27 59.3519C133.704 58.0486 131.582 55.2685 131.582 55.2685C131.582 55.2685 137.245 51.947 138.036 51.5837C144.764 48.4977 151.163 44.0115 156.764 37.521C161.947 31.5147 167.404 24.5235 171.476 16.7954C173.482 12.9882 174.889 8.41699 176.261 3.95627Z" fill="#2E3642"/>
</svg>
