<svg width="65" height="91" viewBox="0 0 65 91" fill="none" xmlns="http://www.w3.org/2000/svg">
<rect x="9.45605" width="2.50832" height="80" fill="#C4C4C4"/>
<path fill-rule="evenodd" clip-rule="evenodd" d="M20.249 10.0049L23.999 8.1543L20.249 6.42285V6.40332H20.207L20.1543 6.37891V6.40332H11.6367V10.0234L20.21 10.0244L20.249 10.0234V10.0049Z" fill="#26589F"/>
<path fill-rule="evenodd" clip-rule="evenodd" d="M3.75 16.626L0 14.7754L3.75 13.0439V13.0244H3.79199L3.84473 13V13.0244H12.3623V16.6445L3.78906 16.6455L3.75 16.6445V16.626Z" fill="#83CCFD"/>
<path d="M37.8589 14.4148L37.8601 14.4105C37.9782 14.0258 38.0956 13.6439 38.2165 13.2715C38.3374 13.6439 38.4547 14.0258 38.5728 14.4105L38.574 14.4148C38.9702 15.7038 39.3763 17.0248 39.9553 18.125C41.1308 20.3582 42.7061 22.3786 44.2022 24.1143C45.8189 25.9899 47.6662 27.2863 49.6082 28.1781C49.8364 28.283 51.4712 29.2429 51.4712 29.2429C51.4712 29.2429 50.8585 30.0463 50.4065 30.4229C49.6753 30.8806 47.5123 31.5798 44.7109 30.7157C45.1508 31.2771 45.6011 31.6995 46.1302 32.0467C47.1045 32.6861 48.37 32.9162 49.4307 32.9162C49.7312 32.9162 49.1912 33.0379 48.7003 33.1484C48.4958 33.1944 48.3001 33.2385 48.1768 33.2712C47.5316 33.4419 46.81 33.555 46.154 33.555C46.1361 33.555 46.1122 33.5527 46.0853 33.55L46.0845 33.5499C45.9547 33.5368 45.7622 33.5174 45.9057 33.7326C46.945 35.2916 48.5428 36.5945 49.8449 37.5302C51.1956 38.5009 52.6596 38.7061 54.1212 38.9055C55.0428 39.0312 58.0435 38.8267 58.0435 38.8267C58.0435 38.8267 57.7088 39.9089 56.9009 40.6623C55.1316 42.3123 53.1344 43.489 51.0513 43.8122C50.4045 43.9126 48.9104 43.7412 48.9104 43.7412C49.4801 44.2228 50.8352 44.7109 51.4419 44.8948C51.5476 44.9224 51.6685 44.9319 51.7735 44.9402L51.7745 44.9402C52.0397 44.9609 52.2008 44.9735 51.7492 45.2497C51.0417 45.6826 50.2579 45.9243 49.5014 46.1575L49.1113 46.279C48.6685 46.4192 48.4211 46.4859 48.0113 46.3321C47.5223 46.4186 45.8579 46.4148 44.5931 45.9579C45.0961 46.5845 45.6031 47.1887 46.1029 47.7686C48.233 50.2392 50.6673 51.9469 53.2256 53.1216C53.527 53.2597 55.6808 54.5241 55.6808 54.5241C55.6808 54.5241 54.8732 55.5824 54.2778 56.0785C53.3144 56.6813 50.4648 57.6023 46.7731 56.4643C47.3528 57.2035 47.9466 57.76 48.6436 58.2173C49.9272 59.0597 51.5945 59.3627 52.9922 59.3627C53.388 59.3627 52.6752 59.5232 52.028 59.6688L52.0248 59.6696L52.0211 59.6704C51.7549 59.7303 51.5002 59.7877 51.3398 59.8303C50.4897 60.0552 49.5395 60.2043 48.6746 60.2043C48.6509 60.2043 48.6187 60.2012 48.5834 60.1976C48.4122 60.1802 48.1587 60.1548 48.3475 60.438C49.7167 62.4916 51.8219 64.2079 53.5374 65.4403C55.3172 66.7188 57.246 66.9893 59.172 67.2519C60.3861 67.4174 64.3402 67.1482 64.3402 67.1482C64.3402 67.1482 63.8991 68.5735 62.8344 69.566C60.5034 71.7394 57.8719 73.2894 55.1272 73.7151C54.275 73.8473 52.3064 73.6216 52.3064 73.6216C53.0573 74.256 54.8427 74.8989 55.6418 75.141C55.7815 75.1775 55.9414 75.19 56.0799 75.2008L56.0801 75.2008L56.0803 75.2008C56.4293 75.2282 56.6412 75.2449 56.0468 75.6085C55.1139 76.1794 54.0802 76.4979 53.0826 76.8052C52.9107 76.8581 52.7403 76.9108 52.5712 76.9642C51.9882 77.149 51.662 77.2369 51.1217 77.0344C50.4262 77.1573 45.0712 77.1416 42.1718 76.386L35.4568 75.7788C32.6016 76.203 25.2141 77.2525 23.8618 76.9642C22.178 76.6055 21.4798 76.2777 20.3862 75.6085C19.7917 75.2449 20.0036 75.2282 20.3526 75.2008L20.3529 75.2008L20.353 75.2008C20.4916 75.19 20.6514 75.1775 20.7912 75.141C21.5903 74.8989 23.3757 74.256 24.1265 73.6216C24.1265 73.6216 22.1579 73.8473 21.3058 73.7151C18.561 73.2894 15.9295 71.7394 13.5986 69.566C12.5339 68.5735 12.0928 67.1482 12.0928 67.1482C12.0928 67.1482 16.0468 67.4174 17.2609 67.2519C19.187 66.9893 21.1158 66.7188 22.8956 65.4403C24.6111 64.2079 26.7162 62.4916 28.0854 60.438C28.2743 60.1548 28.0207 60.1802 27.8496 60.1976C27.8142 60.2012 27.7821 60.2043 27.7584 60.2043C26.8934 60.2043 25.9433 60.0552 25.0932 59.8303C24.9337 59.7878 24.6802 59.7307 24.415 59.6711L24.4114 59.6703L24.4082 59.6696L24.405 59.6688C23.7577 59.5232 23.045 59.3627 23.4407 59.3627C24.8384 59.3627 26.5057 59.0597 27.7893 58.2173C28.4864 57.76 29.0802 57.2035 29.6599 56.4643C25.9682 57.6023 23.1185 56.6813 22.1551 56.0785C21.5597 55.5824 20.7522 54.5241 20.7522 54.5241C20.7522 54.5241 22.906 53.2597 23.2073 53.1216C25.7657 51.9469 28.1999 50.2392 30.33 47.7686C30.8298 47.1887 31.3368 46.5845 31.8398 45.9579C30.5751 46.4148 28.9106 46.4186 28.4217 46.3321C28.0119 46.4859 27.7644 46.4192 27.3217 46.279L26.9316 46.1575C26.1751 45.9243 25.3913 45.6826 24.6838 45.2497C24.2322 44.9735 24.3933 44.9609 24.6585 44.9402L24.6595 44.9402C24.7645 44.9319 24.8854 44.9224 24.9911 44.8948C25.5978 44.7109 26.9529 44.2228 27.5226 43.7412C27.5226 43.7412 26.0284 43.9126 25.3816 43.8122C23.2985 43.489 21.3014 42.3123 19.5321 40.6623C18.7241 39.9089 18.3895 38.8267 18.3895 38.8267C18.3895 38.8267 21.3902 39.0312 22.3118 38.9055C23.7734 38.7061 25.2374 38.5009 26.5881 37.5302C27.8902 36.5945 29.488 35.2916 30.5273 33.7326C30.6707 33.5174 30.4783 33.5368 30.3485 33.5499C30.3212 33.5526 30.2971 33.555 30.279 33.555C29.6229 33.555 28.9014 33.4419 28.2562 33.2712C28.1328 33.2385 27.9372 33.1944 27.7327 33.1484C27.2417 33.0379 26.7018 32.9162 27.0023 32.9162C28.0629 32.9162 29.3285 32.6861 30.3027 32.0467C30.8318 31.6995 31.2822 31.2771 31.7221 30.7157C28.9207 31.5798 26.7576 30.8806 26.0264 30.4229C25.5745 30.0463 24.9618 29.2429 24.9618 29.2429C24.9618 29.2429 26.5965 28.283 26.8247 28.1781C28.7668 27.2863 30.6141 25.9899 32.2307 24.1143C33.7269 22.3786 35.3022 20.3582 36.4777 18.125C37.0566 17.0248 37.4628 15.7038 37.8589 14.4148Z" fill="#2E3642"/>
<path d="M42.7344 73.7979H35.6633V90.7177H42.7344V73.7979Z" fill="#2E3642"/>
</svg>
