<svg width="466" height="310" viewBox="0 0 466 310" fill="none" xmlns="http://www.w3.org/2000/svg">
<path d="M281.008 98.6875C294.614 89.7499 295.332 148.571 291.991 162.266L285.67 170.358C275.738 174.828 252.958 180.674 241.288 168.296C229.619 155.917 234.781 154.647 243.599 154.742C242.38 152.771 246.564 143.882 234.833 130.64C223.102 117.399 239.834 112.466 249.666 111.655C257.615 136.801 267.403 107.625 281.008 98.6875Z" fill="#1ACCCB"/>
<path d="M350.456 82.2212C362.693 90.7342 323.396 121.541 314.375 126.942L307.097 126.989C300.189 122.359 281.052 109.963 282.62 94.4584C284.188 78.9543 290.513 66.5258 298.817 79.1934C296.933 76.32 300.025 61.5514 302.04 45.5101C304.054 29.4688 334.164 33.2768 339.018 39.9237C350.456 58.0134 340.608 75.3703 350.456 82.2212Z" fill="#1ACCCB"/>
<path d="M297.505 264.57C298.844 255.38 296.678 164.99 286.566 160.614C273.927 155.143 272.232 150.066 268.936 142.348C266.3 136.174 257.361 127.045 253.221 123.252C258.423 126.139 269.752 133.322 273.445 138.961C277.139 144.6 280.495 146.986 281.712 147.474C277.722 142.409 270.78 131.256 274.932 127.166C279.084 123.075 279.932 117.18 279.837 114.743L280.407 129.362C279.465 129.517 277.819 130.562 278.772 133.503C279.725 136.444 286.364 147.741 289.564 153.022C292.576 154.764 299.024 160.655 300.717 170.288C302.41 179.922 309.911 159.053 313.449 147.415L305.531 128.649L301.897 108.404C303.156 105.215 303.055 101.763 302.617 99.237L301.878 96.4043C302.128 97.0596 302.41 98.0453 302.617 99.237L308.393 121.403C329.621 72.9976 324.381 91.1751 316.042 114.078L310.864 127.191L318.924 149.612L304.089 184.084L307.665 250.185L297.505 264.57Z" fill="#1C215D" fill-opacity="0.5"/>
<path d="M82.3398 149.935C91.5678 143.873 92.055 183.769 89.7888 193.058L85.5012 198.546C78.7652 201.578 63.3145 205.543 55.3997 197.147C47.4848 188.751 50.986 187.89 56.9666 187.954C56.1397 186.617 58.9781 180.589 51.0215 171.607C43.065 162.626 54.4132 159.281 61.0819 158.731C66.4734 175.786 73.1118 155.997 82.3398 149.935Z" fill="#1ACCCB"/>
<path d="M129.443 138.766C137.742 144.54 111.089 165.435 104.971 169.098L100.034 169.13C95.3491 165.99 82.3692 157.582 83.4327 147.066C84.4961 136.551 88.7863 128.121 94.4182 136.713C93.1407 134.764 95.2377 124.747 96.6041 113.867C97.9705 102.987 118.393 105.57 121.684 110.078C129.443 122.347 122.763 134.12 129.443 138.766Z" fill="#1ACCCB"/>
<path d="M93.8681 263.258C94.7759 257.025 93.3069 195.719 86.4487 192.75C77.876 189.04 76.7263 185.596 74.4913 180.362C72.7034 176.174 66.6401 169.982 63.832 167.409C67.3608 169.367 75.0447 174.239 77.5496 178.064C80.0545 181.889 82.3313 183.507 83.1565 183.838C80.4501 180.403 75.7415 172.838 78.5577 170.064C81.374 167.29 81.9492 163.291 81.8848 161.638L82.2714 171.554C81.6324 171.659 80.5159 172.368 81.1624 174.362C81.8088 176.357 86.3114 184.019 88.4819 187.601C90.525 188.782 94.8982 192.778 96.0465 199.312C97.1949 205.846 102.282 191.692 104.682 183.798L99.3117 171.07L96.847 157.339C97.7011 155.176 97.6323 152.835 97.3349 151.121L96.8343 149.2C97.0035 149.644 97.1947 150.313 97.3349 151.121L101.252 166.155C115.651 133.324 112.097 145.653 106.441 161.188L102.929 170.081L108.396 185.288L98.3339 208.669L100.759 253.502L93.8681 263.258Z" fill="#1C215D" fill-opacity="0.5"/>
<path d="M374.261 45.9563L374.265 45.9417C374.675 44.6102 375.081 43.2887 375.5 42C375.919 43.2887 376.325 44.6102 376.735 45.9417L376.739 45.9563C378.111 50.417 379.518 54.9882 381.524 58.7954C385.596 66.5235 391.053 73.5147 396.236 79.521C401.837 86.0115 408.236 90.4977 414.964 93.5837C415.755 93.9469 421.418 97.2685 421.418 97.2685C421.418 97.2685 419.296 100.049 417.73 101.352C415.197 102.936 407.703 105.355 397.998 102.365C399.522 104.308 401.083 105.769 402.916 106.971C406.291 109.184 410.675 109.98 414.349 109.98C415.39 109.98 413.52 110.401 411.819 110.784C411.11 110.942 410.433 111.095 410.005 111.208C407.77 111.799 405.27 112.191 402.998 112.191C402.936 112.191 402.853 112.182 402.76 112.173L402.757 112.173C402.307 112.127 401.641 112.06 402.138 112.805C405.738 118.2 411.273 122.709 415.784 125.946C420.463 129.305 425.535 130.016 430.598 130.706C433.791 131.141 444.186 130.433 444.186 130.433C444.186 130.433 443.027 134.178 440.228 136.785C434.099 142.495 427.18 146.567 419.964 147.685C417.723 148.033 412.547 147.44 412.547 147.44C414.52 149.106 419.215 150.795 421.316 151.431C421.683 151.527 422.102 151.56 422.465 151.588L422.469 151.589C423.387 151.66 423.946 151.704 422.381 152.66C419.93 154.158 417.215 154.994 414.594 155.801L413.243 156.221C411.709 156.706 410.852 156.937 409.432 156.405C407.738 156.704 401.972 156.691 397.591 155.11C399.333 157.279 401.09 159.369 402.821 161.376C410.2 169.925 418.633 175.835 427.496 179.9C428.54 180.378 436.001 184.753 436.001 184.753C436.001 184.753 433.204 188.416 431.141 190.132C427.804 192.218 417.932 195.405 405.142 191.467C407.151 194.025 409.208 195.951 411.623 197.533C416.069 200.449 421.845 201.497 426.687 201.497C428.058 201.497 425.589 202.052 423.347 202.556L423.336 202.559L423.324 202.562C422.401 202.769 421.519 202.968 420.963 203.115C418.018 203.894 414.726 204.409 411.73 204.409C411.648 204.409 411.536 204.399 411.414 204.386C410.821 204.326 409.943 204.238 410.597 205.218C415.34 212.325 422.633 218.264 428.576 222.529C434.742 226.953 441.424 227.889 448.096 228.797C452.302 229.37 466 228.438 466 228.438C466 228.438 464.472 233.371 460.784 236.805C452.708 244.326 443.592 249.69 434.083 251.163C431.131 251.621 424.312 250.839 424.312 250.839C426.913 253.035 433.098 255.259 435.866 256.097C436.35 256.223 436.904 256.267 437.384 256.304L437.385 256.304L437.386 256.304C438.595 256.399 439.329 256.457 437.269 257.715C434.037 259.69 430.456 260.793 427.001 261.856C426.405 262.039 425.815 262.222 425.229 262.407C423.209 263.046 422.079 263.35 420.207 262.649C417.798 263.075 399.247 263.02 389.202 260.405L365.94 258.304C356.048 259.772 330.456 263.404 325.771 262.407C319.938 261.165 317.519 260.031 313.731 257.715C311.671 256.457 312.405 256.399 313.614 256.304L313.615 256.304L313.616 256.304C314.096 256.267 314.65 256.223 315.134 256.097C317.902 255.259 324.087 253.035 326.688 250.839C326.688 250.839 319.869 251.621 316.917 251.163C307.408 249.69 298.292 244.326 290.216 236.805C286.528 233.371 285 228.438 285 228.438C285 228.438 298.698 229.37 302.904 228.797C309.576 227.889 316.258 226.953 322.424 222.529C328.367 218.264 335.66 212.325 340.403 205.218C341.057 204.238 340.179 204.326 339.586 204.386C339.464 204.399 339.352 204.409 339.27 204.409C336.274 204.409 332.982 203.894 330.037 203.115C329.485 202.968 328.606 202.771 327.688 202.564L327.675 202.562L327.664 202.559L327.653 202.556C325.411 202.052 322.942 201.497 324.313 201.497C329.155 201.497 334.931 200.449 339.377 197.533C341.792 195.951 343.849 194.025 345.858 191.467C333.068 195.405 323.196 192.218 319.859 190.132C317.796 188.416 314.999 184.753 314.999 184.753C314.999 184.753 322.46 180.378 323.504 179.9C332.367 175.835 340.8 169.925 348.179 161.376C349.91 159.369 351.667 157.279 353.409 155.11C349.028 156.691 343.262 156.704 341.568 156.405C340.148 156.937 339.291 156.706 337.757 156.221L336.406 155.801C333.785 154.994 331.07 154.158 328.619 152.66C327.054 151.704 327.613 151.66 328.531 151.589L328.535 151.588C328.898 151.56 329.317 151.527 329.684 151.431C331.785 150.795 336.48 149.106 338.453 147.44C338.453 147.44 333.277 148.033 331.036 147.685C323.82 146.567 316.901 142.495 310.772 136.785C307.973 134.178 306.814 130.433 306.814 130.433C306.814 130.433 317.209 131.141 320.402 130.706C325.465 130.016 330.537 129.305 335.216 125.946C339.727 122.709 345.262 118.2 348.862 112.805C349.359 112.06 348.693 112.127 348.243 112.173L348.24 112.173C348.147 112.182 348.064 112.191 348.002 112.191C345.73 112.191 343.23 111.799 340.995 111.208C340.567 111.095 339.89 110.942 339.181 110.784C337.48 110.401 335.61 109.98 336.651 109.98C340.325 109.98 344.709 109.184 348.084 106.971C349.917 105.769 351.478 104.308 353.002 102.365C343.297 105.355 335.803 102.936 333.27 101.352C331.704 100.049 329.582 97.2685 329.582 97.2685C329.582 97.2685 335.245 93.9469 336.036 93.5837C342.764 90.4977 349.163 86.0115 354.764 79.521C359.947 73.5147 365.404 66.5235 369.476 58.7954C371.482 54.9882 372.889 50.417 374.261 45.9563Z" fill="#19252D"/>
<path d="M391.15 251.449H366.654V310H391.15V251.449Z" fill="#19252D"/>
<rect x="174.024" y="13" width="8.80907" height="238" fill="#C4C4C4"/>
<path fill-rule="evenodd" clip-rule="evenodd" d="M208.775 34.0322L221.949 28.5244L208.775 23.3701V23.3145H208.633L208.447 23.2422L208.449 23.3145H178.531V34.085L208.643 34.0879L208.775 34.085V34.0322Z" fill="#26589F"/>
<path fill-rule="evenodd" clip-rule="evenodd" d="M151.206 36.4602L136.032 41.7151L151.087 46.9104L151.085 47.0764L151.581 47.0813L151.764 47.1448L151.764 47.0832L183.286 47.3987L183.409 36.6291L151.675 36.2981L151.633 36.3118L151.208 36.3079L151.206 36.4602Z" fill="#4887E3"/>
</svg>
