<svg width="53" height="78" viewBox="0 0 53 78" fill="none" xmlns="http://www.w3.org/2000/svg">
<path d="M25.8589 1.41476L25.8601 1.41055C25.9782 1.02579 26.0956 0.643893 26.2165 0.271484C26.3374 0.643893 26.4547 1.02579 26.5728 1.41055L26.574 1.41476C26.9702 2.70381 27.3763 4.02479 27.9553 5.125C29.1308 7.35824 30.7061 9.37856 32.2022 11.1143C33.8189 12.9899 35.6662 14.2863 37.6082 15.1781C37.8364 15.283 39.4712 16.2429 39.4712 16.2429C39.4712 16.2429 38.8585 17.0463 38.4065 17.4229C37.6753 17.8806 35.5123 18.5798 32.7109 17.7157C33.1508 18.2771 33.6011 18.6995 34.1302 19.0467C35.1045 19.6861 36.37 19.9162 37.4307 19.9162C37.7312 19.9162 37.1912 20.0379 36.7003 20.1484C36.4958 20.1944 36.3001 20.2385 36.1768 20.2712C35.5316 20.4419 34.81 20.555 34.154 20.555C34.1361 20.555 34.1122 20.5527 34.0853 20.55L34.0845 20.5499C33.9547 20.5368 33.7622 20.5174 33.9057 20.7326C34.945 22.2916 36.5428 23.5945 37.8449 24.5302C39.1956 25.5009 40.6596 25.7061 42.1212 25.9055C43.0428 26.0312 46.0435 25.8267 46.0435 25.8267C46.0435 25.8267 45.7088 26.9089 44.9009 27.6623C43.1316 29.3123 41.1344 30.489 39.0513 30.8122C38.4045 30.9126 36.9104 30.7412 36.9104 30.7412C37.4801 31.2228 38.8352 31.7109 39.4419 31.8948C39.5476 31.9224 39.6685 31.9319 39.7735 31.9402L39.7745 31.9402C40.0397 31.9609 40.2008 31.9735 39.7492 32.2497C39.0417 32.6826 38.2579 32.9243 37.5014 33.1575L37.1113 33.279C36.6685 33.4192 36.4211 33.4859 36.0113 33.3321C35.5223 33.4186 33.8579 33.4148 32.5931 32.9579C33.0961 33.5845 33.6031 34.1887 34.1029 34.7686C36.233 37.2392 38.6673 38.9469 41.2256 40.1216C41.527 40.2597 43.6808 41.5241 43.6808 41.5241C43.6808 41.5241 42.8732 42.5824 42.2778 43.0785C41.3144 43.6813 38.4648 44.6023 34.7731 43.4643C35.3528 44.2035 35.9466 44.76 36.6436 45.2173C37.9272 46.0597 39.5945 46.3627 40.9922 46.3627C41.388 46.3627 40.6752 46.5232 40.028 46.6688L40.0248 46.6696L40.0211 46.6704C39.7549 46.7303 39.5002 46.7877 39.3398 46.8303C38.4897 47.0552 37.5395 47.2043 36.6746 47.2043C36.6509 47.2043 36.6187 47.2012 36.5834 47.1976C36.4122 47.1802 36.1587 47.1548 36.3475 47.438C37.7167 49.4916 39.8219 51.2079 41.5374 52.4403C43.3172 53.7188 45.246 53.9893 47.172 54.2519C48.3861 54.4174 52.3402 54.1482 52.3402 54.1482C52.3402 54.1482 51.8991 55.5735 50.8344 56.566C48.5034 58.7394 45.8719 60.2894 43.1272 60.7151C42.275 60.8473 40.3064 60.6216 40.3064 60.6216C41.0573 61.256 42.8427 61.8989 43.6418 62.141C43.7815 62.1775 43.9414 62.19 44.0799 62.2008L44.0801 62.2008L44.0803 62.2008C44.4293 62.2282 44.6412 62.2449 44.0468 62.6085C43.1139 63.1794 42.0802 63.4979 41.0826 63.8052C40.9107 63.8581 40.7403 63.9108 40.5712 63.9642C39.9882 64.149 39.662 64.2369 39.1217 64.0344C38.4262 64.1573 33.0712 64.1416 30.1718 63.386L23.4568 62.7788C20.6016 63.203 13.2141 64.2525 11.8618 63.9642C10.178 63.6055 9.47978 63.2777 8.3862 62.6085C7.79173 62.2449 8.00364 62.2282 8.35263 62.2008L8.35285 62.2008L8.35302 62.2008C8.49159 62.19 8.65141 62.1775 8.79117 62.141C9.59026 61.8989 11.3757 61.256 12.1265 60.6216C12.1265 60.6216 10.1579 60.8473 9.30582 60.7151C6.56103 60.2894 3.92953 58.7394 1.59855 56.566C0.5339 55.5735 0.0927734 54.1482 0.0927734 54.1482C0.0927734 54.1482 4.04685 54.4174 5.26095 54.2519C7.18696 53.9893 9.11579 53.7188 10.8956 52.4403C12.6111 51.2079 14.7162 49.4916 16.0854 47.438C16.2743 47.1548 16.0207 47.1802 15.8496 47.1976C15.8142 47.2012 15.7821 47.2043 15.7584 47.2043C14.8934 47.2043 13.9433 47.0552 13.0932 46.8303C12.9337 46.7878 12.6802 46.7307 12.415 46.6711L12.4114 46.6703L12.4082 46.6696L12.405 46.6688C11.7577 46.5232 11.045 46.3627 11.4407 46.3627C12.8384 46.3627 14.5057 46.0597 15.7893 45.2173C16.4864 44.76 17.0802 44.2035 17.6599 43.4643C13.9682 44.6023 11.1185 43.6813 10.1551 43.0785C9.55973 42.5824 8.7522 41.5241 8.7522 41.5241C8.7522 41.5241 10.906 40.2597 11.2073 40.1216C13.7657 38.9469 16.1999 37.2392 18.33 34.7686C18.8298 34.1887 19.3368 33.5845 19.8398 32.9579C18.5751 33.4148 16.9106 33.4186 16.4217 33.3321C16.0119 33.4859 15.7644 33.4192 15.3217 33.279L14.9316 33.1575C14.1751 32.9243 13.3913 32.6826 12.6838 32.2497C12.2322 31.9735 12.3933 31.9609 12.6585 31.9402L12.6595 31.9402C12.7645 31.9319 12.8854 31.9224 12.9911 31.8948C13.5978 31.7109 14.9529 31.2228 15.5226 30.7412C15.5226 30.7412 14.0284 30.9126 13.3816 30.8122C11.2985 30.489 9.3014 29.3123 7.53207 27.6623C6.72414 26.9089 6.38948 25.8267 6.38948 25.8267C6.38948 25.8267 9.39019 26.0312 10.3118 25.9055C11.7734 25.7061 13.2374 25.5009 14.5881 24.5302C15.8902 23.5945 17.488 22.2916 18.5273 20.7326C18.6707 20.5174 18.4783 20.5368 18.3485 20.5499C18.3212 20.5526 18.2971 20.555 18.279 20.555C17.6229 20.555 16.9014 20.4419 16.2562 20.2712C16.1328 20.2385 15.9372 20.1944 15.7327 20.1484C15.2417 20.0379 14.7018 19.9162 15.0023 19.9162C16.0629 19.9162 17.3285 19.6861 18.3027 19.0467C18.8318 18.6995 19.2822 18.2771 19.7221 17.7157C16.9207 18.5798 14.7576 17.8806 14.0264 17.4229C13.5745 17.0463 12.9618 16.2429 12.9618 16.2429C12.9618 16.2429 14.5965 15.283 14.8247 15.1781C16.7668 14.2863 18.6141 12.9899 20.2307 11.1143C21.7269 9.37856 23.3022 7.35824 24.4777 5.125C25.0566 4.02479 25.4628 2.70381 25.8589 1.41476Z" fill="#2E3642"/>
<path d="M30.7344 60.7979H23.6633V77.7177H30.7344V60.7979Z" fill="#2E3642"/>
</svg>
