<svg width="1440" height="893" viewBox="0 0 1440 893" fill="none" xmlns="http://www.w3.org/2000/svg">
<rect width="1440" height="893" fill="#E6EFFF"/>
<path d="M0 0H1440V893H0V0Z" fill="url(#paint0_linear)" fill-opacity="0.7"/>
<ellipse cx="719.5" cy="358.5" rx="294.5" ry="287.5" fill="url(#paint1_linear)"/>
<path d="M590.279 230.248L588.231 229.672V227.464L593.543 226.792H593.639L594.439 227.432V228.68L594.407 229.448C595.154 228.744 596.124 228.136 597.319 227.624C598.514 227.112 599.719 226.856 600.935 226.856C602.236 226.856 603.25 227.101 603.975 227.592C604.722 228.061 605.255 228.808 605.575 229.832C605.895 230.856 606.055 232.243 606.055 233.992V242.824L608.007 243.08V245H599.751V243.08L601.479 242.824V233.992C601.479 232.883 601.404 232.019 601.255 231.4C601.106 230.76 600.828 230.301 600.423 230.024C600.039 229.725 599.484 229.576 598.759 229.576C597.543 229.576 596.242 230.099 594.855 231.144V242.792L596.775 243.08V245H588.423V243.08L590.279 242.792V230.248ZM608.38 227.24H616.636V229.064L614.396 229.448L616.764 237.96L617.532 241.448L618.236 237.928L621.116 227.24H624.988L628.156 237.928L628.924 241.448L629.692 237.96L631.932 229.48L629.596 229.064V227.24H636.444V229.064L634.812 229.416L629.948 245.256H626.268L623.036 234.888L622.3 231.08L621.724 234.888L618.748 245.256H615.036L609.916 229.416L608.38 229.064V227.24ZM639.511 223.624L637.111 223.208V221.224H641.943C642.391 221.224 643.084 221.203 644.023 221.16C645.26 221.075 646.38 221.032 647.383 221.032C649.602 221.032 651.351 221.309 652.631 221.864C653.932 222.397 654.85 223.176 655.383 224.2C655.938 225.203 656.215 226.483 656.215 228.04C656.215 230.728 655.372 232.819 653.687 234.312C652.023 235.805 649.708 236.552 646.743 236.552C645.57 236.552 644.727 236.52 644.215 236.456V242.76L648.503 243.08V245H636.983V243.08L639.511 242.76V223.624ZM644.183 234.408C644.674 234.515 645.506 234.568 646.679 234.568C648.108 234.568 649.25 234.077 650.103 233.096C650.978 232.093 651.415 230.44 651.415 228.136C651.415 226.344 651.02 225.043 650.231 224.232C649.463 223.4 648.279 222.984 646.679 222.984C646.082 222.984 645.463 223.027 644.823 223.112C644.524 223.155 644.311 223.176 644.183 223.176V234.408ZM660.155 221.608L657.787 221.192V219.464L663.707 218.76H663.771L664.635 219.368V242.824L666.971 243.08V245H657.915V243.08L660.155 242.792V221.608ZM683.606 245.32C682.902 245.32 682.39 245.171 682.07 244.872C681.75 244.573 681.59 244.125 681.59 243.528V242.664C681.014 243.368 680.204 243.997 679.158 244.552C678.113 245.085 677.068 245.352 676.022 245.352C673.974 245.352 672.513 244.829 671.638 243.784C670.764 242.717 670.326 240.968 670.326 238.536V229.512L668.726 229.064V227.24L674.166 226.824H674.198L674.838 227.272V238.536C674.838 240.093 675.03 241.181 675.414 241.8C675.798 242.419 676.513 242.728 677.558 242.728C678.817 242.728 679.99 242.237 681.078 241.256V229.512L678.934 229.032V227.24L684.726 226.824H684.79L685.558 227.272V243.016H687.35L687.318 244.84C687.233 244.861 686.838 244.947 686.134 245.096C685.43 245.245 684.588 245.32 683.606 245.32ZM693.164 242.376C693.335 242.632 693.719 242.877 694.316 243.112C694.935 243.325 695.553 243.432 696.172 243.432C697.175 243.432 697.921 243.229 698.412 242.824C698.924 242.397 699.18 241.843 699.18 241.16C699.18 240.456 698.871 239.891 698.252 239.464C697.633 239.016 696.588 238.472 695.116 237.832L694.22 237.448C692.748 236.829 691.649 236.083 690.924 235.208C690.199 234.333 689.836 233.203 689.836 231.816C689.836 230.856 690.124 230.003 690.7 229.256C691.276 228.488 692.087 227.891 693.132 227.464C694.177 227.037 695.383 226.824 696.748 226.824C697.751 226.824 698.604 226.888 699.308 227.016C700.033 227.144 700.791 227.315 701.58 227.528C702.007 227.677 702.327 227.763 702.54 227.784V231.976H700.012L699.276 229.544C699.148 229.331 698.86 229.139 698.412 228.968C697.964 228.797 697.452 228.712 696.876 228.712C696.001 228.712 695.297 228.904 694.764 229.288C694.252 229.651 693.996 230.163 693.996 230.824C693.996 231.421 694.177 231.923 694.54 232.328C694.903 232.712 695.297 233.011 695.724 233.224C696.151 233.437 696.94 233.789 698.092 234.28C699.244 234.771 700.193 235.24 700.94 235.688C701.708 236.136 702.337 236.723 702.828 237.448C703.34 238.152 703.596 239.016 703.596 240.04C703.596 241.619 702.977 242.899 701.74 243.88C700.503 244.861 698.721 245.352 696.396 245.352C695.308 245.352 694.327 245.256 693.452 245.064C692.599 244.872 691.607 244.616 690.476 244.296L689.772 244.072V239.848H692.428L693.164 242.376ZM731.495 235.528C731.495 237.32 731.122 238.963 730.375 240.456C729.65 241.949 728.573 243.144 727.143 244.04C725.735 244.915 724.05 245.352 722.087 245.352C721.661 245.352 721.213 245.309 720.743 245.224C720.295 245.16 719.933 245.075 719.655 244.968L719.751 247.624V250.536L722.727 250.92V252.744H713.223V250.92L715.303 250.536V230.248L713.223 229.672V227.464L718.503 226.792H718.567L719.367 227.432V229.224C719.901 228.563 720.626 227.987 721.543 227.496C722.461 227.005 723.463 226.76 724.551 226.76C726.578 226.76 728.242 227.485 729.543 228.936C730.845 230.365 731.495 232.563 731.495 235.528ZM722.887 229.416C722.247 229.416 721.639 229.555 721.063 229.832C720.487 230.109 720.05 230.419 719.751 230.76V242.632C719.901 242.845 720.199 243.027 720.647 243.176C721.117 243.325 721.629 243.4 722.183 243.4C723.57 243.4 724.669 242.803 725.479 241.608C726.311 240.392 726.727 238.493 726.727 235.912C726.727 233.736 726.375 232.115 725.671 231.048C724.967 229.96 724.039 229.416 722.887 229.416ZM734.112 243.112L736.224 242.856V230.248L734.176 229.672V227.464L739.136 226.792H739.232L740.032 227.432V228.136L739.936 230.728H740.032C740.181 230.301 740.533 229.779 741.088 229.16C741.643 228.52 742.336 227.965 743.168 227.496C744.021 227.005 744.939 226.76 745.92 226.76C746.389 226.76 746.795 226.824 747.136 226.952V231.752C746.496 231.304 745.717 231.08 744.8 231.08C743.243 231.08 741.888 231.496 740.736 232.328V242.824L744.448 243.112V245H734.112V243.112ZM757.238 245.352C754.422 245.352 752.321 244.531 750.934 242.888C749.569 241.224 748.886 238.963 748.886 236.104C748.886 234.184 749.238 232.52 749.942 231.112C750.668 229.704 751.681 228.627 752.982 227.88C754.284 227.133 755.788 226.76 757.494 226.76C759.628 226.76 761.27 227.325 762.422 228.456C763.574 229.565 764.172 231.155 764.214 233.224C764.214 234.632 764.129 235.677 763.958 236.36H753.558C753.644 238.301 754.102 239.816 754.934 240.904C755.766 241.971 756.95 242.504 758.486 242.504C759.318 242.504 760.172 242.365 761.046 242.088C761.942 241.811 762.646 241.48 763.158 241.096L763.958 242.856C763.382 243.475 762.444 244.051 761.142 244.584C759.862 245.096 758.561 245.352 757.238 245.352ZM759.734 234.44C759.777 233.843 759.798 233.384 759.798 233.064C759.798 230.227 758.849 228.808 756.95 228.808C755.905 228.808 755.094 229.224 754.518 230.056C753.942 230.888 753.622 232.349 753.558 234.44H759.734ZM770.32 242.376C770.491 242.632 770.875 242.877 771.472 243.112C772.091 243.325 772.709 243.432 773.328 243.432C774.331 243.432 775.077 243.229 775.568 242.824C776.08 242.397 776.336 241.843 776.336 241.16C776.336 240.456 776.027 239.891 775.408 239.464C774.789 239.016 773.744 238.472 772.272 237.832L771.376 237.448C769.904 236.829 768.805 236.083 768.08 235.208C767.355 234.333 766.992 233.203 766.992 231.816C766.992 230.856 767.28 230.003 767.856 229.256C768.432 228.488 769.243 227.891 770.288 227.464C771.333 227.037 772.539 226.824 773.904 226.824C774.907 226.824 775.76 226.888 776.464 227.016C777.189 227.144 777.947 227.315 778.736 227.528C779.163 227.677 779.483 227.763 779.696 227.784V231.976H777.168L776.432 229.544C776.304 229.331 776.016 229.139 775.568 228.968C775.12 228.797 774.608 228.712 774.032 228.712C773.157 228.712 772.453 228.904 771.92 229.288C771.408 229.651 771.152 230.163 771.152 230.824C771.152 231.421 771.333 231.923 771.696 232.328C772.059 232.712 772.453 233.011 772.88 233.224C773.307 233.437 774.096 233.789 775.248 234.28C776.4 234.771 777.349 235.24 778.096 235.688C778.864 236.136 779.493 236.723 779.984 237.448C780.496 238.152 780.752 239.016 780.752 240.04C780.752 241.619 780.133 242.899 778.896 243.88C777.659 244.861 775.877 245.352 773.552 245.352C772.464 245.352 771.483 245.256 770.608 245.064C769.755 244.872 768.763 244.616 767.632 244.296L766.928 244.072V239.848H769.584L770.32 242.376ZM791.426 245.352C788.61 245.352 786.509 244.531 785.122 242.888C783.757 241.224 783.074 238.963 783.074 236.104C783.074 234.184 783.426 232.52 784.13 231.112C784.855 229.704 785.869 228.627 787.17 227.88C788.471 227.133 789.975 226.76 791.682 226.76C793.815 226.76 795.458 227.325 796.61 228.456C797.762 229.565 798.359 231.155 798.402 233.224C798.402 234.632 798.317 235.677 798.146 236.36H787.746C787.831 238.301 788.29 239.816 789.122 240.904C789.954 241.971 791.138 242.504 792.674 242.504C793.506 242.504 794.359 242.365 795.234 242.088C796.13 241.811 796.834 241.48 797.346 241.096L798.146 242.856C797.57 243.475 796.631 244.051 795.33 244.584C794.05 245.096 792.749 245.352 791.426 245.352ZM793.922 234.44C793.965 233.843 793.986 233.384 793.986 233.064C793.986 230.227 793.037 228.808 791.138 228.808C790.093 228.808 789.282 229.224 788.706 230.056C788.13 230.888 787.81 232.349 787.746 234.44H793.922ZM802.748 230.248L800.7 229.672V227.464L806.012 226.792H806.108L806.908 227.432V228.68L806.876 229.448C807.622 228.744 808.593 228.136 809.788 227.624C810.982 227.112 812.188 226.856 813.404 226.856C814.705 226.856 815.718 227.101 816.444 227.592C817.19 228.061 817.724 228.808 818.044 229.832C818.364 230.856 818.524 232.243 818.524 233.992V242.824L820.476 243.08V245H812.22V243.08L813.948 242.824V233.992C813.948 232.883 813.873 232.019 813.724 231.4C813.574 230.76 813.297 230.301 812.892 230.024C812.508 229.725 811.953 229.576 811.228 229.576C810.012 229.576 808.71 230.099 807.324 231.144V242.792L809.244 243.08V245H800.892V243.08L802.748 242.792V230.248ZM828.113 245.288C826.769 245.288 825.777 244.979 825.137 244.36C824.497 243.741 824.177 242.76 824.177 241.416V229.672H822.097V228.008C822.268 227.944 822.577 227.837 823.025 227.688C823.473 227.517 823.814 227.379 824.049 227.272C824.412 226.995 824.721 226.515 824.977 225.832C825.169 225.384 825.521 224.275 826.033 222.504H828.593L828.721 227.208H833.617V229.672H828.753V238.664C828.753 239.859 828.785 240.701 828.849 241.192C828.913 241.683 829.052 242.003 829.265 242.152C829.478 242.28 829.852 242.344 830.385 242.344C830.918 242.344 831.473 242.291 832.049 242.184C832.625 242.056 833.105 241.907 833.489 241.736L834.097 243.528C833.5 243.976 832.625 244.381 831.473 244.744C830.321 245.107 829.201 245.288 828.113 245.288ZM839.351 242.376C839.522 242.632 839.906 242.877 840.503 243.112C841.122 243.325 841.741 243.432 842.359 243.432C843.362 243.432 844.109 243.229 844.599 242.824C845.111 242.397 845.367 241.843 845.367 241.16C845.367 240.456 845.058 239.891 844.439 239.464C843.821 239.016 842.775 238.472 841.303 237.832L840.407 237.448C838.935 236.829 837.837 236.083 837.111 235.208C836.386 234.333 836.023 233.203 836.023 231.816C836.023 230.856 836.311 230.003 836.887 229.256C837.463 228.488 838.274 227.891 839.319 227.464C840.365 227.037 841.57 226.824 842.935 226.824C843.938 226.824 844.791 226.888 845.495 227.016C846.221 227.144 846.978 227.315 847.767 227.528C848.194 227.677 848.514 227.763 848.727 227.784V231.976H846.199L845.463 229.544C845.335 229.331 845.047 229.139 844.599 228.968C844.151 228.797 843.639 228.712 843.063 228.712C842.189 228.712 841.485 228.904 840.951 229.288C840.439 229.651 840.183 230.163 840.183 230.824C840.183 231.421 840.365 231.923 840.727 232.328C841.09 232.712 841.485 233.011 841.911 233.224C842.338 233.437 843.127 233.789 844.279 234.28C845.431 234.771 846.381 235.24 847.127 235.688C847.895 236.136 848.525 236.723 849.015 237.448C849.527 238.152 849.783 239.016 849.783 240.04C849.783 241.619 849.165 242.899 847.927 243.88C846.69 244.861 844.909 245.352 842.583 245.352C841.495 245.352 840.514 245.256 839.639 245.064C838.786 244.872 837.794 244.616 836.663 244.296L835.959 244.072V239.848H838.615L839.351 242.376Z" fill="white"/>
<path d="M579.354 280H568.954V314.88C568.954 323.04 565.514 327.04 558.474 327.04C551.434 327.04 547.994 323.04 547.994 314.88V280H537.594V314.72C537.594 329.68 546.234 336.64 558.474 336.64C570.714 336.64 579.354 329.68 579.354 314.72V280ZM589.2 280V336H610.08C621.52 336 628.56 330 628.56 319.12C628.56 312 625.44 307.6 620.16 305.44C623.68 303.6 625.68 299.68 625.68 295.12C625.68 284.96 619.2 280 609.68 280H589.2ZM608.88 289.6C613.28 289.6 615.68 291.12 615.68 295.68C615.68 300.24 613.28 301.76 609.12 301.76H599.6V289.6H608.88ZM609.12 311.36C615.6 311.36 618.16 314.08 618.16 318.88C618.16 323.68 615.6 326.4 609.12 326.4H599.6V311.36H609.12ZM685.989 296.32C683.349 285.6 674.949 279.36 662.789 279.36C648.789 279.36 636.309 289.28 636.309 308C636.309 326.72 648.789 336.64 662.789 336.64C674.949 336.64 683.349 330.4 685.989 319.68L676.629 317.28C674.469 322.96 670.549 327.04 662.789 327.04C654.149 327.04 646.869 320.96 646.869 308C646.869 295.04 654.149 288.96 662.789 288.96C670.549 288.96 674.469 293.04 676.629 298.72L685.989 296.32ZM715.528 280V336H749.688V326.4H725.928V280H715.528ZM754.659 315.84C754.659 327.52 762.179 336.64 775.139 336.64C788.099 336.64 795.619 327.52 795.619 315.84C795.619 304.16 788.099 295.04 775.139 295.04C762.179 295.04 754.659 304.16 754.659 315.84ZM765.059 315.84C765.059 309.2 768.739 303.52 775.139 303.52C781.539 303.52 785.219 309.2 785.219 315.84C785.219 322.48 781.539 328.16 775.139 328.16C768.739 328.16 765.059 322.48 765.059 315.84ZM832.138 321.52C830.058 325.76 827.178 328.16 822.698 328.16C816.458 328.16 813.418 322.96 813.418 315.84C813.418 308.72 816.458 303.52 822.698 303.52C827.178 303.52 830.058 305.92 832.138 310.16L841.018 306.56C837.978 298.96 831.658 295.04 822.698 295.04C809.578 295.04 803.018 304.48 803.018 315.84C803.018 327.2 809.578 336.64 822.698 336.64C831.658 336.64 837.978 332.72 841.018 325.12L832.138 321.52ZM856.991 308.16C858.271 304.4 861.151 303.52 863.951 303.52C867.631 303.52 870.991 304.96 870.991 309.44V311.2H864.271C854.111 311.2 847.071 316.4 847.071 324.4C847.071 332.4 852.431 336.64 859.311 336.64C865.071 336.64 868.911 334.32 871.711 330.88L872.751 336H880.911V311.92C880.911 299.04 873.551 295.04 863.951 295.04C855.711 295.04 849.871 299.6 848.591 306.24L856.991 308.16ZM857.471 324.24C857.471 320.64 860.111 319.04 864.351 319.04H870.991V319.84C870.991 325.04 866.191 328.16 861.631 328.16C858.831 328.16 857.471 326.16 857.471 324.24ZM890.74 279.36V336H900.66V279.36H890.74ZM557.364 415H567.764V389.88H590.164V415H600.564V359H590.164V380.28H567.764V359H557.364V415ZM620.233 387.16C621.513 383.4 624.393 382.52 627.193 382.52C630.873 382.52 634.233 383.96 634.233 388.44V390.2H627.513C617.353 390.2 610.313 395.4 610.313 403.4C610.313 411.4 615.673 415.64 622.553 415.64C628.313 415.64 632.153 413.32 634.953 409.88L635.993 415H644.153V390.92C644.153 378.04 636.793 374.04 627.193 374.04C618.953 374.04 613.113 378.6 611.833 385.24L620.233 387.16ZM620.713 403.24C620.713 399.64 623.353 398.04 627.593 398.04H634.233V398.84C634.233 404.04 629.433 407.16 624.873 407.16C622.073 407.16 620.713 405.16 620.713 403.24ZM681.865 400.52C679.785 404.76 676.905 407.16 672.425 407.16C666.185 407.16 663.145 401.96 663.145 394.84C663.145 387.72 666.185 382.52 672.425 382.52C676.905 382.52 679.785 384.92 681.865 389.16L690.745 385.56C687.705 377.96 681.385 374.04 672.425 374.04C659.305 374.04 652.745 383.48 652.745 394.84C652.745 406.2 659.305 415.64 672.425 415.64C681.385 415.64 687.705 411.72 690.745 404.12L681.865 400.52ZM698.048 358.36V415H707.968V395.96L722.208 415H734.368L717.168 393.24L733.328 374.68H721.088L707.968 390.52V358.36H698.048ZM779.181 415C792.381 415 805.261 406.6 805.261 387C805.261 367.4 792.381 359 779.181 359H761.661V415H779.181ZM772.061 405.4V368.6H775.901C784.861 368.6 794.701 372.12 794.701 387C794.701 401.88 784.861 405.4 775.901 405.4H772.061ZM822.421 387.16C823.701 383.4 826.581 382.52 829.381 382.52C833.061 382.52 836.421 383.96 836.421 388.44V390.2H829.701C819.541 390.2 812.501 395.4 812.501 403.4C812.501 411.4 817.861 415.64 824.741 415.64C830.501 415.64 834.341 413.32 837.141 409.88L838.181 415H846.341V390.92C846.341 378.04 838.981 374.04 829.381 374.04C821.141 374.04 815.301 378.6 814.021 385.24L822.421 387.16ZM822.901 403.24C822.901 399.64 825.541 398.04 829.781 398.04H836.421V398.84C836.421 404.04 831.621 407.16 827.061 407.16C824.261 407.16 822.901 405.16 822.901 403.24ZM850.56 374.68L865.2 412.44L858.24 431.32H867.84L888.64 374.68H878.72L869.92 399.96L860.56 374.68H850.56Z" fill="white"/>
<path d="M604.287 463C608.247 463 612.111 460.48 612.111 454.6C612.111 448.72 608.247 446.2 604.287 446.2H599.031V463H604.287ZM602.151 460.12V449.08H603.303C605.991 449.08 608.943 450.136 608.943 454.6C608.943 459.064 605.991 460.12 603.303 460.12H602.151ZM625.875 456.688C625.875 454.048 624.267 450.712 620.235 450.712C616.083 450.712 614.427 454.096 614.427 456.952C614.427 459.808 616.083 463.192 620.235 463.192C623.163 463.192 624.795 461.8 625.731 459.664L623.331 458.776C622.611 460.024 621.771 460.648 620.403 460.648C618.555 460.648 617.619 459.256 617.547 457.912H625.875V456.688ZM620.235 453.256C621.819 453.256 622.563 454.36 622.827 455.56H617.619C617.835 454.408 618.723 453.256 620.235 453.256ZM637.014 458.656C636.39 459.928 635.526 460.648 634.182 460.648C632.31 460.648 631.398 459.088 631.398 456.952C631.398 454.816 632.31 453.256 634.182 453.256C635.526 453.256 636.39 453.976 637.014 455.248L639.678 454.168C638.766 451.888 636.87 450.712 634.182 450.712C630.246 450.712 628.278 453.544 628.278 456.952C628.278 460.36 630.246 463.192 634.182 463.192C636.87 463.192 638.766 462.016 639.678 459.736L637.014 458.656ZM652.97 446.2L648.05 449.08V452.344L651.266 450.424V463H654.29V446.2H652.97ZM657.255 466.744H659.343L663.063 459.496H659.055L657.255 466.744ZM672.095 463H682.775V460.216H676.871L680.975 454.864C681.983 453.544 682.415 452.224 682.415 450.88C682.415 448.048 680.591 446.008 677.399 446.008C674.591 446.008 672.527 447.928 672.359 450.472L675.143 451C675.335 449.584 676.127 448.792 677.327 448.792C678.695 448.792 679.391 449.632 679.391 451C679.391 451.96 679.103 452.776 678.095 454.048L672.095 461.8V463ZM691.996 446.008C687.988 446.008 685.804 449.224 685.804 454.6C685.804 459.976 687.988 463.192 691.996 463.192C696.004 463.192 698.188 459.976 698.188 454.6C698.188 449.224 696.004 446.008 691.996 446.008ZM691.996 448.792C694.204 448.792 695.212 450.856 695.212 454.6C695.212 458.344 694.204 460.408 691.996 460.408C689.788 460.408 688.78 458.344 688.78 454.6C688.78 450.856 689.788 448.792 691.996 448.792ZM705.423 446.2L700.503 449.08V452.344L703.719 450.424V463H706.743V446.2H705.423ZM715.796 446.008C712.94 446.008 710.972 448.096 710.972 450.592C710.972 451.96 711.524 453.16 712.532 453.952C711.164 454.72 710.324 456.088 710.324 457.984C710.324 461.248 712.868 463.192 715.796 463.192C718.724 463.192 721.268 461.248 721.268 457.984C721.268 456.088 720.404 454.72 719.036 453.952C720.044 453.16 720.62 451.96 720.62 450.592C720.62 448.096 718.652 446.008 715.796 446.008ZM715.796 455.56C717.164 455.56 718.244 456.424 718.244 457.984C718.244 459.544 717.164 460.408 715.796 460.408C714.428 460.408 713.348 459.544 713.348 457.984C713.348 456.424 714.428 455.56 715.796 455.56ZM715.796 448.552C717.02 448.552 717.812 449.392 717.812 450.64C717.812 451.912 717.02 452.776 715.796 452.776C714.572 452.776 713.78 451.912 713.78 450.64C713.78 449.392 714.572 448.552 715.796 448.552ZM723.091 466.744H725.179L728.899 459.496H724.891L723.091 466.744ZM743.907 456.952L740.259 463.192H743.619L748.515 454.432C748.995 453.592 749.331 452.488 749.331 451.48C749.331 448.336 746.883 446.008 743.715 446.008C740.499 446.008 738.099 448.36 738.099 451.48C738.099 454.744 740.451 456.952 743.523 456.952H743.907ZM743.715 454.168C742.275 454.168 741.123 453.208 741.123 451.48C741.123 449.848 742.275 448.792 743.715 448.792C745.131 448.792 746.307 449.848 746.307 451.48C746.307 453.208 745.155 454.168 743.715 454.168ZM760.658 463H764.018L758.33 446.2H755.21L749.522 463H752.882L754.106 459.04H759.434L760.658 463ZM756.77 450.328L758.546 456.16H754.994L756.77 450.328ZM766.305 463H769.425V452.632L772.641 461.464H774.897L778.113 452.632V463H781.233V446.2H777.729L773.769 456.688L769.809 446.2H766.305V463ZM784.947 456.688H793.899V454.096H784.947V456.688ZM802.969 456.952L799.321 463.192H802.681L807.577 454.432C808.057 453.592 808.393 452.488 808.393 451.48C808.393 448.336 805.945 446.008 802.777 446.008C799.561 446.008 797.161 448.36 797.161 451.48C797.161 454.744 799.513 456.952 802.585 456.952H802.969ZM802.777 454.168C801.337 454.168 800.185 453.208 800.185 451.48C800.185 449.848 801.337 448.792 802.777 448.792C804.193 448.792 805.369 449.848 805.369 451.48C805.369 453.208 804.217 454.168 802.777 454.168ZM818.18 456.424C821.732 456.424 823.436 454.24 823.436 451.312C823.436 448.384 821.732 446.2 818.18 446.2H811.844V463H814.964V456.424H818.18ZM818.06 453.544H814.964V449.08H818.06C819.428 449.08 820.268 449.776 820.268 451.312C820.268 452.848 819.428 453.544 818.06 453.544ZM826.047 463H829.167V452.632L832.383 461.464H834.639L837.855 452.632V463H840.975V446.2H837.471L833.511 456.688L829.551 446.2H826.047V463ZM682.639 493C686.599 493 690.463 490.48 690.463 484.6C690.463 478.72 686.599 476.2 682.639 476.2H677.383V493H682.639ZM680.503 490.12V479.08H681.655C684.343 479.08 687.295 480.136 687.295 484.6C687.295 489.064 684.343 490.12 681.655 490.12H680.503ZM693.765 493H696.885V482.632L700.101 491.464H702.357L705.573 482.632V493H708.693V476.2H705.189L701.229 486.688L697.269 476.2H693.765V493ZM718.453 486.424C722.005 486.424 723.709 484.24 723.709 481.312C723.709 478.384 722.005 476.2 718.453 476.2H712.117V493H715.237V486.424H718.453ZM718.333 483.544H715.237V479.08H718.333C719.701 479.08 720.541 479.776 720.541 481.312C720.541 482.848 719.701 483.544 718.333 483.544ZM736.665 476.2L731.745 479.08V482.344L734.961 480.424V493H737.985V476.2H736.665ZM746.04 476.2L741.12 479.08V482.344L744.336 480.424V493H747.36V476.2H746.04ZM757.106 476.008C753.098 476.008 750.914 479.224 750.914 484.6C750.914 489.976 753.098 493.192 757.106 493.192C761.114 493.192 763.298 489.976 763.298 484.6C763.298 479.224 761.114 476.008 757.106 476.008ZM757.106 478.792C759.314 478.792 760.322 480.856 760.322 484.6C760.322 488.344 759.314 490.408 757.106 490.408C754.898 490.408 753.89 488.344 753.89 484.6C753.89 480.856 754.898 478.792 757.106 478.792Z" fill="white"/>
<path d="M562.846 792.727C564.377 790.169 567.216 788.588 570.294 788.579L865.849 787.776C867.975 787.771 870.028 788.518 871.614 789.876L894.225 809.238C896.583 811.258 895.092 815 891.928 815H555.464C552.817 815 551.158 812.258 552.475 810.057L562.846 792.727Z" fill="white"/>
<path d="M873.283 798.771C873.283 800.216 869.097 801.388 863.934 801.388C858.771 801.388 854.585 800.216 854.585 798.771C854.585 797.325 858.771 796.283 863.934 796.283C869.097 796.283 873.283 797.325 873.283 798.771Z" fill="#C1D4F5"/>
<path d="M844.782 792.339H577.07L569.623 807.807L854.882 808.194L844.782 792.339Z" fill="url(#paint2_linear)" fill-opacity="0.5"/>
<g filter="url(#filter0_f)">
<path d="M888.581 729.927H531.615L574.101 796.284H847.41L888.581 729.927Z" fill="url(#paint3_linear)"/>
</g>
<path d="M376.93 752.046L539.184 624.436H881.52L1061.96 752.046H376.93Z" fill="url(#paint4_linear)"/>
<rect x="754.294" y="607.42" width="6.79935" height="23.8207" fill="#857895"/>
<rect x="759.394" y="610.823" width="98.5906" height="18.7162" fill="#ABB8F9"/>
<path d="M754.294 607.42H852.289L857.867 610.823H759.42L754.294 607.42Z" fill="#8280DC"/>
<path d="M515.612 663.333C520.482 664.583 525.375 661.906 526.541 657.355C527.706 652.803 524.702 648.101 519.832 646.851L493.328 640.052C486.349 638.262 476.829 638.322 475.338 644.886C474.057 650.525 481.419 654.562 487.413 656.099L515.612 663.333Z" fill="#735BA5"/>
<path d="M520.064 511.98C516.012 506.951 507.686 504.818 504.268 505.783C496.707 505.555 490.28 504.631 483.762 511.579C474.282 521.683 476.959 534.194 470.751 551.268C467.812 559.354 459.072 557.417 456.74 567.356C454.784 575.692 457.435 577.723 461.612 583.754C465.789 589.785 457.537 592.233 454.555 599.69C451.572 607.149 459.528 614.679 463.76 615.797C472.328 618.062 468.349 636.632 469.52 632.452C470.691 628.27 487.799 628.067 487.42 622.413C486.978 615.816 488.663 610.653 493.575 610.323C498.486 609.993 501.616 604.734 505.402 596.275C509.188 587.816 511.339 606.921 518.074 612.149C524.809 617.376 526.931 614.394 532.164 623.194C536.351 630.234 545.431 630.612 549.447 629.922C546.98 626.301 543.297 617.839 548.31 612.958C554.575 606.857 558.063 606.938 557.495 598.456C557.008 591.203 550.69 587.868 546.519 586.255C542.348 584.642 542.4 576.749 545.403 569.605C548.406 562.461 541.024 551.912 535.987 550.357C531.73 549.043 530.139 545.385 529.965 538.454C529.79 531.523 525.129 518.267 520.064 511.98Z" fill="#735BA5"/>
<path d="M454.932 619.543C457.236 626.618 456.767 633.434 456.096 640.438C455.626 645.343 444.299 644.962 446.827 629.901C447.94 623.273 448.206 621.266 454.932 619.543L454.932 619.543Z" fill="#DBE5F5"/>
<path d="M439.824 653.36C435.13 653.36 431.325 647.647 431.325 640.599C431.325 633.551 435.13 627.838 439.824 627.838C444.518 627.838 448.323 633.551 448.323 640.599C448.323 647.647 444.518 653.36 439.824 653.36Z" fill="#FF8C73"/>
<path d="M460.224 638.898C460.224 646.886 459.941 653.361 465.484 653.361C471.027 653.361 475.521 646.886 475.521 638.898C475.521 630.911 471.027 624.436 465.484 624.436C459.941 624.436 460.224 630.911 460.224 638.898Z" fill="#FF8C73"/>
<path d="M500.227 598.522L476.398 610.676C476.398 610.676 509.649 660.492 517.827 663.909C526.006 667.326 534.397 662.14 534.283 653.702C534.168 645.264 513.527 620.071 500.227 598.522Z" fill="#8280DC"/>
<path d="M444.105 633.104C436.517 629.398 435.814 637.326 436.828 642.006L447.34 648.046C449.74 647.38 452.082 644.239 452.627 639.903L444.105 633.104Z" fill="#DBE5F5"/>
<path d="M485.905 607.282C478.587 609.69 468.253 602.174 462.214 614.845C456.174 627.515 475.849 669.022 482.163 673.571C488.477 678.121 501.599 675.135 501.091 665.367L485.905 607.282Z" fill="#8280DC"/>
<path d="M451.997 635.799C444.954 640.64 443.261 644.221 444.118 652.102L484.02 674.629C495.211 676.684 499.242 667.559 497.446 658.1L451.997 635.799Z" fill="#8280DC"/>
<path d="M532.708 526.096C532.563 518.463 535.352 512.228 538.424 505.898C540.575 501.466 552.786 506.533 544.999 519.692C541.571 525.483 540.61 527.266 532.709 526.097L532.708 526.096Z" fill="#DBE5F5"/>
<path fill-rule="evenodd" clip-rule="evenodd" d="M509.827 572.972C525.644 563.918 538.512 543.152 544.841 521.937C547.667 512.464 533.535 511.525 532.476 517.953C531.017 526.803 520.269 546.657 505.037 558.708C501.381 554.492 495.958 551.728 489.848 551.412C486.435 551.235 483.153 551.839 480.182 553.068C453.816 555.374 450.622 594.24 448.332 624.821C447.969 629.66 459.273 636.279 460.009 625.173C460.86 612.328 461.876 600.53 464.567 590.168C464.38 592.721 464.236 595.309 464.141 598.055C463.707 610.589 474.83 620.231 487.435 619.218L490.675 618.958C503.765 617.905 510.512 603.99 509.229 591.029C508.711 585.799 509.144 580.84 509.688 574.596L509.801 573.309C509.81 573.196 509.819 573.084 509.827 572.972Z" fill="#0C2264"/>
<path d="M506.118 556.376C494.852 556.376 485.72 546.854 485.72 535.107C485.72 523.361 494.852 513.839 506.118 513.839C517.383 513.839 526.516 523.361 526.516 535.107C526.516 546.854 517.383 556.376 506.118 556.376Z" fill="#DBE5F5"/>
<path d="M475.521 525.749H529.915" stroke="#C2C2E1" stroke-width="4"/>
<path d="M529.916 527.45H490.819C490.819 530.029 491.869 536.55 494.312 539.128C496.756 541.707 506.53 541.707 508.973 539.128C511.417 536.55 511.799 534.117 515.255 537.764C516.069 539.483 518.675 540.342 522.585 540.342C526.495 540.342 529.101 537.764 529.916 535.185V527.45Z" fill="url(#paint5_linear)" fill-opacity="0.8"/>
<path d="M510.028 553.91C510.028 553.91 508.742 543.764 501.046 546.153C493.35 548.543 490.477 552.143 487.484 561.886L500.848 567.624C502.709 557.977 501.149 556.4 510.028 553.91Z" fill="#DBE5F5"/>
<path d="M475.52 560.773C475.52 566.372 481.51 576.794 487.699 576.794C493.889 576.794 502.718 571.078 502.718 565.479C502.718 559.88 493.889 556.517 487.699 556.517C481.51 556.517 475.52 555.173 475.52 560.773Z" fill="#DBE5F5"/>
<path fill-rule="evenodd" clip-rule="evenodd" d="M708.724 624.436H725.454L743.116 682.169L683.785 721.988L708.724 624.436ZM679.613 738.309L676.102 752.046H764.493L746.487 693.188L679.613 738.309Z" fill="#DBF2F5"/>
<path d="M684.601 609.29L691.4 597.212L690.55 640.798L684.601 658.465V609.29Z" fill="#ABB8F9"/>
<rect x="640.404" y="602.315" width="13.5987" height="30.6266" fill="#735BA5"/>
<rect x="648.903" y="609.121" width="35.6966" height="47.6413" fill="#DBE5F5"/>
<path d="M633.639 609.164L640.472 602.293V650.112L633.639 655.38V609.164Z" fill="#8280DC"/>
<rect x="580.91" y="609.121" width="52.695" height="54.4472" fill="#DBE5F5"/>
<path d="M592.081 597.212H645.51L633.848 609.122H580.91L592.081 597.212Z" fill="#ABB8F9"/>
<path d="M643.267 597.212H691.605L688.828 602.316H640.404L643.267 597.212Z" fill="#ABB8F9"/>
<path d="M654.275 600.614L689.699 601.764L686.246 609.122H648.903L654.275 600.614Z" fill="#ABB8F9"/>
<rect x="586.01" y="621.032" width="44.1958" height="5.10443" fill="#91E9EE"/>
<rect x="586.01" y="612.524" width="44.1958" height="5.10443" fill="#91E9EE"/>
<rect x="586.01" y="627.838" width="44.1958" height="5.10443" fill="#91E9EE"/>
<rect x="650.604" y="621.032" width="32.2969" height="5.10443" fill="#91E9EE"/>
<rect x="650.604" y="612.524" width="32.2969" height="5.10443" fill="#91E9EE"/>
<rect x="650.604" y="626.136" width="32.2969" height="5.10443" fill="#91E9EE"/>
<rect x="650.604" y="643.151" width="32.2969" height="5.10443" fill="#91E9EE"/>
<rect x="650.604" y="634.644" width="32.2969" height="5.10443" fill="#91E9EE"/>
<rect x="650.604" y="649.957" width="32.2969" height="5.10443" fill="#91E9EE"/>
<rect x="586.01" y="646.554" width="44.1958" height="5.10443" fill="#CDDCF4"/>
<rect x="586.01" y="636.345" width="44.1958" height="5.10443" fill="#CDDCF4"/>
<rect x="586.01" y="653.359" width="44.1958" height="5.10443" fill="#CDDCF4"/>
<path d="M600.813 631.241H671.002L667.278 639.749H594.51L600.813 631.241Z" fill="#ABB8F9"/>
<path d="M656.826 626.123L658.932 624.593L658.932 633.8L656.826 636.301L656.826 626.123Z" fill="#735BA5"/>
<rect x="611.508" y="626.088" width="45.339" height="10.2566" fill="#D1EDFF"/>
<path d="M613.859 624.596H658.931L656.852 626.137H611.508L613.859 624.596Z" fill="#8280DC"/>
<path d="M666.9 639.601L670.887 631.27L670.887 678.698L666.9 683.981L666.9 639.601Z" fill="#8280DC"/>
<rect x="594.51" y="639.748" width="72.3849" height="44.2384" fill="#D1EDFF"/>
<rect x="840.986" y="632.02" width="35.6672" height="28.1456" fill="#735BA5"/>
<path d="M825.688 625.495L861.721 624.436L876.683 632.14L838.826 633.771L825.688 625.495Z" fill="#D1EDFF"/>
<path fill-rule="evenodd" clip-rule="evenodd" d="M859.461 645.776L830.399 625.242H808.359L853.895 659.632L872.223 655.055L908.979 653.224L894.138 644.853L859.461 645.776Z" fill="#D1EDFF"/>
<path d="M808.414 625.371L854.585 655.8V694.194L808.414 657.514V625.371Z" fill="#8280DC"/>
<rect x="752.594" y="569.988" width="49.2953" height="73.1634" fill="#D1EDFF"/>
<path d="M766.193 576.794H767.893V590.406H766.193V576.794Z" fill="#91E9EE"/>
<path d="M771.293 583.6H772.993V597.211H771.293V583.6Z" fill="#FF8C73"/>
<path d="M744.095 575.44L752.594 569.988V643.152L744.095 635.07L744.095 575.44Z" fill="#91E9EE"/>
<path d="M755.994 578.495H757.694V592.107H755.994V578.495Z" fill="#06C1C0"/>
<path d="M759.394 585.301H761.093V598.913H759.394V585.301Z" fill="#735BA5"/>
<path d="M778.093 595.51H779.793V609.122H778.093V595.51Z" fill="#91E9EE"/>
<path d="M781.492 598.912H783.192V612.524H781.492V598.912Z" fill="#E16161"/>
<path d="M767.893 595.51H769.592V609.122H767.893V595.51Z" fill="#06C1C0"/>
<path d="M771.293 602.315H772.993V615.927H771.293V602.315Z" fill="#735BA5"/>
<path d="M791.69 576.794H793.39V590.406H791.69V576.794Z" fill="#06C1C0"/>
<path d="M795.091 583.6H796.791V597.211H795.091V583.6Z" fill="#FBC28E"/>
<path d="M781.492 578.495H783.192V592.107H781.492V578.495Z" fill="#FBC28E"/>
<path d="M784.892 585.301H786.591V598.913H784.892V585.301Z" fill="#735BA5"/>
<rect x="761.093" y="622.733" width="28.8972" height="5.10443" fill="#C2C2E1"/>
<path d="M772.435 619.333L790.463 619.794C792.321 619.841 794.111 620.474 795.554 621.595L800.425 625.377C807.463 630.841 801.777 641.63 793.002 639.465L769.736 633.722C761.356 630.989 763.584 619.107 772.435 619.333Z" fill="#C2C2E1"/>
<path d="M766.345 623.779C767.166 615.488 775.89 620.768 776.298 623.779C776.705 626.791 778.092 663.568 778.092 663.568L768.303 654.057C768.303 654.057 765.524 632.071 766.345 623.779Z" fill="#735BA5"/>
<path d="M761.341 620.179L790.826 640.102L791.018 654.813L761.295 627.281L761.341 620.179Z" fill="#735BA5"/>
<path d="M766.193 629.539L770.366 632.294L771.293 655.061H766.193V629.539Z" fill="#ABB8F9"/>
<path d="M766.193 629.539L770.366 632.294L771.293 655.061H766.193V629.539Z" fill="#ABB8F9"/>
<path d="M769.593 638.047L784.891 651.01V675.479L769.593 657.492V638.047Z" fill="#ABB8F9"/>
<path d="M783.191 648.256L786.591 650.552V675.479L783.191 671.872V648.256Z" fill="#735BA5"/>
<path d="M778.093 644.853L781.492 647.227V670.375L778.093 667.024V644.853Z" fill="#735BA5"/>
<path d="M772.992 639.748L776.392 642.306L776.03 663.569L772.992 660.412V639.748Z" fill="#735BA5"/>
<path d="M769.593 638.047L771.293 639.294V658.465L769.593 657.535V638.047Z" fill="#735BA5"/>
<path d="M771.293 638.047L772.993 639.493V644.853L771.293 643.321V638.047Z" fill="#D1EDFF"/>
<path d="M776.393 643.151L778.092 644.598V649.957L776.393 648.001V643.151Z" fill="#D1EDFF"/>
<path d="M781.492 646.554L783.192 648.117V653.36L781.492 651.796V646.554Z" fill="#D1EDFF"/>
<path d="M754.294 624.436L766.193 635.631V656.764L754.294 641.229V624.436Z" fill="#ABB8F9"/>
<path d="M762.793 632.942L766.193 634.808V655.062L762.793 652.13V632.942Z" fill="#735BA5"/>
<path d="M759.394 629.539L761.093 631.439V649.957L759.394 647.276V629.539Z" fill="#735BA5"/>
<path d="M755.994 626.136L759.394 628.328L759.032 646.553L755.994 643.847V626.136Z" fill="#735BA5"/>
<path d="M754.294 624.436L755.994 625.475V641.45L754.294 640.676V624.436Z" fill="#735BA5"/>
<path d="M754.294 626.136L755.994 627.22V631.24L754.294 630.092V626.136Z" fill="#D1EDFF"/>
<path d="M757.693 629.539L759.393 630.624V634.643L757.693 633.176V629.539Z" fill="#D1EDFF"/>
<path d="M761.093 632.942L762.793 634.115V638.047L761.093 636.874V632.942Z" fill="#D1EDFF"/>
<rect x="786.592" y="648.256" width="33.9968" height="3.40295" fill="#DBE5F5"/>
<path d="M761.017 624.354L770.438 632.386L766.021 634.639L755.047 624.355L761.017 624.354Z" fill="#D1EDFF"/>
<path d="M776.158 637.491L790.771 648.727L787.416 651.102L770.511 637.577L776.158 637.491Z" fill="#D1EDFF"/>
<rect x="784.892" y="648.256" width="35.6966" height="28.9251" fill="#D1EDFF"/>
<rect x="789.991" y="648.256" width="11.8989" height="25.5221" fill="#8280DC"/>
<rect x="806.989" y="648.256" width="11.8989" height="25.5221" fill="#8280DC"/>
<path d="M776.312 631.597L803.926 633.108L820.666 641.095L789.029 641.07L776.312 631.597Z" fill="#C2C2E1"/>
<rect x="788.882" y="640.947" width="31.7055" height="7.3083" fill="#735BA5"/>
<path d="M761.839 675.196L786.458 706.211L786.458 721.6L761.839 688.13L761.839 675.196Z" fill="#8280DC"/>
<rect x="786.468" y="704.404" width="86.8145" height="17.1802" fill="#735BA5"/>
<rect x="791.69" y="709.509" width="78.1925" height="5.10443" fill="#ABB8F9"/>
<rect x="791.69" y="712.912" width="78.1925" height="5.10443" fill="#ABB8F9"/>
<path d="M1026.82 683.549C1022.67 700.535 1031.42 695.26 1031.15 699.035C1066.46 703.749 1068.48 688.879 1080.88 652.904C1081.02 640.701 1067.75 638.18 1064.17 642.305C1052.03 683.786 1057.65 675.679 1026.82 683.549Z" fill="#735BA5"/>
<path d="M1041.47 687.633C1029 698.29 1038.27 726.242 1035.89 729.065C1076.45 728.251 1104.01 722.648 1113.57 674.727C1117.07 657.179 1101.96 646.602 1096.68 664.093C1092.5 715.384 1060.71 698.462 1041.47 687.633Z" fill="#8280DC"/>
<path d="M1014.94 693.872C1015.82 687.162 1019.5 680.773 1026.05 681.766C1035.45 683.196 1049.5 689.509 1063.53 696.415C1079.46 704.251 1076.67 719.161 1058.97 720.472C1054.98 720.767 1051.23 722.456 1047.93 724.802C1046.85 725.574 1045.82 726.237 1044.83 726.804C1028.67 736.069 1012.47 712.582 1014.94 693.872Z" fill="#8280DC"/>
<path d="M944.405 671.393L957.063 664.12C956.059 675.488 960.158 674.832 967.518 684.103C966.467 691.988 963.611 693.467 954.859 691.376C948.335 684.044 943.198 684.243 944.405 671.393Z" fill="#FFDBBA"/>
<path d="M1060.98 634.932C1069.34 630.546 1074.09 627.443 1078.22 622.777C1082.21 618.27 1089.47 617.834 1093.12 622.766C1094.75 624.967 1095.29 627.818 1094.31 630.33C1090.24 640.789 1084.07 645.59 1070.92 651.281C1056.18 657.662 1049.98 640.706 1060.98 634.932Z" fill="#F3CECA"/>
<path d="M1059.79 632.719C1067.26 629.022 1071.65 626.31 1075.32 622.347C1079.37 617.965 1086.58 617.426 1090.3 622.329C1091.92 624.465 1092.52 627.229 1091.64 629.692C1088.12 639.507 1082.36 643.87 1069.97 648.819C1056.03 654.389 1049.42 637.849 1059.79 632.719Z" fill="#FF8C73"/>
<path d="M1105.43 650.941C1113.18 652.016 1118.2 652.262 1123.08 651.21C1129.42 649.843 1136.37 653.378 1136.92 659.974C1137.15 662.757 1136.17 665.54 1134.02 667.257C1125.84 673.805 1118.62 674.242 1105.5 671.293C1090.68 667.959 1093.88 649.339 1105.43 650.941Z" fill="#F3CECA"/>
<path d="M1106.13 649.088C1112.78 650.207 1117.24 650.573 1121.43 649.847C1127.73 648.754 1134.68 652.149 1135.3 658.76C1135.55 661.461 1134.68 664.177 1132.68 665.891C1125.28 672.22 1118.64 672.52 1106.55 669.365C1092.84 665.789 1095.47 647.293 1106.13 649.088Z" fill="#FF8C73"/>
<rect x="592.81" y="559.779" width="13.5987" height="153.107" fill="#735BA5"/>
<path d="M578.475 559.779H596.77L599.609 566.585H569.012L578.475 559.779Z" fill="#735BA5"/>
<rect x="569.012" y="566.585" width="30.5971" height="146.327" fill="#8280DC"/>
<path d="M596.209 583.129C596.209 589.027 591.262 593.808 585.16 593.808C579.058 593.808 574.111 589.027 574.111 583.129C574.111 577.232 579.058 571.688 585.16 571.688C591.262 571.688 596.209 577.232 596.209 583.129Z" fill="#F2F2F2"/>
<rect x="584.31" y="590.405" width="1.69984" height="1.70148" fill="#C2C2E1"/>
<path d="M584.31 573.391H585.684V575.092H584.31V573.391Z" fill="#C2C2E1"/>
<path d="M575.811 581.897V583.514H577.51V581.897H575.811Z" fill="#C2C2E1"/>
<path d="M592.81 583.538V581.897H594.509V583.538H592.81Z" fill="#C2C2E1"/>
<path d="M705.926 630.802H728.178L740.695 673.778H738.185H694.8L705.926 630.802Z" fill="#D8D8D8"/>
<path d="M705.923 630.338H728.067L738.231 673.778H697.578L705.923 630.338Z" fill="#F0FFFD"/>
<path d="M709.292 635.057L713.309 635.532L708.516 668.771L704.472 668.905L709.292 635.057Z" fill="#FF8C73"/>
<path d="M725.396 635.083L724.673 639.02L709.051 639.156L709.293 635.1L725.396 635.083Z" fill="#FF8C73"/>
<rect width="3.80436" height="13.7251" transform="matrix(0.00796414 0.999968 -0.999968 0.00797949 722.685 649.023)" fill="#FF8C73"/>
<path d="M730.63 664.944L731.837 668.977L704.462 668.959L705.311 664.892L730.63 664.944Z" fill="#FF8C73"/>
<path d="M710.801 627.838H724.125L727.626 630.341H706.596L710.801 627.838Z" fill="#FF8C73"/>
<path d="M274.342 725.377C276.521 735 282.74 741.79 288.234 740.544C293.727 739.298 296.414 730.487 294.235 720.864C292.056 711.241 285.837 704.451 280.343 705.697C274.85 706.943 272.163 715.754 274.342 725.377Z" fill="#F3CECA"/>
<path d="M291.73 740.133C298.3 740.31 303.717 737.027 303.831 732.8C303.945 728.572 298.712 725.002 292.143 724.825C285.573 724.648 280.156 727.931 280.042 732.158C279.928 736.385 285.161 739.955 291.73 740.133Z" fill="#F3CECA"/>
<path d="M504.436 708.144C504.414 705.327 506.438 702.843 509.369 702.092L519.479 699.5C524.58 698.192 529.661 701.605 529.905 706.504C530.126 710.947 526.23 714.639 521.435 714.531L510.957 714.294C507.347 714.213 504.463 711.493 504.436 708.144Z" fill="#857895"/>
<path d="M506.641 711.103C507.061 710.303 508.103 709.971 509.116 710.316L516.967 712.99C518.681 713.574 519.65 715.322 519.035 716.724C518.44 718.083 516.608 718.533 515.055 717.7L507.714 713.769C506.644 713.196 506.165 712.008 506.641 711.103Z" fill="#857895"/>
<path d="M277.741 723.675C279.92 733.298 286.14 740.088 291.633 738.842C297.126 737.596 299.813 728.785 297.635 719.162C295.456 709.539 289.236 702.749 283.743 703.995C278.249 705.241 275.562 714.052 277.741 723.675Z" fill="#FF8C73"/>
<path d="M295.033 716.497C285.801 718.202 279.214 724.453 280.321 730.46C281.428 736.466 289.809 739.954 299.041 738.249C308.274 736.545 314.86 730.294 313.754 724.287C312.647 718.28 304.265 714.793 295.033 716.497Z" fill="#FF8C73"/>
<path d="M289.022 707.325C291.349 706.287 297.368 709.524 301.742 712.23C304.504 713.939 304.712 717.998 302.319 720.956C299.505 724.435 294.917 725.586 291.765 723.437C287.881 720.79 283.354 717.334 283.016 715.397C282.417 711.962 285.189 709.037 289.022 707.325Z" fill="#282A4B"/>
<path d="M298.45 709.334C306.317 709.729 342.472 736.17 359.482 748.922C364.388 752.6 365.311 759.467 361.589 764.095C356.896 769.932 348.318 770.956 342.101 766.359C325.175 753.843 294.396 730.556 289.584 723.233C282.89 713.045 288.077 708.813 298.45 709.334Z" fill="#735BA5"/>
<path d="M342.078 698.81C342.531 692.334 348.106 687.328 354.788 687.396C363.887 687.49 371.021 695.024 370.357 703.838L366.423 756.059C365.342 770.405 346.695 775.993 337.467 764.737L342.078 698.81Z" fill="#735BA5"/>
<path d="M410.163 765.362C414.335 764.296 418.551 767.439 419.096 772.022L420.688 785.404C421.304 790.578 418.094 795.254 413.314 796.146C406.623 797.394 400.737 790.794 402.273 783.765L405.111 770.778C405.699 768.087 407.639 766.006 410.163 765.362Z" fill="#8280DC"/>
<path d="M236.945 744.093C239.124 753.716 245.344 760.506 250.837 759.26C256.331 758.014 259.018 749.203 256.839 739.58C254.66 729.957 248.44 723.167 242.947 724.413C237.453 725.659 234.766 734.47 236.945 744.093Z" fill="#F3CECA"/>
<path d="M250.934 758.849C257.504 759.027 262.921 755.744 263.035 751.516C263.149 747.289 257.916 743.719 251.347 743.542C244.778 743.364 239.36 746.647 239.246 750.875C239.132 755.102 244.365 758.672 250.934 758.849Z" fill="#F3CECA"/>
<path d="M238.644 744.093C240.823 753.716 247.043 760.506 252.536 759.26C258.03 758.014 260.717 749.203 258.538 739.58C256.359 729.957 250.139 723.167 244.646 724.413C239.153 725.659 236.466 734.47 238.644 744.093Z" fill="#FF8C73"/>
<path d="M254.335 758.849C260.904 759.027 266.322 755.744 266.436 751.516C266.549 747.289 261.316 743.719 254.747 743.542C248.178 743.364 242.76 746.647 242.646 750.875C242.533 755.102 247.766 758.672 254.335 758.849Z" fill="#FF8C73"/>
<rect width="34.018" height="13.6033" transform="matrix(0.591378 0.806394 -0.805851 0.592119 402.949 744.512)" fill="#8280DC"/>
<path d="M416.545 768.034C417.518 767.354 418.752 767.368 419.451 768.067L426.888 775.509C428.055 776.676 427.725 778.727 426.173 779.96C424.619 781.192 422.501 781.082 421.578 779.72L415.698 771.042C415.084 770.135 415.462 768.791 416.545 768.034Z" fill="#8280DC"/>
<path d="M489.255 690.792L521.198 702.439L515.286 713.368L484.019 705.18L489.255 690.792Z" fill="#8280DC"/>
<path d="M378.859 680.062L402.392 675.928C398.251 714.308 395.81 730.684 416.158 757.239C412.577 765.099 409.897 768.386 398.139 763.91C379.701 734.717 375.819 716.25 378.859 680.062Z" fill="#FF8C73"/>
<path d="M417.251 669.068L411.958 692.651C449.024 698.058 458.108 703.058 489.517 709.171C497.288 705.817 500.604 703.223 496.946 691.227C463.079 680.936 451.506 675.857 417.251 669.068Z" fill="#FF8C73"/>
<path d="M249.611 732.68C251.561 731.062 258.157 732.53 263.088 733.95C266.258 734.863 267.589 738.739 266.076 742.238C264.3 746.346 260.157 748.678 256.494 747.438C252.06 745.937 246.833 743.842 245.992 742.078C244.492 738.93 246.377 735.363 249.611 732.68Z" fill="#282A4B"/>
<path d="M315.142 706.303C315.971 693.049 323.684 681.205 335.455 675.113C351.62 666.747 370.683 671.037 368.998 689.194C366.902 711.79 355.592 742.482 345.921 766.606C340.309 780.606 319.509 782.809 311.143 770.271L315.142 706.303Z" fill="#8280DC"/>
<path d="M327.096 702.796C321.712 693.164 322.047 680.795 330.591 674.079C351.185 657.892 379.918 656.238 408.461 663.795C425.153 668.215 428.112 679.31 426.665 689.669C424.658 704.039 409.492 710.396 395.169 710.054C387.075 709.861 381.233 710.2 376.58 711.348C357.578 716.034 336.814 720.18 327.096 702.796Z" fill="#FF8C73"/>
<path d="M403.12 706.048C417.643 706.958 430.247 694.39 431.273 677.978C432.299 661.565 421.358 647.522 406.835 646.613C392.312 645.703 379.707 658.271 378.681 674.684C377.655 691.096 388.597 705.139 403.12 706.048Z" fill="#8280DC"/>
<path d="M259.562 733.569C267.228 731.531 308.05 746.774 327.596 754.367C333.344 756.6 335.969 763.286 333.451 769.11C330.281 776.444 322.109 780.09 314.85 777.327C295.487 769.955 260.581 756.175 254.243 750.324C245.382 742.144 249.408 736.269 259.562 733.569Z" fill="#8280DC"/>
<path d="M431.09 670.489C425.387 677.279 410.311 672.166 403.486 668.76C401.948 667.567 397.866 665.775 393.847 668.157C388.822 671.133 399.133 675.07 397.876 681.104C396.619 687.138 387.795 701.631 380.436 685.654C373.077 669.677 382.66 657.112 392.477 647.853C402.293 638.594 417.949 641.455 425.982 646.66C431.24 646.989 426.567 637.293 426.743 634.483C427.382 624.254 433.169 637.236 438.543 642.745C443.917 648.254 438.219 662.002 431.09 670.489Z" fill="#0C2264"/>
<path d="M505.871 707.968L536.714 707.807L499.956 746.941H463.621L505.871 707.968Z" fill="#FFEFE7"/>
<path d="M505.871 707.968L536.714 707.807L499.956 746.941H463.621L505.871 707.968Z" fill="#FFEFE7"/>
<path d="M513.368 711.21L531.616 711.21L498.842 745.239H478.921L513.368 711.21Z" fill="#8280DC"/>
<path d="M513.368 711.21L531.616 711.21L498.842 745.239H478.921L513.368 711.21Z" fill="#8280DC"/>
<path d="M489.119 703.931L526.128 672.076L536.459 708.025L499.872 746.941L489.119 703.931Z" fill="#FFEFE7"/>
<path d="M854.585 655.742L908.98 653.359V694.195H854.585V655.742Z" fill="#8280DC"/>
<rect width="10.5759" height="34.1739" transform="matrix(0.0167449 0.99986 -0.999859 0.0167772 910.669 682.001)" fill="#FF8C73"/>
<path d="M866.535 687.364L876.785 682.389L876.682 692.546L866.535 687.364Z" fill="#CDDCF4"/>
<path d="M942.524 702.537C951.262 712.453 959.388 706.57 943.055 713.756C915.251 732.389 909.737 711.083 888.388 690.136C884.335 682.968 890.83 680.532 894.97 682.902C915.427 703.025 920.389 722.483 942.524 702.537Z" fill="#FFDBBA"/>
<path d="M953.332 680.944L965.069 687.819L950.842 712.155C944.58 712.11 941.889 710.795 939.105 705.28L953.332 680.944Z" fill="#735BA5"/>
<path d="M1034.82 700.262C1031.79 715.166 1020.21 727.44 1004.91 727.72C974.827 728.272 945.646 717.618 943.632 689.589C943.51 687.892 943.932 686.194 944.711 684.682C948.078 678.152 957.172 677.345 964.164 679.743C981.208 685.59 1000.31 672.327 1018.21 671.2C1032.27 670.315 1037.62 686.54 1034.82 700.262Z" fill="#ABB8F9"/>
<path d="M973.341 666.089C970.552 679.782 953.516 690.051 941.558 687.61C929.599 685.17 927.247 670.945 930.036 657.252C932.824 643.559 944.779 634.437 956.737 636.877C968.696 639.317 976.129 652.396 973.341 666.089Z" fill="#FFDBBA"/>
<path d="M974.234 709.78C990.797 712.929 986.523 714.561 978.08 724.204C951.809 745.025 935.442 747.861 904.051 741.028C894.554 737.213 896.965 730.043 903.167 729.399C932.034 737.096 948.389 731.124 974.234 709.78Z" fill="#FFDBBA"/>
<path d="M982.23 697.618C991.078 698.357 992.633 701.293 993.594 707.871L975.915 727.502C969.42 725.587 966.783 723.493 964.552 717.249L982.23 697.618Z" fill="#735BA5"/>
<path d="M929.046 641.167C933.162 631.734 944.95 630.414 950.33 630.933C976.544 620.733 986.219 647.743 987.78 662.523L977.863 720.196L949.189 714.345C951.101 700.968 955.528 673.643 957.944 671.359C960.963 668.505 956.307 664.431 953.042 665.5C949.777 666.569 950.455 663.237 950.189 660.059C949.922 656.88 945.481 662.222 944.018 661.923L929.389 658.938C926.17 658.281 923.902 652.959 929.046 641.167Z" fill="#FF8C73"/>
<path d="M761.872 675.203L832.178 671.024L873.25 704.418L786.465 706.191L761.872 675.203Z" fill="#ABB8F9"/>
<path d="M453.077 365.239C450.543 365.069 348.335 371.484 154.131 371.893C143.849 366.775 144.743 345.279 154.131 334.02C169.332 315.789 187.214 328.39 198.391 337.09C192.877 331.46 182.7 295.148 204.202 271.579C225.214 248.548 263.96 262.025 270.815 280.28C271.709 268.167 265.539 224.698 299.874 219.375C334.208 214.053 357.098 260.319 347.262 280.28C352.627 271.92 364.981 251.621 387.498 267.485C410.745 283.863 395.694 312.865 387.498 319.689C390.925 316.959 404.129 313.957 429.522 323.783C454.915 333.61 463.657 355.515 453.077 365.239Z" fill="url(#paint6_linear)"/>
<path d="M1364.83 503.598C1362.03 503.432 1248.88 509.652 1033.89 510.049C1022.51 505.087 1023.5 484.246 1033.89 473.33C1050.72 455.655 1070.51 467.872 1082.89 476.307C1076.78 470.849 1065.52 435.643 1089.32 412.793C1112.58 390.464 1155.47 403.531 1163.06 421.228C1164.05 409.485 1157.22 367.341 1195.23 362.181C1233.24 357.02 1258.58 401.877 1247.69 421.228C1253.63 413.124 1267.31 393.444 1292.23 408.824C1317.97 424.702 1301.31 452.82 1292.23 459.436C1296.03 456.789 1310.64 453.878 1338.76 463.405C1366.87 472.933 1376.54 494.17 1364.83 503.598Z" fill="url(#paint7_linear)"/>
<path opacity="0.6" d="M1010.52 199.859C1203.01 181.767 1486.36 380.899 1466.34 656.394" stroke="url(#paint8_diamond)" stroke-opacity="0.7" stroke-width="9"/>
<path d="M1203.41 260.878C1200.42 257.672 1189.05 236.976 1165.75 211.968L1227.18 218.089L1196.87 228.181L1203.41 260.878Z" fill="white"/>
<defs>
<filter id="filter0_f" x="519.615" y="717.927" width="380.966" height="90.3575" filterUnits="userSpaceOnUse" color-interpolation-filters="sRGB">
<feFlood flood-opacity="0" result="BackgroundImageFix"/>
<feBlend mode="normal" in="SourceGraphic" in2="BackgroundImageFix" result="shape"/>
<feGaussianBlur stdDeviation="6" result="effect1_foregroundBlur"/>
</filter>
<linearGradient id="paint0_linear" x1="1079.04" y1="963.85" x2="1102.53" y2="10.5942" gradientUnits="userSpaceOnUse">
<stop stop-color="#E6EFFF"/>
<stop offset="1" stop-color="#4887E3"/>
</linearGradient>
<linearGradient id="paint1_linear" x1="739.283" y1="692.97" x2="747.596" y2="196.19" gradientUnits="userSpaceOnUse">
<stop stop-color="#FFDBBA"/>
<stop offset="1" stop-color="#FF8C73"/>
</linearGradient>
<linearGradient id="paint2_linear" x1="553.352" y1="2598.53" x2="557.705" y2="2559.37" gradientUnits="userSpaceOnUse">
<stop stop-color="#91E9EE"/>
<stop offset="1" stop-color="#ABB8F9"/>
</linearGradient>
<linearGradient id="paint3_linear" x1="548.613" y1="776.717" x2="888.581" y2="780.114" gradientUnits="userSpaceOnUse">
<stop stop-color="#91E9EE"/>
<stop offset="1" stop-color="#ABB8F9"/>
</linearGradient>
<linearGradient id="paint4_linear" x1="574.026" y1="661.7" x2="574.025" y2="777.591" gradientUnits="userSpaceOnUse">
<stop offset="0.0772481" stop-color="#ABB8F9"/>
<stop offset="0.950276" stop-color="#83CCFD"/>
</linearGradient>
<linearGradient id="paint5_linear" x1="505.48" y1="492.632" x2="529.916" y2="492.632" gradientUnits="userSpaceOnUse">
<stop stop-color="#AEAEFF"/>
<stop offset="0.974846" stop-color="#FF8A8B" stop-opacity="0.82"/>
</linearGradient>
<linearGradient id="paint6_linear" x1="302.115" y1="218.952" x2="301.261" y2="398.976" gradientUnits="userSpaceOnUse">
<stop stop-color="white"/>
<stop offset="1" stop-color="white" stop-opacity="0"/>
</linearGradient>
<linearGradient id="paint7_linear" x1="1197.71" y1="361.771" x2="1196.99" y2="536.307" gradientUnits="userSpaceOnUse">
<stop stop-color="white"/>
<stop offset="1" stop-color="white" stop-opacity="0"/>
</linearGradient>
<radialGradient id="paint8_diamond" cx="0" cy="0" r="1" gradientUnits="userSpaceOnUse" gradientTransform="translate(1372.58 470.022) rotate(45.8508) scale(395.672 5001.35)">
<stop stop-color="white"/>
<stop offset="0.712707" stop-color="white" stop-opacity="0"/>
</radialGradient>
</defs>
</svg>
