<svg width="375" height="605" viewBox="0 0 375 605" fill="none" xmlns="http://www.w3.org/2000/svg">
<rect width="375" height="605" fill="url(#paint0_linear)" fill-opacity="0.7"/>
<path d="M383.797 321.717C383.013 321.669 351.383 323.455 291.284 323.569C288.102 322.144 288.379 316.161 291.284 313.027C295.988 307.953 301.522 311.46 304.981 313.882C303.274 312.315 300.125 302.208 306.779 295.648C313.282 289.238 325.272 292.989 327.393 298.07C327.67 294.698 325.761 282.599 336.386 281.118C347.011 279.636 354.095 292.514 351.051 298.07C352.711 295.743 356.534 290.093 363.503 294.508C370.697 299.067 366.039 307.139 363.503 309.039C364.563 308.279 368.649 307.443 376.508 310.178C384.366 312.913 387.071 319.01 383.797 321.717Z" fill="url(#paint1_linear)"/>
<circle cx="187.5" cy="250.5" r="148.5" fill="url(#paint2_linear)"/>
<path d="M90.4592 191.936L88.9232 191.504V189.848L92.9072 189.344H92.9792L93.5792 189.824V190.76L93.5552 191.336C94.1152 190.808 94.8432 190.352 95.7392 189.968C96.6352 189.584 97.5392 189.392 98.4512 189.392C99.4272 189.392 100.187 189.576 100.731 189.944C101.291 190.296 101.691 190.856 101.931 191.624C102.171 192.392 102.291 193.432 102.291 194.744V201.368L103.755 201.56V203H97.5632V201.56L98.8592 201.368V194.744C98.8592 193.912 98.8032 193.264 98.6912 192.8C98.5792 192.32 98.3712 191.976 98.0672 191.768C97.7792 191.544 97.3632 191.432 96.8192 191.432C95.9072 191.432 94.9312 191.824 93.8912 192.608V201.344L95.3312 201.56V203H89.0672V201.56L90.4592 201.344V191.936ZM104.035 189.68H110.227V191.048L108.547 191.336L110.323 197.72L110.899 200.336L111.427 197.696L113.587 189.68H116.491L118.867 197.696L119.443 200.336L120.019 197.72L121.699 191.36L119.947 191.048V189.68H125.083V191.048L123.859 191.312L120.211 203.192H117.451L115.027 195.416L114.475 192.56L114.043 195.416L111.811 203.192H109.027L105.187 191.312L104.035 191.048V189.68ZM127.383 186.968L125.583 186.656V185.168H129.207C129.543 185.168 130.063 185.152 130.767 185.12C131.695 185.056 132.535 185.024 133.287 185.024C134.951 185.024 136.263 185.232 137.223 185.648C138.199 186.048 138.887 186.632 139.287 187.4C139.703 188.152 139.911 189.112 139.911 190.28C139.911 192.296 139.279 193.864 138.015 194.984C136.767 196.104 135.031 196.664 132.807 196.664C131.927 196.664 131.295 196.64 130.911 196.592V201.32L134.127 201.56V203H125.487V201.56L127.383 201.32V186.968ZM130.887 195.056C131.255 195.136 131.879 195.176 132.759 195.176C133.831 195.176 134.687 194.808 135.327 194.072C135.983 193.32 136.311 192.08 136.311 190.352C136.311 189.008 136.015 188.032 135.423 187.424C134.847 186.8 133.959 186.488 132.759 186.488C132.311 186.488 131.847 186.52 131.367 186.584C131.143 186.616 130.983 186.632 130.887 186.632V195.056ZM142.867 185.456L141.091 185.144V183.848L145.531 183.32H145.579L146.227 183.776V201.368L147.979 201.56V203H141.187V201.56L142.867 201.344V185.456ZM160.455 203.24C159.927 203.24 159.543 203.128 159.303 202.904C159.063 202.68 158.943 202.344 158.943 201.896V201.248C158.511 201.776 157.903 202.248 157.119 202.664C156.335 203.064 155.551 203.264 154.767 203.264C153.231 203.264 152.135 202.872 151.479 202.088C150.823 201.288 150.495 199.976 150.495 198.152V191.384L149.295 191.048V189.68L153.375 189.368H153.399L153.879 189.704V198.152C153.879 199.32 154.023 200.136 154.311 200.6C154.599 201.064 155.135 201.296 155.919 201.296C156.863 201.296 157.743 200.928 158.559 200.192V191.384L156.951 191.024V189.68L161.295 189.368H161.343L161.919 189.704V201.512H163.263L163.239 202.88C163.175 202.896 162.879 202.96 162.351 203.072C161.823 203.184 161.191 203.24 160.455 203.24ZM167.623 201.032C167.751 201.224 168.039 201.408 168.487 201.584C168.951 201.744 169.415 201.824 169.879 201.824C170.631 201.824 171.191 201.672 171.559 201.368C171.943 201.048 172.135 200.632 172.135 200.12C172.135 199.592 171.903 199.168 171.439 198.848C170.975 198.512 170.191 198.104 169.087 197.624L168.415 197.336C167.311 196.872 166.487 196.312 165.943 195.656C165.399 195 165.127 194.152 165.127 193.112C165.127 192.392 165.343 191.752 165.775 191.192C166.207 190.616 166.815 190.168 167.599 189.848C168.383 189.528 169.287 189.368 170.311 189.368C171.063 189.368 171.703 189.416 172.231 189.512C172.775 189.608 173.343 189.736 173.935 189.896C174.255 190.008 174.495 190.072 174.655 190.088V193.232H172.759L172.207 191.408C172.111 191.248 171.895 191.104 171.559 190.976C171.223 190.848 170.839 190.784 170.407 190.784C169.751 190.784 169.223 190.928 168.823 191.216C168.439 191.488 168.247 191.872 168.247 192.368C168.247 192.816 168.383 193.192 168.655 193.496C168.927 193.784 169.223 194.008 169.543 194.168C169.863 194.328 170.455 194.592 171.319 194.96C172.183 195.328 172.895 195.68 173.455 196.016C174.031 196.352 174.503 196.792 174.871 197.336C175.255 197.864 175.447 198.512 175.447 199.28C175.447 200.464 174.983 201.424 174.055 202.16C173.127 202.896 171.791 203.264 170.047 203.264C169.231 203.264 168.495 203.192 167.839 203.048C167.199 202.904 166.455 202.712 165.607 202.472L165.079 202.304V199.136H167.071L167.623 201.032ZM196.372 195.896C196.372 197.24 196.092 198.472 195.532 199.592C194.988 200.712 194.18 201.608 193.108 202.28C192.052 202.936 190.788 203.264 189.316 203.264C188.996 203.264 188.66 203.232 188.308 203.168C187.972 203.12 187.7 203.056 187.492 202.976L187.564 204.968V207.152L189.796 207.44V208.808H182.668V207.44L184.228 207.152V191.936L182.668 191.504V189.848L186.628 189.344H186.676L187.276 189.824V191.168C187.676 190.672 188.22 190.24 188.908 189.872C189.596 189.504 190.348 189.32 191.164 189.32C192.684 189.32 193.932 189.864 194.908 190.952C195.884 192.024 196.372 193.672 196.372 195.896ZM189.916 191.312C189.436 191.312 188.98 191.416 188.548 191.624C188.116 191.832 187.788 192.064 187.564 192.32V201.224C187.676 201.384 187.9 201.52 188.236 201.632C188.588 201.744 188.972 201.8 189.388 201.8C190.428 201.8 191.252 201.352 191.86 200.456C192.484 199.544 192.796 198.12 192.796 196.184C192.796 194.552 192.532 193.336 192.004 192.536C191.476 191.72 190.78 191.312 189.916 191.312ZM198.334 201.584L199.918 201.392V191.936L198.382 191.504V189.848L202.102 189.344H202.174L202.774 189.824V190.352L202.702 192.296H202.774C202.886 191.976 203.15 191.584 203.566 191.12C203.982 190.64 204.502 190.224 205.126 189.872C205.766 189.504 206.454 189.32 207.19 189.32C207.542 189.32 207.846 189.368 208.102 189.464V193.064C207.622 192.728 207.038 192.56 206.35 192.56C205.182 192.56 204.166 192.872 203.302 193.496V201.368L206.086 201.584V203H198.334V201.584ZM215.679 203.264C213.567 203.264 211.991 202.648 210.951 201.416C209.927 200.168 209.415 198.472 209.415 196.328C209.415 194.888 209.679 193.64 210.207 192.584C210.751 191.528 211.511 190.72 212.487 190.16C213.463 189.6 214.591 189.32 215.871 189.32C217.471 189.32 218.703 189.744 219.567 190.592C220.431 191.424 220.879 192.616 220.911 194.168C220.911 195.224 220.847 196.008 220.719 196.52H212.919C212.983 197.976 213.327 199.112 213.951 199.928C214.575 200.728 215.463 201.128 216.615 201.128C217.239 201.128 217.879 201.024 218.535 200.816C219.207 200.608 219.735 200.36 220.119 200.072L220.719 201.392C220.287 201.856 219.583 202.288 218.607 202.688C217.647 203.072 216.671 203.264 215.679 203.264ZM217.551 195.08C217.583 194.632 217.599 194.288 217.599 194.048C217.599 191.92 216.887 190.856 215.463 190.856C214.679 190.856 214.071 191.168 213.639 191.792C213.207 192.416 212.967 193.512 212.919 195.08H217.551ZM225.49 201.032C225.618 201.224 225.906 201.408 226.354 201.584C226.818 201.744 227.282 201.824 227.746 201.824C228.498 201.824 229.058 201.672 229.426 201.368C229.81 201.048 230.002 200.632 230.002 200.12C230.002 199.592 229.77 199.168 229.306 198.848C228.842 198.512 228.058 198.104 226.954 197.624L226.282 197.336C225.178 196.872 224.354 196.312 223.81 195.656C223.266 195 222.994 194.152 222.994 193.112C222.994 192.392 223.21 191.752 223.642 191.192C224.074 190.616 224.682 190.168 225.466 189.848C226.25 189.528 227.154 189.368 228.178 189.368C228.93 189.368 229.57 189.416 230.098 189.512C230.642 189.608 231.21 189.736 231.802 189.896C232.122 190.008 232.362 190.072 232.522 190.088V193.232H230.626L230.074 191.408C229.978 191.248 229.762 191.104 229.426 190.976C229.09 190.848 228.706 190.784 228.274 190.784C227.618 190.784 227.09 190.928 226.69 191.216C226.306 191.488 226.114 191.872 226.114 192.368C226.114 192.816 226.25 193.192 226.522 193.496C226.794 193.784 227.09 194.008 227.41 194.168C227.73 194.328 228.322 194.592 229.186 194.96C230.05 195.328 230.762 195.68 231.322 196.016C231.898 196.352 232.37 196.792 232.738 197.336C233.122 197.864 233.314 198.512 233.314 199.28C233.314 200.464 232.85 201.424 231.922 202.16C230.994 202.896 229.658 203.264 227.914 203.264C227.098 203.264 226.362 203.192 225.706 203.048C225.066 202.904 224.322 202.712 223.474 202.472L222.946 202.304V199.136H224.938L225.49 201.032ZM241.319 203.264C239.207 203.264 237.631 202.648 236.591 201.416C235.567 200.168 235.055 198.472 235.055 196.328C235.055 194.888 235.319 193.64 235.847 192.584C236.391 191.528 237.151 190.72 238.127 190.16C239.103 189.6 240.231 189.32 241.511 189.32C243.111 189.32 244.343 189.744 245.207 190.592C246.071 191.424 246.519 192.616 246.551 194.168C246.551 195.224 246.487 196.008 246.359 196.52H238.559C238.623 197.976 238.967 199.112 239.591 199.928C240.215 200.728 241.103 201.128 242.255 201.128C242.879 201.128 243.519 201.024 244.175 200.816C244.847 200.608 245.375 200.36 245.759 200.072L246.359 201.392C245.927 201.856 245.223 202.288 244.247 202.688C243.287 203.072 242.311 203.264 241.319 203.264ZM243.191 195.08C243.223 194.632 243.239 194.288 243.239 194.048C243.239 191.92 242.527 190.856 241.103 190.856C240.319 190.856 239.711 191.168 239.279 191.792C238.847 192.416 238.607 193.512 238.559 195.08H243.191ZM249.811 191.936L248.275 191.504V189.848L252.259 189.344H252.331L252.931 189.824V190.76L252.907 191.336C253.467 190.808 254.195 190.352 255.091 189.968C255.987 189.584 256.891 189.392 257.803 189.392C258.779 189.392 259.539 189.576 260.083 189.944C260.643 190.296 261.043 190.856 261.283 191.624C261.523 192.392 261.643 193.432 261.643 194.744V201.368L263.107 201.56V203H256.915V201.56L258.211 201.368V194.744C258.211 193.912 258.155 193.264 258.043 192.8C257.931 192.32 257.723 191.976 257.419 191.768C257.131 191.544 256.715 191.432 256.171 191.432C255.259 191.432 254.283 191.824 253.243 192.608V201.344L254.683 201.56V203H248.419V201.56L249.811 201.344V191.936ZM268.835 203.216C267.827 203.216 267.083 202.984 266.603 202.52C266.123 202.056 265.883 201.32 265.883 200.312V191.504H264.323V190.256C264.451 190.208 264.683 190.128 265.019 190.016C265.355 189.888 265.611 189.784 265.787 189.704C266.059 189.496 266.291 189.136 266.483 188.624C266.627 188.288 266.891 187.456 267.275 186.128H269.195L269.291 189.656H272.963V191.504H269.315V198.248C269.315 199.144 269.339 199.776 269.387 200.144C269.435 200.512 269.539 200.752 269.699 200.864C269.859 200.96 270.139 201.008 270.539 201.008C270.939 201.008 271.355 200.968 271.787 200.888C272.219 200.792 272.579 200.68 272.867 200.552L273.323 201.896C272.875 202.232 272.219 202.536 271.355 202.808C270.491 203.08 269.651 203.216 268.835 203.216ZM277.264 201.032C277.392 201.224 277.68 201.408 278.128 201.584C278.592 201.744 279.056 201.824 279.52 201.824C280.272 201.824 280.832 201.672 281.2 201.368C281.584 201.048 281.776 200.632 281.776 200.12C281.776 199.592 281.544 199.168 281.08 198.848C280.616 198.512 279.832 198.104 278.728 197.624L278.056 197.336C276.952 196.872 276.128 196.312 275.584 195.656C275.04 195 274.768 194.152 274.768 193.112C274.768 192.392 274.984 191.752 275.416 191.192C275.848 190.616 276.456 190.168 277.24 189.848C278.024 189.528 278.928 189.368 279.952 189.368C280.704 189.368 281.344 189.416 281.872 189.512C282.416 189.608 282.984 189.736 283.576 189.896C283.896 190.008 284.136 190.072 284.296 190.088V193.232H282.4L281.848 191.408C281.752 191.248 281.536 191.104 281.2 190.976C280.864 190.848 280.48 190.784 280.048 190.784C279.392 190.784 278.864 190.928 278.464 191.216C278.08 191.488 277.888 191.872 277.888 192.368C277.888 192.816 278.024 193.192 278.296 193.496C278.568 193.784 278.864 194.008 279.184 194.168C279.504 194.328 280.096 194.592 280.96 194.96C281.824 195.328 282.536 195.68 283.096 196.016C283.672 196.352 284.144 196.792 284.512 197.336C284.896 197.864 285.088 198.512 285.088 199.28C285.088 200.464 284.624 201.424 283.696 202.16C282.768 202.896 281.432 203.264 279.688 203.264C278.872 203.264 278.136 203.192 277.48 203.048C276.84 202.904 276.096 202.712 275.248 202.472L274.72 202.304V199.136H276.712L277.264 201.032Z" fill="white"/>
<path d="M117.427 220H112.227V237.44C112.227 241.52 110.507 243.52 106.987 243.52C103.467 243.52 101.747 241.52 101.747 237.44V220H96.5472V237.36C96.5472 244.84 100.867 248.32 106.987 248.32C113.107 248.32 117.427 244.84 117.427 237.36V220ZM122.35 220V248H132.79C138.51 248 142.03 245 142.03 239.56C142.03 236 140.47 233.8 137.83 232.72C139.59 231.8 140.59 229.84 140.59 227.56C140.59 222.48 137.35 220 132.59 220H122.35ZM132.19 224.8C134.39 224.8 135.59 225.56 135.59 227.84C135.59 230.12 134.39 230.88 132.31 230.88H127.55V224.8H132.19ZM132.31 235.68C135.55 235.68 136.83 237.04 136.83 239.44C136.83 241.84 135.55 243.2 132.31 243.2H127.55V235.68H132.31ZM170.744 228.16C169.424 222.8 165.224 219.68 159.144 219.68C152.144 219.68 145.904 224.64 145.904 234C145.904 243.36 152.144 248.32 159.144 248.32C165.224 248.32 169.424 245.2 170.744 239.84L166.064 238.64C164.984 241.48 163.024 243.52 159.144 243.52C154.824 243.52 151.184 240.48 151.184 234C151.184 227.52 154.824 224.48 159.144 224.48C163.024 224.48 164.984 226.52 166.064 229.36L170.744 228.16ZM185.514 220V248H202.594V243.2H190.714V220H185.514ZM205.079 237.92C205.079 243.76 208.839 248.32 215.319 248.32C221.799 248.32 225.559 243.76 225.559 237.92C225.559 232.08 221.799 227.52 215.319 227.52C208.839 227.52 205.079 232.08 205.079 237.92ZM210.279 237.92C210.279 234.6 212.119 231.76 215.319 231.76C218.519 231.76 220.359 234.6 220.359 237.92C220.359 241.24 218.519 244.08 215.319 244.08C212.119 244.08 210.279 241.24 210.279 237.92ZM243.819 240.76C242.779 242.88 241.339 244.08 239.099 244.08C235.979 244.08 234.459 241.48 234.459 237.92C234.459 234.36 235.979 231.76 239.099 231.76C241.339 231.76 242.779 232.96 243.819 235.08L248.259 233.28C246.739 229.48 243.579 227.52 239.099 227.52C232.539 227.52 229.259 232.24 229.259 237.92C229.259 243.6 232.539 248.32 239.099 248.32C243.579 248.32 246.739 246.36 248.259 242.56L243.819 240.76ZM256.246 234.08C256.886 232.2 258.326 231.76 259.726 231.76C261.566 231.76 263.246 232.48 263.246 234.72V235.6H259.886C254.806 235.6 251.286 238.2 251.286 242.2C251.286 246.2 253.966 248.32 257.406 248.32C260.286 248.32 262.206 247.16 263.606 245.44L264.126 248H268.206V235.96C268.206 229.52 264.526 227.52 259.726 227.52C255.606 227.52 252.686 229.8 252.046 233.12L256.246 234.08ZM256.486 242.12C256.486 240.32 257.806 239.52 259.926 239.52H263.246V239.92C263.246 242.52 260.846 244.08 258.566 244.08C257.166 244.08 256.486 243.08 256.486 242.12ZM273.12 219.68V248H278.08V219.68H273.12ZM106.432 283H111.632V270.44H122.832V283H128.032V255H122.832V265.64H111.632V255H106.432V283ZM137.867 269.08C138.507 267.2 139.947 266.76 141.347 266.76C143.187 266.76 144.867 267.48 144.867 269.72V270.6H141.507C136.427 270.6 132.907 273.2 132.907 277.2C132.907 281.2 135.587 283.32 139.027 283.32C141.907 283.32 143.827 282.16 145.227 280.44L145.747 283H149.827V270.96C149.827 264.52 146.147 262.52 141.347 262.52C137.227 262.52 134.307 264.8 133.667 268.12L137.867 269.08ZM138.107 277.12C138.107 275.32 139.427 274.52 141.547 274.52H144.867V274.92C144.867 277.52 142.467 279.08 140.187 279.08C138.787 279.08 138.107 278.08 138.107 277.12ZM168.682 275.76C167.642 277.88 166.202 279.08 163.962 279.08C160.842 279.08 159.322 276.48 159.322 272.92C159.322 269.36 160.842 266.76 163.962 266.76C166.202 266.76 167.642 267.96 168.682 270.08L173.122 268.28C171.602 264.48 168.442 262.52 163.962 262.52C157.402 262.52 154.122 267.24 154.122 272.92C154.122 278.6 157.402 283.32 163.962 283.32C168.442 283.32 171.602 281.36 173.122 277.56L168.682 275.76ZM176.774 254.68V283H181.734V273.48L188.854 283H194.934L186.334 272.12L194.414 262.84H188.294L181.734 270.76V254.68H176.774ZM217.34 283C223.94 283 230.38 278.8 230.38 269C230.38 259.2 223.94 255 217.34 255H208.58V283H217.34ZM213.78 278.2V259.8H215.7C220.18 259.8 225.1 261.56 225.1 269C225.1 276.44 220.18 278.2 215.7 278.2H213.78ZM238.96 269.08C239.6 267.2 241.04 266.76 242.44 266.76C244.28 266.76 245.96 267.48 245.96 269.72V270.6H242.6C237.52 270.6 234 273.2 234 277.2C234 281.2 236.68 283.32 240.12 283.32C243 283.32 244.92 282.16 246.32 280.44L246.84 283H250.92V270.96C250.92 264.52 247.24 262.52 242.44 262.52C238.32 262.52 235.4 264.8 234.76 268.12L238.96 269.08ZM239.2 277.12C239.2 275.32 240.52 274.52 242.64 274.52H245.96V274.92C245.96 277.52 243.56 279.08 241.28 279.08C239.88 279.08 239.2 278.08 239.2 277.12ZM253.03 262.84L260.35 281.72L256.87 291.16H261.67L272.07 262.84H267.11L262.71 275.48L258.03 262.84H253.03Z" fill="white"/>
<path d="M110.374 314C113.014 314 115.59 312.32 115.59 308.4C115.59 304.48 113.014 302.8 110.374 302.8H106.87V314H110.374ZM108.95 312.08V304.72H109.718C111.51 304.72 113.478 305.424 113.478 308.4C113.478 311.376 111.51 312.08 109.718 312.08H108.95ZM124.765 309.792C124.765 308.032 123.693 305.808 121.005 305.808C118.237 305.808 117.133 308.064 117.133 309.968C117.133 311.872 118.237 314.128 121.005 314.128C122.957 314.128 124.045 313.2 124.669 311.776L123.069 311.184C122.589 312.016 122.029 312.432 121.117 312.432C119.885 312.432 119.261 311.504 119.213 310.608H124.765V309.792ZM121.005 307.504C122.061 307.504 122.557 308.24 122.733 309.04H119.261C119.405 308.272 119.997 307.504 121.005 307.504ZM132.192 311.104C131.776 311.952 131.2 312.432 130.304 312.432C129.056 312.432 128.448 311.392 128.448 309.968C128.448 308.544 129.056 307.504 130.304 307.504C131.2 307.504 131.776 307.984 132.192 308.832L133.968 308.112C133.36 306.592 132.096 305.808 130.304 305.808C127.68 305.808 126.368 307.696 126.368 309.968C126.368 312.24 127.68 314.128 130.304 314.128C132.096 314.128 133.36 313.344 133.968 311.824L132.192 311.104ZM142.829 302.8L139.549 304.72V306.896L141.693 305.616V314H143.709V302.8H142.829ZM145.685 316.496H147.077L149.557 311.664H146.885L145.685 316.496ZM159.547 314H166.667V312.144H162.731L165.467 308.576C166.139 307.696 166.427 306.816 166.427 305.92C166.427 304.032 165.211 302.672 163.083 302.672C161.211 302.672 159.835 303.952 159.723 305.648L161.579 306C161.707 305.056 162.235 304.528 163.035 304.528C163.947 304.528 164.411 305.088 164.411 306C164.411 306.64 164.219 307.184 163.547 308.032L159.547 313.2V314ZM172.815 302.672C170.143 302.672 168.687 304.816 168.687 308.4C168.687 311.984 170.143 314.128 172.815 314.128C175.487 314.128 176.943 311.984 176.943 308.4C176.943 304.816 175.487 302.672 172.815 302.672ZM172.815 304.528C174.287 304.528 174.959 305.904 174.959 308.4C174.959 310.896 174.287 312.272 172.815 312.272C171.343 312.272 170.671 310.896 170.671 308.4C170.671 305.904 171.343 304.528 172.815 304.528ZM181.766 302.8L178.486 304.72V306.896L180.63 305.616V314H182.646V302.8H181.766ZM188.682 302.672C186.778 302.672 185.466 304.064 185.466 305.728C185.466 306.64 185.834 307.44 186.506 307.968C185.594 308.48 185.034 309.392 185.034 310.656C185.034 312.832 186.73 314.128 188.682 314.128C190.634 314.128 192.33 312.832 192.33 310.656C192.33 309.392 191.754 308.48 190.842 307.968C191.514 307.44 191.898 306.64 191.898 305.728C191.898 304.064 190.586 302.672 188.682 302.672ZM188.682 309.04C189.594 309.04 190.314 309.616 190.314 310.656C190.314 311.696 189.594 312.272 188.682 312.272C187.77 312.272 187.05 311.696 187.05 310.656C187.05 309.616 187.77 309.04 188.682 309.04ZM188.682 304.368C189.498 304.368 190.026 304.928 190.026 305.76C190.026 306.608 189.498 307.184 188.682 307.184C187.866 307.184 187.338 306.608 187.338 305.76C187.338 304.928 187.866 304.368 188.682 304.368ZM193.545 316.496H194.937L197.417 311.664H194.745L193.545 316.496ZM207.422 309.968L204.99 314.128H207.23L210.494 308.288C210.814 307.728 211.038 306.992 211.038 306.32C211.038 304.224 209.406 302.672 207.294 302.672C205.15 302.672 203.55 304.24 203.55 306.32C203.55 308.496 205.118 309.968 207.166 309.968H207.422ZM207.294 308.112C206.334 308.112 205.566 307.472 205.566 306.32C205.566 305.232 206.334 304.528 207.294 304.528C208.238 304.528 209.022 305.232 209.022 306.32C209.022 307.472 208.254 308.112 207.294 308.112ZM218.59 314H220.83L217.038 302.8H214.958L211.166 314H213.406L214.222 311.36H217.774L218.59 314ZM215.998 305.552L217.182 309.44H214.814L215.998 305.552ZM222.354 314H224.434V307.088L226.578 312.976H228.082L230.226 307.088V314H232.306V302.8H229.97L227.33 309.792L224.69 302.8H222.354V314ZM234.782 309.792H240.75V308.064H234.782V309.792ZM246.797 309.968L244.365 314.128H246.605L249.869 308.288C250.189 307.728 250.413 306.992 250.413 306.32C250.413 304.224 248.781 302.672 246.669 302.672C244.525 302.672 242.925 304.24 242.925 306.32C242.925 308.496 244.493 309.968 246.541 309.968H246.797ZM246.669 308.112C245.709 308.112 244.941 307.472 244.941 306.32C244.941 305.232 245.709 304.528 246.669 304.528C247.613 304.528 248.397 305.232 248.397 306.32C248.397 307.472 247.629 308.112 246.669 308.112ZM256.937 309.616C259.305 309.616 260.441 308.16 260.441 306.208C260.441 304.256 259.305 302.8 256.937 302.8H252.713V314H254.793V309.616H256.937ZM256.857 307.696H254.793V304.72H256.857C257.769 304.72 258.329 305.184 258.329 306.208C258.329 307.232 257.769 307.696 256.857 307.696ZM262.182 314H264.262V307.088L266.406 312.976H267.91L270.054 307.088V314H272.134V302.8H269.798L267.158 309.792L264.518 302.8H262.182V314ZM164.592 339C167.232 339 169.808 337.32 169.808 333.4C169.808 329.48 167.232 327.8 164.592 327.8H161.088V339H164.592ZM163.168 337.08V329.72H163.936C165.728 329.72 167.696 330.424 167.696 333.4C167.696 336.376 165.728 337.08 163.936 337.08H163.168ZM172.01 339H174.09V332.088L176.234 337.976H177.738L179.882 332.088V339H181.962V327.8H179.626L176.986 334.792L174.346 327.8H172.01V339ZM188.469 334.616C190.837 334.616 191.973 333.16 191.973 331.208C191.973 329.256 190.837 327.8 188.469 327.8H184.245V339H186.325V334.616H188.469ZM188.389 332.696H186.325V329.72H188.389C189.301 329.72 189.861 330.184 189.861 331.208C189.861 332.232 189.301 332.696 188.389 332.696ZM200.61 327.8L197.33 329.72V331.896L199.474 330.616V339H201.49V327.8H200.61ZM206.86 327.8L203.58 329.72V331.896L205.724 330.616V339H207.74V327.8H206.86ZM214.237 327.672C211.565 327.672 210.109 329.816 210.109 333.4C210.109 336.984 211.565 339.128 214.237 339.128C216.909 339.128 218.365 336.984 218.365 333.4C218.365 329.816 216.909 327.672 214.237 327.672ZM214.237 329.528C215.709 329.528 216.381 330.904 216.381 333.4C216.381 335.896 215.709 337.272 214.237 337.272C212.765 337.272 212.093 335.896 212.093 333.4C212.093 330.904 212.765 329.528 214.237 329.528Z" fill="white"/>
<path d="M80.6314 258.997C79.9232 258.948 51.3516 260.79 -2.93686 260.908C-5.81127 259.438 -5.56131 253.267 -2.93687 250.034C1.31248 244.801 6.31117 248.418 9.43552 250.916C7.89419 249.3 5.04937 238.875 11.0602 232.109C16.9339 225.497 27.765 229.366 29.6813 234.606C29.9312 231.129 28.2065 218.65 37.8045 217.122C47.4024 215.593 53.8011 228.876 51.0517 234.606C52.5513 232.207 56.0047 226.379 62.2993 230.933C68.7979 235.635 64.5905 243.961 62.2993 245.92C63.2575 245.137 66.9484 244.275 74.0469 247.096C81.1454 249.917 83.5891 256.206 80.6314 258.997Z" fill="url(#paint3_linear)"/>
<path d="M137.7 526.176C138.307 525.163 139.432 524.536 140.652 524.533L257.765 524.215C258.607 524.213 259.421 524.509 260.049 525.047L269.008 532.717C269.943 533.517 269.352 535 268.098 535H134.775C133.726 535 133.069 533.914 133.591 533.042L137.7 526.176Z" fill="white"/>
<path d="M260.711 528.57C260.711 529.143 259.052 529.607 257.006 529.607C254.96 529.607 253.302 529.143 253.302 528.57C253.302 527.998 254.96 527.585 257.006 527.585C259.052 527.585 260.711 527.998 260.711 528.57Z" fill="#C1D4F5"/>
<path d="M249.417 526.022H143.337L140.386 532.15L253.419 532.304L249.417 526.022Z" fill="url(#paint4_linear)" fill-opacity="0.5"/>
<g filter="url(#filter0_f)">
<path d="M266.772 501.297H125.326L142.161 527.585H250.458L266.772 501.297Z" fill="url(#paint5_linear)"/>
</g>
<path d="M64.0312 510.06L128.324 459.505H263.974L335.474 510.06H64.0312Z" fill="url(#paint6_linear)"/>
<rect x="213.562" y="452.764" width="2.69422" height="9.43693" fill="#857895"/>
<rect x="215.582" y="454.112" width="39.0662" height="7.41473" fill="#ABB8F9"/>
<path d="M213.562 452.764H252.392L254.602 454.112H215.593L213.562 452.764Z" fill="#8280DC"/>
<path d="M118.984 474.914C120.914 475.409 122.853 474.349 123.315 472.546C123.776 470.743 122.586 468.88 120.656 468.385L110.154 465.691C107.389 464.982 103.616 465.006 103.026 467.606C102.518 469.84 105.435 471.439 107.81 472.048L118.984 474.914Z" fill="#735BA5"/>
<path d="M120.749 414.954C119.143 412.961 115.844 412.116 114.489 412.499C111.493 412.408 108.947 412.042 106.364 414.795C102.607 418.798 103.668 423.754 101.208 430.518C100.044 433.722 96.5807 432.954 95.6564 436.892C94.8814 440.194 95.9319 440.999 97.587 443.388C99.242 445.777 95.9722 446.747 94.7906 449.702C93.6088 452.656 96.7612 455.64 98.4383 456.083C101.833 456.98 100.257 464.337 100.72 462.68C101.185 461.024 107.964 460.944 107.813 458.703C107.638 456.09 108.306 454.045 110.252 453.914C112.198 453.783 113.438 451.7 114.939 448.348C116.439 444.997 117.291 452.566 119.96 454.637C122.629 456.708 123.469 455.527 125.543 459.013C127.202 461.802 130.8 461.952 132.391 461.678C131.414 460.244 129.955 456.891 131.941 454.958C134.423 452.541 135.806 452.573 135.58 449.213C135.388 446.339 132.884 445.018 131.231 444.379C129.579 443.74 129.599 440.613 130.789 437.783C131.979 434.952 129.054 430.773 127.058 430.157C125.371 429.637 124.741 428.188 124.672 425.442C124.603 422.696 122.755 417.444 120.749 414.954Z" fill="#735BA5"/>
<path d="M94.94 457.566C95.8531 460.369 95.6671 463.07 95.4012 465.844C95.215 467.787 90.7268 467.637 91.7286 461.67C92.1695 459.044 92.275 458.249 94.94 457.566L94.94 457.566Z" fill="#DBE5F5"/>
<path d="M88.9535 470.964C87.0935 470.964 85.5857 468.7 85.5857 465.908C85.5857 463.116 87.0935 460.853 88.9535 460.853C90.8135 460.853 92.3213 463.116 92.3213 465.908C92.3213 468.7 90.8135 470.964 88.9535 470.964Z" fill="#FF8C73"/>
<path d="M97.0366 465.234C97.0366 468.399 96.9242 470.964 99.1206 470.964C101.317 470.964 103.098 468.399 103.098 465.234C103.098 462.07 101.317 459.505 99.1206 459.505C96.9242 459.505 97.0366 462.07 97.0366 465.234Z" fill="#FF8C73"/>
<path d="M112.888 449.238L103.446 454.053C103.446 454.053 116.621 473.789 119.862 475.142C123.103 476.496 126.427 474.442 126.382 471.099C126.337 467.756 118.158 457.775 112.888 449.238Z" fill="#8280DC"/>
<path d="M90.6495 462.938C87.6428 461.47 87.3644 464.611 87.7659 466.465L91.9313 468.858C92.8824 468.594 93.8103 467.35 94.0264 465.632L90.6495 462.938Z" fill="#DBE5F5"/>
<path d="M107.213 452.71C104.313 453.663 100.218 450.686 97.825 455.706C95.4319 460.725 103.228 477.169 105.73 478.971C108.232 480.774 113.431 479.59 113.23 475.721L107.213 452.71Z" fill="#8280DC"/>
<path d="M93.7769 464.006C90.9858 465.924 90.3151 467.343 90.6546 470.465L106.466 479.389C110.9 480.204 112.497 476.589 111.786 472.841L93.7769 464.006Z" fill="#8280DC"/>
<path d="M125.758 420.546C125.701 417.522 126.806 415.052 128.023 412.544C128.875 410.788 133.714 412.796 130.628 418.009C129.27 420.303 128.889 421.01 125.758 420.546L125.758 420.546Z" fill="#DBE5F5"/>
<path fill-rule="evenodd" clip-rule="evenodd" d="M116.692 439.117C122.959 435.53 128.058 427.303 130.566 418.899C131.686 415.146 126.086 414.774 125.666 417.32C125.089 420.826 120.829 428.692 114.794 433.466C113.345 431.796 111.196 430.701 108.775 430.575C107.423 430.505 106.122 430.745 104.945 431.232C94.4979 432.145 93.232 447.543 92.3246 459.658C92.1809 461.575 96.66 464.197 96.9515 459.797C97.2888 454.708 97.6913 450.034 98.7577 445.93C98.6835 446.941 98.6268 447.966 98.5891 449.054C98.4169 454.02 102.824 457.84 107.819 457.438L109.103 457.335C114.29 456.918 116.964 451.405 116.455 446.27C116.25 444.199 116.421 442.234 116.637 439.76L116.681 439.251C116.685 439.206 116.689 439.161 116.692 439.117Z" fill="#0C2264"/>
<path d="M115.222 432.542C110.758 432.542 107.139 428.77 107.139 424.116C107.139 419.463 110.758 415.69 115.222 415.69C119.686 415.69 123.305 419.463 123.305 424.116C123.305 428.77 119.686 432.542 115.222 432.542Z" fill="#DBE5F5"/>
<path d="M103.098 420.408H124.651" stroke="#C2C2E1" stroke-width="4"/>
<path d="M124.652 421.082H109.16C109.16 422.103 109.576 424.687 110.544 425.708C111.512 426.73 115.385 426.73 116.354 425.708C117.322 424.687 117.473 423.723 118.843 425.168C119.165 425.849 120.198 426.189 121.747 426.189C123.296 426.189 124.329 425.168 124.652 424.146V421.082Z" fill="url(#paint7_linear)" fill-opacity="0.8"/>
<path d="M116.772 431.565C116.772 431.565 116.262 427.545 113.213 428.492C110.163 429.438 109.025 430.865 107.839 434.725L113.134 436.998C113.872 433.176 113.254 432.551 116.772 431.565Z" fill="#DBE5F5"/>
<path d="M103.098 434.284C103.098 436.502 105.471 440.631 107.924 440.631C110.377 440.631 113.875 438.366 113.875 436.148C113.875 433.93 110.377 432.598 107.924 432.598C105.471 432.598 103.098 432.066 103.098 434.284Z" fill="#DBE5F5"/>
<path fill-rule="evenodd" clip-rule="evenodd" d="M195.504 459.505H202.133L209.132 482.377L185.622 498.152L195.504 459.505ZM183.97 504.618L182.578 510.059H217.603L210.468 486.742L183.97 504.618Z" fill="#DBF2F5"/>
<path d="M185.945 453.505L188.64 448.72L188.303 465.987L185.945 472.986V453.505Z" fill="#ABB8F9"/>
<rect x="168.433" y="450.741" width="5.38845" height="12.1332" fill="#735BA5"/>
<rect x="171.801" y="453.438" width="14.1447" height="18.8739" fill="#DBE5F5"/>
<path d="M165.752 453.454L168.46 450.732V469.677L165.752 471.764V453.454Z" fill="#8280DC"/>
<rect x="144.858" y="453.438" width="20.8802" height="21.5701" fill="#DBE5F5"/>
<path d="M149.285 448.72H170.456L165.835 453.438H144.858L149.285 448.72Z" fill="#ABB8F9"/>
<path d="M169.567 448.72H188.721L187.62 450.742H168.433L169.567 448.72Z" fill="#ABB8F9"/>
<path d="M173.929 450.067L187.966 450.523L186.598 453.438H171.801L173.929 450.067Z" fill="#ABB8F9"/>
<rect x="146.879" y="458.156" width="17.5125" height="2.0222" fill="#91E9EE"/>
<rect x="146.879" y="454.786" width="17.5125" height="2.0222" fill="#91E9EE"/>
<rect x="146.879" y="460.853" width="17.5125" height="2.0222" fill="#91E9EE"/>
<rect x="172.475" y="458.156" width="12.7976" height="2.0222" fill="#91E9EE"/>
<rect x="172.475" y="454.786" width="12.7976" height="2.0222" fill="#91E9EE"/>
<rect x="172.475" y="460.179" width="12.7976" height="2.0222" fill="#91E9EE"/>
<rect x="172.475" y="466.919" width="12.7976" height="2.0222" fill="#91E9EE"/>
<rect x="172.475" y="463.549" width="12.7976" height="2.0222" fill="#91E9EE"/>
<rect x="172.475" y="469.615" width="12.7976" height="2.0222" fill="#91E9EE"/>
<rect x="146.879" y="468.268" width="17.5125" height="2.0222" fill="#CDDCF4"/>
<rect x="146.879" y="464.223" width="17.5125" height="2.0222" fill="#CDDCF4"/>
<rect x="146.879" y="470.964" width="17.5125" height="2.0222" fill="#CDDCF4"/>
<path d="M152.745 462.201H180.557L179.081 465.572H150.247L152.745 462.201Z" fill="#ABB8F9"/>
<path d="M174.94 460.173L175.775 459.567L175.775 463.215L174.94 464.206L174.94 460.173Z" fill="#735BA5"/>
<rect x="156.982" y="460.159" width="17.9655" height="4.06333" fill="#D1EDFF"/>
<path d="M157.914 459.569H175.774L174.95 460.179H156.982L157.914 459.569Z" fill="#8280DC"/>
<path d="M178.931 465.512L180.511 462.212L180.511 481.001L178.931 483.095L178.931 465.512Z" fill="#8280DC"/>
<rect x="150.247" y="465.571" width="28.6823" height="17.5257" fill="#D1EDFF"/>
<rect x="247.913" y="462.51" width="14.133" height="11.1503" fill="#735BA5"/>
<path d="M241.851 459.925L256.129 459.505L262.057 462.557L247.057 463.203L241.851 459.925Z" fill="#D1EDFF"/>
<path fill-rule="evenodd" clip-rule="evenodd" d="M255.233 467.96L243.718 459.825H234.984L253.027 473.448L260.236 471.638L260.292 471.635L274.855 470.91L268.975 467.594L255.233 467.96Z" fill="#D1EDFF"/>
<path d="M235.006 459.875L253.301 471.93V487.14L235.006 472.609V459.875Z" fill="#8280DC"/>
<rect x="212.888" y="437.935" width="19.5331" height="28.9848" fill="#D1EDFF"/>
<path d="M218.276 440.631H218.95V446.023H218.276V440.631Z" fill="#91E9EE"/>
<path d="M220.297 443.327H220.97V448.72H220.297V443.327Z" fill="#FF8C73"/>
<path d="M209.52 440.095L212.887 437.935V466.919L209.52 463.718L209.52 440.095Z" fill="#91E9EE"/>
<path d="M214.235 441.305H214.909V446.697H214.235V441.305Z" fill="#06C1C0"/>
<path d="M215.582 444.001H216.256V449.394H215.582V444.001Z" fill="#735BA5"/>
<path d="M222.991 448.045H223.665V453.437H222.991V448.045Z" fill="#91E9EE"/>
<path d="M224.339 449.394H225.012V454.786H224.339V449.394Z" fill="#E16161"/>
<path d="M218.949 448.045H219.623V453.437H218.949V448.045Z" fill="#06C1C0"/>
<path d="M220.297 450.741H220.97V456.134H220.297V450.741Z" fill="#735BA5"/>
<path d="M228.38 440.631H229.053V446.023H228.38V440.631Z" fill="#06C1C0"/>
<path d="M229.727 443.327H230.4V448.72H229.727V443.327Z" fill="#FBC28E"/>
<path d="M224.339 441.305H225.012V446.697H224.339V441.305Z" fill="#FBC28E"/>
<path d="M225.686 444.001H226.359V449.394H225.686V444.001Z" fill="#735BA5"/>
<rect x="216.255" y="458.83" width="11.4505" height="2.0222" fill="#C2C2E1"/>
<path d="M220.75 457.484L227.893 457.666C228.629 457.685 229.338 457.936 229.91 458.38L231.841 459.878C234.629 462.042 232.376 466.317 228.899 465.459L219.68 463.184C216.359 462.101 217.242 457.394 220.75 457.484Z" fill="#C2C2E1"/>
<path d="M218.336 459.245C218.662 455.96 222.118 458.052 222.28 459.245C222.442 460.438 222.991 475.008 222.991 475.008L219.112 471.24C219.112 471.24 218.011 462.53 218.336 459.245Z" fill="#735BA5"/>
<path d="M216.354 457.819L228.037 465.711L228.113 471.54L216.336 460.632L216.354 457.819Z" fill="#735BA5"/>
<path d="M218.276 461.526L219.93 462.618L220.297 471.637H218.276V461.526Z" fill="#ABB8F9"/>
<path d="M218.276 461.526L219.93 462.618L220.297 471.637H218.276V461.526Z" fill="#ABB8F9"/>
<path d="M219.623 464.897L225.685 470.033V479.727L219.623 472.601V464.897Z" fill="#ABB8F9"/>
<path d="M225.012 468.941L226.359 469.851V479.726L225.012 478.297V468.941Z" fill="#735BA5"/>
<path d="M222.991 467.594L224.338 468.534V477.705L222.991 476.377V467.594Z" fill="#735BA5"/>
<path d="M220.971 465.571L222.318 466.585L222.175 475.008L220.971 473.758V465.571Z" fill="#735BA5"/>
<path d="M219.623 464.897L220.297 465.391V472.986L219.623 472.618V464.897Z" fill="#735BA5"/>
<path d="M220.297 464.897L220.97 465.47V467.594L220.297 466.987V464.897Z" fill="#D1EDFF"/>
<path d="M222.317 466.919L222.991 467.492V469.615L222.317 468.84V466.919Z" fill="#D1EDFF"/>
<path d="M224.339 468.268L225.012 468.887V470.964L224.339 470.344V468.268Z" fill="#D1EDFF"/>
<path d="M213.562 459.505L218.276 463.94V472.312L213.562 466.158V459.505Z" fill="#ABB8F9"/>
<path d="M216.929 462.875L218.276 463.614V471.638L216.929 470.477V462.875Z" fill="#735BA5"/>
<path d="M215.582 461.526L216.256 462.279V469.615L215.582 468.553V461.526Z" fill="#735BA5"/>
<path d="M214.235 460.179L215.582 461.047L215.439 468.268L214.235 467.195V460.179Z" fill="#735BA5"/>
<path d="M213.562 459.505L214.235 459.917V466.246L213.562 465.939V459.505Z" fill="#735BA5"/>
<path d="M213.562 460.179L214.235 460.608V462.201L213.562 461.746V460.179Z" fill="#D1EDFF"/>
<path d="M214.908 461.526L215.582 461.956V463.549L214.908 462.967V461.526Z" fill="#D1EDFF"/>
<path d="M216.255 462.875L216.928 463.34V464.897L216.255 464.433V462.875Z" fill="#D1EDFF"/>
<rect x="226.359" y="468.941" width="13.4711" height="1.34813" fill="#DBE5F5"/>
<path d="M216.225 459.473L219.959 462.655L218.208 463.548L213.86 459.473L216.225 459.473Z" fill="#D1EDFF"/>
<path d="M222.224 464.677L228.015 469.128L226.685 470.069L219.987 464.711L222.224 464.677Z" fill="#D1EDFF"/>
<rect x="225.686" y="468.941" width="14.1447" height="11.4591" fill="#D1EDFF"/>
<rect x="227.706" y="468.941" width="4.71489" height="10.111" fill="#8280DC"/>
<rect x="234.441" y="468.941" width="4.71489" height="10.111" fill="#8280DC"/>
<path d="M222.286 462.342L233.228 462.941L239.861 466.105L227.325 466.095L222.286 462.342Z" fill="#C2C2E1"/>
<rect x="227.267" y="466.046" width="12.5632" height="2.8953" fill="#735BA5"/>
<path d="M216.551 479.614L226.306 491.901L226.306 497.998L216.551 484.738L216.551 479.614Z" fill="#8280DC"/>
<rect x="226.31" y="491.186" width="34.4" height="6.8062" fill="#735BA5"/>
<rect x="228.38" y="493.208" width="30.9836" height="2.0222" fill="#ABB8F9"/>
<rect x="228.38" y="494.557" width="30.9836" height="2.0222" fill="#ABB8F9"/>
<path d="M321.547 482.924C319.905 489.653 323.371 487.563 323.265 489.059C337.257 490.926 338.058 485.035 342.971 470.783C343.026 465.949 337.767 464.95 336.349 466.584C331.536 483.018 333.763 479.806 321.547 482.924Z" fill="#735BA5"/>
<path d="M327.355 484.542C322.414 488.764 326.086 499.837 325.144 500.956C341.215 500.633 352.134 498.413 355.924 479.429C357.312 472.477 351.322 468.287 349.232 475.216C347.576 495.536 334.98 488.832 327.355 484.542Z" fill="#8280DC"/>
<path d="M316.84 487.014C317.191 484.355 318.65 481.824 321.242 482.218C324.97 482.784 330.535 485.285 336.096 488.021C342.407 491.125 341.303 497.032 334.289 497.551C332.706 497.669 331.221 498.337 329.915 499.267C329.485 499.573 329.078 499.835 328.686 500.06C322.282 503.73 315.863 494.426 316.84 487.014Z" fill="#8280DC"/>
<path d="M288.892 478.108L293.908 475.227C293.51 479.73 295.134 479.47 298.051 483.143C297.634 486.267 296.503 486.853 293.035 486.025C290.45 483.12 288.414 483.199 288.892 478.108Z" fill="#FFDBBA"/>
<path d="M335.086 463.663C338.399 461.925 340.28 460.696 341.915 458.847C343.496 457.062 346.373 456.889 347.819 458.843C348.465 459.715 348.681 460.845 348.294 461.84C346.681 465.983 344.234 467.885 339.024 470.14C333.183 472.668 330.726 465.95 335.086 463.663Z" fill="#F3CECA"/>
<path d="M334.613 462.787C337.574 461.322 339.312 460.248 340.766 458.678C342.373 456.942 345.229 456.728 346.702 458.67C347.344 459.517 347.583 460.612 347.233 461.587C345.838 465.476 343.555 467.204 338.649 469.165C333.126 471.372 330.506 464.819 334.613 462.787Z" fill="#FF8C73"/>
<path d="M352.699 470.005C355.769 470.431 357.758 470.529 359.691 470.112C362.204 469.57 364.96 470.97 365.177 473.584C365.269 474.686 364.878 475.789 364.028 476.469C360.784 479.063 357.923 479.236 352.728 478.068C346.855 476.747 348.123 469.37 352.699 470.005Z" fill="#F3CECA"/>
<path d="M352.976 469.272C355.609 469.715 357.378 469.86 359.037 469.572C361.534 469.139 364.288 470.484 364.534 473.103C364.634 474.173 364.288 475.249 363.494 475.928C360.562 478.435 357.931 478.554 353.141 477.305C347.71 475.888 348.751 468.56 352.976 469.272Z" fill="#FF8C73"/>
<rect x="149.573" y="433.891" width="5.38845" height="60.6559" fill="#735BA5"/>
<path d="M143.893 433.891H151.143L152.268 436.587H140.144L143.893 433.891Z" fill="#735BA5"/>
<rect x="140.144" y="436.586" width="12.124" height="57.9697" fill="#8280DC"/>
<path d="M150.92 443.141C150.92 445.477 148.96 447.371 146.542 447.371C144.124 447.371 142.164 445.477 142.164 443.141C142.164 440.805 144.124 438.608 146.542 438.608C148.96 438.608 150.92 440.805 150.92 443.141Z" fill="#F2F2F2"/>
<rect x="146.205" y="446.023" width="0.673556" height="0.674066" fill="#C2C2E1"/>
<path d="M146.205 439.282H146.75V439.956H146.205V439.282Z" fill="#C2C2E1"/>
<path d="M142.838 442.652V443.293H143.511V442.652H142.838Z" fill="#C2C2E1"/>
<path d="M149.573 443.302V442.652H150.247V443.302H149.573Z" fill="#C2C2E1"/>
<path d="M194.395 462.026H203.213L208.172 479.052H207.178H189.986L194.395 462.026Z" fill="#D8D8D8"/>
<path d="M194.393 461.843H203.168L207.195 479.052H191.087L194.393 461.843Z" fill="#F0FFFD"/>
<path d="M195.729 463.713L197.32 463.901L195.421 477.069L193.819 477.122L195.729 463.713Z" fill="#FF8C73"/>
<path d="M202.11 463.723L201.823 465.283L195.633 465.336L195.729 463.73L202.11 463.723Z" fill="#FF8C73"/>
<rect width="1.50716" height="5.43854" transform="matrix(0.00796577 0.999968 -0.999968 0.00797785 201.035 469.245)" fill="#FF8C73"/>
<path d="M204.184 475.553L204.663 477.151L193.816 477.144L194.152 475.533L204.184 475.553Z" fill="#FF8C73"/>
<path d="M196.326 460.853H201.606L202.993 461.844H194.66L196.326 460.853Z" fill="#FF8C73"/>
<path d="M23.3817 499.494C24.2451 503.306 26.7096 505.997 28.8863 505.503C31.0631 505.009 32.1278 501.519 31.2644 497.706C30.4011 493.894 27.9366 491.204 25.7598 491.698C23.583 492.191 22.5183 495.682 23.3817 499.494Z" fill="#F3CECA"/>
<path d="M30.2715 505.34C32.8745 505.41 35.0213 504.11 35.0664 502.435C35.1115 500.76 33.0379 499.346 30.4349 499.276C27.8318 499.205 25.6851 500.506 25.64 502.181C25.5949 503.855 27.6685 505.27 30.2715 505.34Z" fill="#F3CECA"/>
<path d="M114.556 492.668C114.547 491.551 115.349 490.567 116.51 490.27L120.516 489.243C122.538 488.725 124.551 490.077 124.648 492.018C124.735 493.778 123.192 495.241 121.291 495.198L117.14 495.104C115.709 495.072 114.566 493.994 114.556 492.668Z" fill="#857895"/>
<path d="M115.429 493.84C115.596 493.522 116.009 493.391 116.41 493.528L119.521 494.587C120.2 494.818 120.584 495.511 120.34 496.066C120.104 496.605 119.379 496.783 118.763 496.453L115.855 494.896C115.43 494.669 115.241 494.198 115.429 493.84Z" fill="#857895"/>
<path d="M24.7284 498.82C25.5917 502.633 28.0563 505.323 30.233 504.829C32.4098 504.335 33.4745 500.845 32.6111 497.033C31.7477 493.22 29.2832 490.53 27.1065 491.024C24.9297 491.518 23.865 495.008 24.7284 498.82Z" fill="#FF8C73"/>
<path d="M31.5808 495.976C27.9226 496.652 25.3126 499.128 25.7512 501.508C26.1898 503.887 29.5109 505.269 33.1691 504.594C36.8274 503.919 39.4374 501.442 38.9988 499.062C38.5602 496.683 35.2391 495.301 31.5808 495.976Z" fill="#FF8C73"/>
<path d="M29.1984 492.343C30.1202 491.932 32.5052 493.214 34.2385 494.286C35.3329 494.963 35.4154 496.571 34.4671 497.743C33.352 499.121 31.5341 499.577 30.285 498.726C28.746 497.677 26.9525 496.308 26.8185 495.541C26.5809 494.18 27.6793 493.021 29.1984 492.343Z" fill="#282A4B"/>
<path d="M32.934 493.138C36.0513 493.295 50.3778 503.77 57.1177 508.822C59.0617 510.279 59.4275 512.999 57.9528 514.833C56.0931 517.145 52.6944 517.551 50.2308 515.73C43.5236 510.771 31.3276 501.546 29.4209 498.645C26.7684 494.609 28.8238 492.932 32.934 493.138Z" fill="#735BA5"/>
<path d="M50.2215 488.97C50.401 486.404 52.61 484.421 55.258 484.448C58.8635 484.485 61.6902 487.47 61.4271 490.962L59.8681 511.65C59.4398 517.334 52.0511 519.547 48.3943 515.088L50.2215 488.97Z" fill="#735BA5"/>
<path d="M77.2003 515.335C78.8532 514.913 80.524 516.158 80.74 517.974L81.3707 523.275C81.6146 525.325 80.3426 527.177 78.4486 527.531C75.7975 528.025 73.4653 525.411 74.0738 522.626L75.1982 517.481C75.4312 516.415 76.2001 515.591 77.2003 515.335Z" fill="#8280DC"/>
<path d="M8.56333 506.909C9.4267 510.722 11.8912 513.412 14.068 512.918C16.2447 512.424 17.3094 508.934 16.4461 505.121C15.5827 501.309 13.1182 498.619 10.9414 499.113C8.76468 499.606 7.69996 503.097 8.56333 506.909Z" fill="#F3CECA"/>
<path d="M14.1065 512.755C16.7095 512.825 18.8562 511.525 18.9013 509.85C18.9464 508.175 16.8728 506.761 14.2698 506.691C11.6668 506.62 9.52008 507.921 9.47497 509.596C9.42987 511.27 11.5035 512.685 14.1065 512.755Z" fill="#F3CECA"/>
<path d="M9.23618 506.909C10.0996 510.722 12.5641 513.412 14.7408 512.918C16.9176 512.424 17.9823 508.934 17.1189 505.121C16.2556 501.309 13.7911 498.619 11.6143 499.113C9.43753 499.606 8.37282 503.097 9.23618 506.909Z" fill="#FF8C73"/>
<path d="M15.4541 512.755C18.0572 512.825 20.2039 511.525 20.249 509.85C20.2941 508.175 18.2205 506.761 15.6175 506.691C13.0145 506.62 10.8677 507.921 10.8226 509.596C10.7775 511.27 12.8511 512.685 15.4541 512.755Z" fill="#FF8C73"/>
<rect width="13.4778" height="5.38988" transform="matrix(0.591457 0.806336 -0.805909 0.59204 74.3418 507.075)" fill="#8280DC"/>
<path d="M79.7297 516.394C80.1152 516.124 80.6043 516.13 80.881 516.407L83.8282 519.355C84.2905 519.818 84.1598 520.63 83.5446 521.118C82.929 521.607 82.0898 521.563 81.7241 521.023L79.3941 517.586C79.1505 517.226 79.3005 516.694 79.7297 516.394Z" fill="#8280DC"/>
<path d="M108.54 485.793L121.198 490.407L118.855 494.737L106.465 491.493L108.54 485.793Z" fill="#8280DC"/>
<path d="M64.7962 481.542L74.121 479.904C72.4801 495.109 71.5129 501.596 79.5759 512.117C78.1569 515.23 77.0947 516.532 72.4358 514.759C65.1299 503.194 63.5915 495.878 64.7962 481.542Z" fill="#FF8C73"/>
<path d="M80.0088 477.187L77.9119 486.529C92.5989 488.672 96.1985 490.652 108.644 493.074C111.723 491.746 113.037 490.718 111.588 485.965C98.1681 481.888 93.5825 479.876 80.0088 477.187Z" fill="#FF8C73"/>
<path d="M13.5818 502.388C14.3544 501.747 16.9684 502.328 18.9222 502.891C20.1781 503.253 20.7054 504.788 20.106 506.175C19.4025 507.802 17.7607 508.726 16.3094 508.235C14.5522 507.64 12.481 506.81 12.148 506.111C11.5537 504.864 12.3005 503.451 13.5818 502.388Z" fill="#282A4B"/>
<path d="M39.5484 491.938C39.8767 486.687 42.9332 481.995 47.5975 479.581C54.0026 476.267 61.5562 477.966 60.8888 485.16C60.0582 494.111 55.5766 506.271 51.7446 515.828C49.5208 521.374 41.2788 522.247 37.9639 517.28L39.5484 491.938Z" fill="#8280DC"/>
<path d="M44.2855 490.548C42.1518 486.732 42.2848 481.832 45.6702 479.172C53.8304 472.759 65.216 472.103 76.526 475.097C83.1402 476.848 84.3127 481.244 83.7394 485.348C82.9442 491.041 76.9346 493.559 71.2593 493.424C68.0517 493.347 65.7369 493.482 63.8932 493.936C56.3638 495.793 48.136 497.435 44.2855 490.548Z" fill="#FF8C73"/>
<path d="M74.4094 491.836C80.1641 492.197 85.1587 487.218 85.5653 480.716C85.9718 474.214 81.6363 468.651 75.8817 468.29C70.127 467.93 65.1323 472.909 64.7258 479.411C64.3192 485.913 68.6547 491.476 74.4094 491.836Z" fill="#8280DC"/>
<path d="M17.5254 502.74C20.563 501.932 36.7388 507.971 44.4837 510.979C46.7616 511.864 47.8014 514.512 46.804 516.82C45.5478 519.725 42.3094 521.17 39.4333 520.075C31.7608 517.154 17.9293 511.695 15.4179 509.377C11.9067 506.137 13.5019 503.809 17.5254 502.74Z" fill="#8280DC"/>
<path d="M85.4926 477.75C83.2328 480.44 77.2589 478.414 74.5545 477.065C73.9449 476.592 72.3276 475.882 70.7348 476.826C68.7438 478.005 72.8295 479.565 72.3314 481.955C71.8333 484.345 68.3369 490.087 65.421 483.757C62.5051 477.428 66.3023 472.45 70.192 468.782C74.0816 465.114 80.2855 466.247 83.4683 468.309C85.5518 468.44 83.7003 464.598 83.77 463.485C84.0233 459.433 86.3163 464.576 88.4457 466.758C90.5751 468.941 88.3173 474.388 85.4926 477.75Z" fill="#0C2264"/>
<path d="M115.124 492.597L127.346 492.533L112.781 508.037H98.3828L115.124 492.597Z" fill="#FFEFE7"/>
<path d="M115.124 492.597L127.346 492.533L112.781 508.037H98.3828L115.124 492.597Z" fill="#FFEFE7"/>
<path d="M118.095 493.882L125.326 493.882L112.339 507.363H104.445L118.095 493.882Z" fill="#8280DC"/>
<path d="M118.095 493.882L125.326 493.882L112.339 507.363H104.445L118.095 493.882Z" fill="#8280DC"/>
<path d="M108.486 490.998L123.151 478.378L127.244 492.62L112.747 508.037L108.486 490.998Z" fill="#FFEFE7"/>
<path d="M253.302 471.908L274.856 470.964V487.141H253.302V471.908Z" fill="#8280DC"/>
<rect width="4.1898" height="13.5413" transform="matrix(0.0167484 0.99986 -0.999859 0.0167737 275.524 482.311)" fill="#FF8C73"/>
<path d="M258.036 484.434L262.098 482.464L262.057 486.487L258.036 484.434Z" fill="#CDDCF4"/>
<path d="M288.147 490.446C291.609 494.374 294.829 492.044 288.357 494.891C277.34 502.272 275.155 493.831 266.696 485.533C265.09 482.693 267.663 481.728 269.304 482.667C277.41 490.639 279.376 498.348 288.147 490.446Z" fill="#FFDBBA"/>
<path d="M292.43 481.892L297.08 484.615L291.443 494.256C288.962 494.238 287.895 493.717 286.792 491.533L292.43 481.892Z" fill="#735BA5"/>
<path d="M324.72 489.544C323.517 495.449 318.931 500.311 312.868 500.422C300.947 500.641 289.384 496.42 288.586 485.316C288.538 484.644 288.705 483.971 289.014 483.372C290.348 480.785 293.951 480.466 296.722 481.416C303.476 483.732 311.043 478.477 318.137 478.031C323.708 477.68 325.827 484.108 324.72 489.544Z" fill="#ABB8F9"/>
<path d="M300.358 476.007C299.253 481.431 292.502 485.499 287.764 484.533C283.025 483.566 282.093 477.93 283.198 472.506C284.303 467.081 289.04 463.467 293.779 464.434C298.517 465.401 301.463 470.582 300.358 476.007Z" fill="#FFDBBA"/>
<path d="M300.712 493.315C307.275 494.563 305.582 495.209 302.236 499.029C291.827 507.278 285.341 508.402 272.902 505.695C269.139 504.183 270.095 501.343 272.552 501.088C283.991 504.137 290.471 501.771 300.712 493.315Z" fill="#FFDBBA"/>
<path d="M303.88 488.497C307.386 488.79 308.002 489.953 308.383 492.559L301.378 500.336C298.804 499.577 297.759 498.748 296.875 496.274L303.88 488.497Z" fill="#735BA5"/>
<path d="M282.807 466.133C284.438 462.396 289.109 461.873 291.24 462.079C301.627 458.038 305.461 468.738 306.08 474.594L302.15 497.442L290.788 495.124C291.546 489.824 293.3 478.999 294.257 478.094C295.454 476.963 293.609 475.349 292.315 475.773C291.021 476.196 291.29 474.876 291.184 473.617C291.078 472.358 289.319 474.474 288.739 474.356L282.942 473.173C281.667 472.913 280.768 470.805 282.807 466.133Z" fill="#FF8C73"/>
<path d="M216.564 479.617L244.423 477.962L260.698 491.191L226.309 491.894L216.564 479.617Z" fill="#ABB8F9"/>
<defs>
<filter id="filter0_f" x="113.326" y="489.297" width="165.447" height="50.2886" filterUnits="userSpaceOnUse" color-interpolation-filters="sRGB">
<feFlood flood-opacity="0" result="BackgroundImageFix"/>
<feBlend mode="normal" in="SourceGraphic" in2="BackgroundImageFix" result="shape"/>
<feGaussianBlur stdDeviation="6" result="effect1_foregroundBlur"/>
</filter>
<linearGradient id="paint0_linear" x1="281" y1="653" x2="322.252" y2="9.42967" gradientUnits="userSpaceOnUse">
<stop stop-color="#E6EFFF"/>
<stop offset="1" stop-color="#4887E3"/>
</linearGradient>
<linearGradient id="paint1_linear" x1="337.08" y1="281" x2="336.866" y2="331.107" gradientUnits="userSpaceOnUse">
<stop stop-color="white"/>
<stop offset="1" stop-color="white" stop-opacity="0"/>
</linearGradient>
<linearGradient id="paint2_linear" x1="197.475" y1="423.261" x2="201.874" y2="166.667" gradientUnits="userSpaceOnUse">
<stop stop-color="#FFDBBA"/>
<stop offset="1" stop-color="#FF8C73"/>
</linearGradient>
<linearGradient id="paint3_linear" x1="38.4309" y1="217" x2="38.1793" y2="268.683" gradientUnits="userSpaceOnUse">
<stop stop-color="white"/>
<stop offset="1" stop-color="white" stop-opacity="0"/>
</linearGradient>
<linearGradient id="paint4_linear" x1="133.938" y1="1241.57" x2="135.663" y2="1226.06" gradientUnits="userSpaceOnUse">
<stop stop-color="#91E9EE"/>
<stop offset="1" stop-color="#ABB8F9"/>
</linearGradient>
<linearGradient id="paint5_linear" x1="132.061" y1="519.834" x2="266.772" y2="521.18" gradientUnits="userSpaceOnUse">
<stop stop-color="#91E9EE"/>
<stop offset="1" stop-color="#ABB8F9"/>
</linearGradient>
<linearGradient id="paint6_linear" x1="142.13" y1="474.268" x2="142.13" y2="520.18" gradientUnits="userSpaceOnUse">
<stop offset="0.0772481" stop-color="#ABB8F9"/>
<stop offset="0.950276" stop-color="#83CCFD"/>
</linearGradient>
<linearGradient id="paint7_linear" x1="114.97" y1="407.288" x2="124.652" y2="407.288" gradientUnits="userSpaceOnUse">
<stop stop-color="#AEAEFF"/>
<stop offset="0.974846" stop-color="#FF8A8B" stop-opacity="0.82"/>
</linearGradient>
</defs>
</svg>
